<svg width="64" height="72" viewBox="0 0 64 72" fill="none" xmlns="http://www.w3.org/2000/svg" xmlns:xlink="http://www.w3.org/1999/xlink">
<path d="M8,8.771L8,6.771C6.895,6.771 6,7.667 6,8.771L8,8.771ZM26.667,8.771L28.667,8.771C28.667,7.667 27.771,6.771 26.667,6.771L26.667,8.771ZM26.667,29.238L26.667,31.238C27.771,31.238 28.667,30.343 28.667,29.238L26.667,29.238ZM8,29.238L6,29.238C6,30.343 6.895,31.238 8,31.238L8,29.238ZM8,10.771L26.667,10.771L26.667,6.771L8,6.771L8,10.771ZM24.667,8.771L24.667,29.238L28.667,29.238L28.667,8.771L24.667,8.771ZM26.667,27.238L8,27.238L8,31.238L26.667,31.238L26.667,27.238ZM10,29.238L10,8.771L6,8.771L6,29.238L10,29.238Z" fill="#FF6900"/>
<path d="M37.333,8.771L37.333,6.771C36.229,6.771 35.333,7.667 35.333,8.771L37.333,8.771ZM56,8.771L58,8.771C58,7.667 57.105,6.771 56,6.771L56,8.771ZM56,29.238L56,31.238C57.105,31.238 58,30.343 58,29.238L56,29.238ZM37.333,29.238L35.333,29.238C35.333,30.343 36.229,31.238 37.333,31.238L37.333,29.238ZM37.333,10.771L56,10.771L56,6.771L37.333,6.771L37.333,10.771ZM54,8.771L54,29.238L58,29.238L58,8.771L54,8.771ZM56,27.238L37.333,27.238L37.333,31.238L56,31.238L56,27.238ZM39.333,29.238L39.333,8.771L35.333,8.771L35.333,29.238L39.333,29.238Z" fill="#FF6900"/>
<path d="M37.333,40.934L37.333,38.934C36.229,38.934 35.333,39.829 35.333,40.934L37.333,40.934ZM56,40.934L58,40.934C58,39.829 57.105,38.934 56,38.934L56,40.934ZM56,61.4L56,63.4C57.105,63.4 58,62.505 58,61.4L56,61.4ZM37.333,61.4L35.333,61.4C35.333,62.505 36.229,63.4 37.333,63.4L37.333,61.4ZM37.333,42.934L56,42.934L56,38.934L37.333,38.934L37.333,42.934ZM54,40.934L54,61.4L58,61.4L58,40.934L54,40.934ZM56,59.4L37.333,59.4L37.333,63.4L56,63.4L56,59.4ZM39.333,61.4L39.333,40.934L35.333,40.934L35.333,61.4L39.333,61.4Z" fill="#FF6900"/>
<path d="M8,40.934L8,38.934C6.895,38.934 6,39.829 6,40.934L8,40.934ZM26.667,40.934L28.667,40.934C28.667,39.829 27.771,38.934 26.667,38.934L26.667,40.934ZM26.667,61.4L26.667,63.4C27.771,63.4 28.667,62.505 28.667,61.4L26.667,61.4ZM8,61.4L6,61.4C6,62.505 6.895,63.4 8,63.4L8,61.4ZM8,42.934L26.667,42.934L26.667,38.934L8,38.934L8,42.934ZM24.667,40.934L24.667,61.4L28.667,61.4L28.667,40.934L24.667,40.934ZM26.667,59.4L8,59.4L8,63.4L26.667,63.4L26.667,59.4ZM10,61.4L10,40.934L6,40.934L6,61.4L10,61.4Z" fill="#FF6900"/>
</svg>
