<svg width="108" height="108" viewBox="0 0 108 108" fill="none" xmlns="http://www.w3.org/2000/svg" xmlns:xlink="http://www.w3.org/1999/xlink">
<path d="M108,54C108,65.918 104.138,76.933 97.599,85.864C87.775,99.284 71.904,94.201 54,94.201C36.096,94.201 20.225,99.284 10.401,85.864C3.862,76.933 0,65.918 0,54C0,24.178 24.178,0 54,0C83.822,0 108,24.178 108,54Z" fill="#FFFFFF"/>
<path d="M54,94.201C71.904,94.201 87.775,99.284 97.599,85.864C104.138,76.933 108,65.918 108,54C108,53.684 107.994,53.369 107.988,53.054L70.392,15.458L33.114,46.422L40.747,54.105C41.651,57.435 45.314,66.483 45.314,66.483L10.401,85.864C20.225,99.284 36.096,94.201 54,94.201Z" fill="#FFA14B"/>
<rect  x="36.333" y="63.351" width="35.333" height="9.212" fill="#584B66"/>
<rect  x="54" y="63.351" width="17.666" height="9.212" fill="#4A3E56"/>
<rect  x="42.181" y="54.947" width="23.638" height="25.068" fill="#FFBB7D"/>
<rect  x="54" y="54.947" width="11.819" height="25.068" fill="#EFA36A"/>
<rect  x="28.384" y="70.093" width="51.231" height="24.109" fill="#FFD4A6"/>
<rect  x="54" y="70.093" width="25.616" height="24.108" fill="#FFBB7D"/>
<path d="M97.599,85.864C87.775,99.284 71.904,108 54,108C36.096,108 20.225,99.284 10.401,85.864C10.671,77.108 17.856,70.092 26.677,70.092L42.181,70.092L54,81.422L65.819,70.092L81.325,70.092C90.148,70.092 97.331,77.106 97.599,85.864L97.599,85.864Z" fill="#7B7284"/>
<path d="M97.599,85.864C87.775,99.284 71.904,108 54,108L54,81.422L63.241,72.562L65.819,70.092L81.325,70.092C90.148,70.092 97.331,77.106 97.599,85.864L97.599,85.864Z" fill="#635A6D"/>
<path d="M73.748,31.883C72.914,19.218 62.669,14.537 54,14.537C45.331,14.537 35.086,19.218 34.252,31.883C32.01,32.316 30.418,35.257 30.669,37.634L31.053,43.044C31.316,45.541 33.51,47.363 35.929,47.092L36.346,47.047C41.3,60.349 49.069,61.736 54,62.515C58.931,61.736 66.7,60.349 71.654,47.047L72.071,47.092C74.49,47.363 76.684,45.541 76.947,43.044L77.331,37.634C77.582,35.257 75.99,32.316 73.748,31.883Z" fill="#FFD4A6"/>
<path d="M77.332,37.634L76.947,43.044C76.684,45.541 74.49,47.363 72.072,47.092L71.655,47.047C69.961,51.588 67.942,54.742 65.819,56.955C61.726,61.225 57.249,62.002 54,62.515L54,14.537C62.669,14.537 72.914,19.218 73.748,31.883C75.99,32.316 77.582,35.257 77.332,37.634L77.332,37.634Z" fill="#FFBB7D"/>
<path d="M58.182,43.142C55.771,41.091 52.229,41.091 49.818,43.142C47.129,45.428 43.752,46.747 40.225,46.89L36.346,47.047L36.606,48.611C38.02,57.116 45.378,63.352 54,63.352C62.815,62.863 70.111,56.324 71.56,47.615L71.654,47.047L67.774,46.89C64.248,46.747 60.871,45.428 58.182,43.142L58.182,43.142Z" fill="#EFEBDC"/>
<path d="M71.653,47.048L71.561,47.615C70.837,51.971 68.65,55.783 65.543,58.567C62.435,61.351 58.409,63.108 54,63.351L54,41.603C55.489,41.603 56.978,42.116 58.183,43.141C60.87,45.428 64.247,46.748 67.774,46.889L71.653,47.048Z" fill="#D6CFBD"/>
<path d="M36.333,63.351L54,81.422L45.167,90.914L30.059,70.093L36.333,63.351Z" fill="#9D97A5"/>
<path d="M71.667,63.351L54,81.422L62.833,90.914L77.941,70.093L71.667,63.351Z" fill="#7F7887"/>
<path d="M42.029,6.223C42.029,6.223 30.607,17.356 32.973,28.342L34.622,39.287L39.157,39.287L41.325,31.216C42.097,28.345 45.057,26.603 47.92,27.405C48.195,27.482 48.469,27.568 48.742,27.665L49.534,27.946C52.438,28.977 55.605,28.875 58.476,27.756C59.054,27.531 59.643,27.351 60.238,27.214C63.059,26.568 65.886,28.28 66.636,31.075L68.843,39.287L73.378,39.287L75.022,27.891C75.375,18.123 67.522,6.223 42.029,6.223L42.029,6.223Z" fill="#494949"/>
<path d="M75.022,27.892L73.379,39.287L68.844,39.287L66.637,31.075C65.886,28.28 63.06,26.568 60.237,27.215C59.643,27.35 59.054,27.532 58.476,27.757C57.033,28.318 55.519,28.624 54,28.658L54,7.271C70.054,10.384 75.311,19.86 75.022,27.892L75.022,27.892Z" fill="#333333"/>
</svg>
