<svg width="42" height="48" viewBox="0 0 42 48" fill="none" xmlns="http://www.w3.org/2000/svg" xmlns:xlink="http://www.w3.org/1999/xlink">
<path d="M14.112,8.964C13.823,9.241 13.585,9.554 13.395,9.897C13.267,10.129 11.122,15.213 11.122,15.213C9.478,19.061 7.089,22.503 4.021,25.443L2.522,26.88C-0.6,29.872 -0.641,34.715 2.431,37.676C3.929,39.12 5.924,39.916 8.047,39.916C8.049,39.916 8.051,39.916 8.054,39.916C9.23,39.916 10.367,39.67 11.403,39.207L14.186,41.873C14.333,42.015 14.527,42.086 14.72,42.086C14.898,42.086 15.075,42.025 15.217,41.906L19.135,45.661C19.863,46.358 20.819,46.707 21.774,46.707C22.73,46.707 23.686,46.358 24.413,45.661C25.868,44.267 25.868,41.998 24.413,40.603L20.497,36.85L21.026,36.342C21.168,36.207 21.248,36.022 21.248,35.83C21.248,35.638 21.168,35.454 21.026,35.318L18.823,33.207C20.997,31.656 23.365,30.374 25.904,29.379C25.904,29.379 31.195,27.339 31.613,27.115C32.051,26.88 32.425,26.513 32.425,26.513C35.289,23.955 33.341,17.927 28.206,13.007C23.072,8.086 16.881,6.31 14.112,8.964ZM12.743,38.443C13.063,38.217 13.368,37.966 13.654,37.692L15.228,36.183C15.467,35.954 15.71,35.731 15.956,35.509L17.857,37.331L14.72,40.337L12.743,38.443ZM20.204,44.637L16.288,40.883L17.776,39.457L21.693,43.211C22.112,43.612 22.343,44.147 22.343,44.715C22.343,44.717 22.343,44.718 22.343,44.72C22.342,45.022 22.074,45.259 21.759,45.257C21.195,45.254 20.633,45.048 20.204,44.637ZM23.344,41.627C24.021,42.276 24.166,43.24 23.786,44.027C23.646,43.334 23.294,42.697 22.762,42.186L18.845,38.433L19.428,37.874L23.344,41.627ZM19.423,35.83L18.926,36.307L17.081,34.54C17.26,34.393 17.44,34.247 17.622,34.104L19.423,35.83ZM25.331,28.038C21.129,29.686 17.37,32.082 14.159,35.159L12.585,36.667C11.374,37.828 9.765,38.467 8.053,38.467C8.051,38.467 8.049,38.467 8.048,38.467C6.329,38.467 4.715,37.823 3.503,36.655C1.017,34.259 1.057,30.333 3.591,27.904L5.09,26.468C8.301,23.391 10.801,19.789 12.521,15.761L13.115,14.369C13.78,16.922 15.586,19.841 18.331,22.471C20.717,24.757 23.447,26.456 26.018,27.254C26.279,27.335 26.536,27.406 26.788,27.467L25.331,28.038ZM19.404,16.885C19.416,16.922 19.426,16.959 19.439,16.996C19.744,17.899 20.386,18.851 21.247,19.676C22.187,20.576 23.214,21.179 24.157,21.443L21.951,23.557C21.076,22.938 20.218,22.23 19.399,21.446C18.581,20.662 17.842,19.839 17.197,19L19.404,16.885ZM25.646,20.017L25.646,20.017L25.644,20.018C25.262,20.379 23.743,20.019 22.316,18.652C21.631,17.995 21.107,17.229 20.877,16.55C20.708,16.049 20.713,15.631 20.891,15.46C20.983,15.373 21.142,15.329 21.347,15.329C21.541,15.329 21.774,15.368 22.028,15.447C22.737,15.667 23.536,16.169 24.221,16.826C25.65,18.195 26.025,19.653 25.646,20.017ZM31.356,25.489C31.181,25.656 31.099,25.728 30.804,25.885C30.508,26.041 30.216,26.122 30.216,26.122C29.241,26.408 27.949,26.331 26.484,25.876C25.417,25.545 24.316,25.038 23.224,24.386L26.712,21.043C26.713,21.042 26.714,21.042 26.715,21.041C27.867,19.937 27.254,17.684 25.29,15.801C24.429,14.977 23.436,14.361 22.494,14.069C21.379,13.723 20.431,13.853 19.822,14.436L19.822,14.436L16.332,17.781C15.651,16.734 15.123,15.679 14.777,14.657C14.302,13.251 14.221,12.011 14.522,11.076C14.522,11.076 14.62,10.764 14.737,10.571C14.855,10.377 15.006,10.156 15.181,9.988C15.758,9.435 16.59,9.175 17.585,9.175C20.208,9.175 23.959,10.985 27.137,14.031C31.521,18.232 33.453,23.479 31.356,25.489Z" fill="#333333" fill-opacity="0.9"/>
<path d="M41.174,17.052L34.262,17.052C33.844,17.052 33.506,17.376 33.506,17.776C33.506,18.176 33.844,18.5 34.262,18.5L41.174,18.5C41.592,18.5 41.93,18.176 41.93,17.776C41.93,17.376 41.592,17.052 41.174,17.052Z" fill="#333333" fill-opacity="0.9"/>
<path d="M31.114,14.04C31.242,14.304 31.515,14.459 31.799,14.459C31.906,14.459 32.015,14.437 32.118,14.391L39.767,10.972C40.146,10.803 40.309,10.372 40.133,10.01C39.956,9.647 39.507,9.49 39.129,9.659L31.479,13.078C31.101,13.247 30.937,13.678 31.114,14.04Z" fill="#333333" fill-opacity="0.9"/>
<path d="M28.43,11.293C28.572,11.407 28.744,11.462 28.915,11.462C29.131,11.462 29.345,11.374 29.495,11.203L35.173,4.719C35.441,4.412 35.4,3.956 35.08,3.698C34.76,3.441 34.283,3.481 34.015,3.788L28.337,10.272C28.069,10.579 28.11,11.036 28.43,11.293Z" fill="#333333" fill-opacity="0.9"/>
<path d="M25.223,8.947C25.289,8.964 25.355,8.972 25.42,8.972C25.753,8.972 26.059,8.758 26.149,8.435L28.252,0.912C28.36,0.525 28.121,0.128 27.718,0.025C27.315,-0.079 26.9,0.15 26.792,0.537L24.689,8.06C24.581,8.446 24.82,8.843 25.223,8.947Z" fill="#333333" fill-opacity="0.9"/>
</svg>
