<svg width="42" height="58" viewBox="0 0 42 58" fill="none" xmlns="http://www.w3.org/2000/svg" xmlns:xlink="http://www.w3.org/1999/xlink">
<path d="M41.961,8.804C41.961,8.238 41.961,7.633 41.961,7.066C41.961,6.462 41.961,5.857 41.961,5.252C41.961,4.686 41.923,4.081 41.884,3.514C41.845,2.947 41.73,2.381 41.652,1.852C41.614,1.549 41.575,1.247 41.498,0.945C41.498,0.869 41.459,0.794 41.459,0.756C41.382,0.529 41.227,0.378 41.034,0.265C40.879,0.189 40.725,0.113 40.57,0.076C40.416,0.038 40.223,0.038 40.068,0.038C39.875,0.038 39.682,0.038 39.489,0.038C39.063,0.038 38.638,0.038 38.213,0.076C37.016,0.113 35.779,0.151 34.581,0.189C33.963,0.189 33.384,0.227 32.765,0.302C32.186,0.34 31.606,0.378 31.027,0.416C29.829,0.491 28.67,0.529 27.472,0.491C26.236,0.453 25.038,0.453 23.801,0.491C22.603,0.491 21.406,0.605 20.247,0.718C19.783,0.756 19.281,0.831 18.817,0.907C17.658,0.945 16.46,0.945 15.301,0.982C14.721,0.982 14.142,1.02 13.562,1.02C13.292,1.02 12.983,1.02 12.712,1.02C12.403,1.02 12.094,1.02 11.785,1.02C10.548,1.02 9.312,1.058 8.114,1.096C7.534,1.096 6.955,1.096 6.375,1.096C5.757,1.096 5.139,1.096 4.482,1.096C3.902,1.096 3.323,1.134 2.743,1.171C2.589,1.171 2.473,1.171 2.318,1.209C2.086,1.096 1.932,1.134 1.777,1.171C1.507,1.209 1.275,1.323 1.082,1.436C0.58,1.814 0.348,2.456 0.27,3.061C0.116,4.27 0,5.517 0,6.726C0,7.935 0.039,9.144 0.077,10.354C0.116,11.525 0.193,12.734 0.27,13.906C0.309,14.472 0.348,15.039 0.386,15.606C0.425,16.248 0.464,16.891 0.502,17.495C0.541,18.704 0.58,19.914 0.58,21.085C0.58,22.256 0.618,23.39 0.657,24.561C0.695,25.771 0.734,26.98 0.734,28.151C0.734,29.285 0.734,30.456 0.773,31.59C0.773,32.194 0.811,32.799 0.811,33.404C0.811,34.008 0.811,34.613 0.811,35.217C0.811,35.784 0.811,36.389 0.811,36.955C0.811,37.522 0.811,38.089 0.811,38.656C0.811,39.827 0.773,40.999 0.734,42.17C0.734,43.379 0.734,44.588 0.695,45.798C0.695,46.364 0.657,46.969 0.657,47.536C0.618,48.103 0.618,48.669 0.618,49.236C0.618,50.445 0.58,51.617 0.541,52.826C0.541,53.09 0.541,53.355 0.541,53.619C0.541,53.695 0.541,53.771 0.541,53.846C0.541,53.997 0.58,54.111 0.58,54.262C0.58,54.337 0.618,54.413 0.657,54.526C0.695,54.64 0.734,54.715 0.811,54.829C0.889,54.904 0.966,55.018 1.043,55.093C1.198,55.244 1.43,55.358 1.623,55.433C2.318,55.698 3.052,55.773 3.787,55.811C4.096,55.849 4.405,55.849 4.675,55.887C5.95,55.962 7.225,56.038 8.5,56.076C8.771,56.076 9.041,56.076 9.312,56.076C9.582,56.076 9.814,56.076 10.085,56.076C10.741,56.076 11.36,56.038 12.017,56.038C13.214,56 14.451,56 15.649,55.962C18.121,55.887 20.633,55.773 23.106,55.698C24.342,55.66 25.579,55.584 26.815,55.547C27.974,55.509 29.133,55.471 30.293,55.433C31.529,55.395 32.804,55.358 34.04,55.32C35.238,55.32 36.436,55.282 37.634,55.244C38.252,55.206 38.909,55.206 39.527,55.093C39.798,55.055 40.068,55.018 40.339,54.942C40.532,54.904 40.725,54.791 40.879,54.677C40.957,54.602 41.034,54.526 41.111,54.451C41.189,54.337 41.266,54.224 41.343,54.111C41.382,53.997 41.459,53.884 41.498,53.771C41.536,53.657 41.575,53.582 41.575,53.468C41.614,53.279 41.652,53.053 41.691,52.864C41.73,52.486 41.768,52.07 41.768,51.692C41.768,51.39 41.768,51.088 41.768,50.823C41.768,50.521 41.73,50.219 41.73,49.916C41.691,49.312 41.652,48.745 41.614,48.14C41.575,47.536 41.536,46.931 41.536,46.327C41.498,45.722 41.498,45.155 41.459,44.551C41.42,43.908 41.382,43.266 41.343,42.586C41.305,42.019 41.266,41.452 41.227,40.885C41.227,40.583 41.189,40.319 41.189,40.016C41.189,39.714 41.189,39.412 41.227,39.109C41.266,38.543 41.266,37.938 41.266,37.371C41.266,36.804 41.266,36.238 41.189,35.709C41.15,35.104 41.073,34.537 41.034,33.933C40.957,32.761 40.879,31.552 40.918,30.343C40.918,29.171 41.034,27.962 41.15,26.791C41.266,25.657 41.343,24.486 41.42,23.352C41.498,22.105 41.536,20.858 41.614,19.649C41.652,18.478 41.73,17.306 41.807,16.135C41.884,14.964 41.961,13.83 41.961,12.659C41.961,12.016 41.961,11.412 41.961,10.769C42,9.976 41.961,9.371 41.961,8.804ZM40.686,11.601C40.686,12.772 40.648,13.906 40.57,15.077C40.493,16.286 40.416,17.533 40.339,18.742C40.261,19.951 40.184,21.123 40.145,22.332C40.068,23.503 39.991,24.675 39.914,25.808C39.798,27.018 39.682,28.227 39.604,29.436C39.566,30.57 39.604,31.741 39.682,32.875C39.72,33.479 39.759,34.121 39.836,34.726C39.914,35.293 39.952,35.897 39.991,36.464C40.029,37.031 40.029,37.598 39.991,38.202C39.991,38.769 39.952,39.336 39.952,39.903C39.991,40.47 39.991,41.036 40.029,41.603C40.068,41.906 40.068,42.208 40.107,42.51C40.145,42.85 40.145,43.153 40.184,43.493C40.261,44.74 40.3,45.949 40.339,47.196C40.377,47.8 40.416,48.367 40.454,48.972C40.493,49.576 40.532,50.181 40.532,50.785C40.532,50.974 40.532,51.163 40.532,51.352C40.532,51.692 40.532,52.032 40.493,52.372C40.454,52.675 40.416,52.977 40.3,53.242C40.261,53.317 40.223,53.393 40.184,53.468C40.184,53.468 40.184,53.468 40.184,53.506C40.145,53.506 40.145,53.544 40.107,53.544C39.952,53.582 39.836,53.619 39.682,53.657C38.484,53.846 37.286,53.884 36.127,53.96C34.891,53.997 33.654,54.035 32.456,54.073C30.022,54.148 27.588,54.224 25.115,54.337C22.681,54.413 20.285,54.526 17.851,54.602C16.653,54.64 15.455,54.677 14.258,54.715C12.944,54.753 11.669,54.791 10.355,54.791C9.814,54.791 9.235,54.791 8.694,54.791C8.423,54.791 8.153,54.753 7.882,54.753C7.612,54.753 7.38,54.715 7.109,54.715C5.989,54.64 4.907,54.564 3.825,54.451C3.323,54.375 2.821,54.337 2.357,54.186C2.28,54.148 2.202,54.111 2.125,54.073C2.125,54.073 2.125,54.073 2.086,54.035C2.086,54.035 2.086,54.035 2.086,53.997C2.086,53.96 2.086,53.96 2.048,53.922C2.009,53.619 2.009,53.317 2.009,53.015C2.009,52.713 2.009,52.448 2.009,52.146C2.009,51.541 2.009,50.899 2.009,50.294C2.009,49.161 2.009,48.027 2.009,46.893C2.009,46.327 2.009,45.722 2.009,45.155C2.009,44.551 1.971,43.984 1.971,43.379C1.971,42.208 1.971,41.074 1.971,39.903C1.971,39.298 1.971,38.656 1.971,38.051C1.971,37.447 1.971,36.88 1.932,36.275C1.932,35.104 1.932,33.933 1.855,32.761C1.816,31.628 1.777,30.456 1.739,29.323C1.739,28.718 1.739,28.113 1.739,27.509C1.739,26.904 1.7,26.3 1.7,25.695C1.661,24.524 1.623,23.314 1.584,22.143C1.546,20.972 1.546,19.8 1.546,18.591C1.507,17.42 1.468,16.211 1.391,15.039C1.314,13.83 1.198,12.659 1.159,11.449C1.121,10.429 1.082,9.409 1.043,8.351C1.043,7.822 1.043,7.293 1.082,6.764C1.121,6.273 1.159,5.819 1.198,5.328C1.236,4.912 1.314,4.497 1.391,4.119C1.468,3.741 1.507,3.325 1.661,2.947C1.7,2.834 1.777,2.721 1.855,2.607C1.893,2.57 1.893,2.57 1.932,2.532C1.971,2.532 1.971,2.494 2.009,2.494C2.125,2.456 2.202,2.418 2.318,2.418C3.439,2.267 4.559,2.192 5.68,2.192C6.298,2.192 6.955,2.154 7.573,2.154C8.153,2.154 8.732,2.116 9.351,2.078C10.548,1.965 11.785,1.889 13.06,1.889C13.717,1.889 14.373,1.852 14.992,1.814C15.571,1.852 16.151,1.852 16.73,1.814C17.387,1.776 18.006,1.7 18.662,1.625C18.701,1.625 18.74,1.625 18.778,1.625C19.242,1.587 19.706,1.587 20.169,1.549C21.251,1.511 22.333,1.474 23.376,1.436C24.149,1.436 24.96,1.474 25.733,1.511C26.313,1.511 26.931,1.549 27.511,1.549C27.897,1.549 28.283,1.549 28.67,1.549C28.902,1.549 29.133,1.549 29.327,1.549C30.524,1.549 31.722,1.474 32.92,1.398C33.5,1.36 34.118,1.323 34.697,1.323C35.354,1.323 35.972,1.285 36.629,1.285C37.209,1.247 37.788,1.247 38.407,1.209C39.025,1.209 39.604,1.171 40.223,1.209C40.261,1.209 40.3,1.209 40.3,1.209C40.3,1.209 40.3,1.209 40.3,1.247C40.339,1.474 40.377,1.7 40.377,1.927C40.416,2.192 40.454,2.494 40.493,2.758C40.532,3.023 40.57,3.287 40.57,3.59C40.57,3.892 40.609,4.157 40.609,4.459C40.648,5.063 40.648,5.668 40.648,6.273C40.648,6.877 40.648,7.482 40.609,8.086C40.609,8.691 40.609,9.296 40.648,9.9C40.686,10.467 40.686,11.034 40.686,11.601Z" fill="#354A59"/>
<path d="M38.329,8.238C38.252,7.822 38.214,7.444 38.136,7.028C38.059,6.688 37.982,6.31 37.866,5.97C37.827,5.857 37.789,5.744 37.75,5.668C37.673,5.517 37.557,5.404 37.402,5.366C37.325,5.328 37.248,5.29 37.17,5.29C37.093,5.29 37.016,5.252 36.938,5.252C36.707,5.215 36.513,5.215 36.282,5.177C35.547,5.139 34.813,5.101 34.079,5.101C33.306,5.063 32.534,5.026 31.761,5.026C31.027,4.988 30.293,4.95 29.52,4.95C29.172,4.95 28.786,4.95 28.438,4.95C28.052,4.95 27.704,4.95 27.317,4.95C26.931,4.95 26.583,4.912 26.197,4.912C25.811,4.912 25.424,4.912 25.076,4.874C24.342,4.874 23.57,4.837 22.835,4.799C22.101,4.761 21.328,4.723 20.594,4.723C20.517,4.723 20.44,4.723 20.362,4.723C19.706,4.723 19.049,4.761 18.431,4.799C17.696,4.874 16.962,4.912 16.19,4.988C15.61,5.026 15.03,5.063 14.412,5.139C14.064,5.177 13.717,5.215 13.369,5.29C13.253,5.29 13.137,5.29 13.021,5.29C12.287,5.29 11.592,5.328 10.857,5.328C10.085,5.328 9.351,5.328 8.578,5.328C7.844,5.328 7.071,5.328 6.337,5.404C5.796,5.441 5.255,5.479 4.753,5.592C4.637,5.63 4.559,5.63 4.443,5.668C4.366,5.706 4.289,5.744 4.25,5.781C4.173,5.819 4.134,5.895 4.057,5.933C3.98,6.008 3.902,6.121 3.825,6.235C3.748,6.348 3.709,6.499 3.671,6.65C3.632,6.764 3.632,6.877 3.632,6.991C3.632,7.142 3.593,7.293 3.593,7.444C3.593,7.557 3.593,7.709 3.593,7.822C3.593,8.578 3.516,9.333 3.516,10.089C3.516,10.429 3.516,10.807 3.555,11.147C3.593,11.487 3.632,11.865 3.632,12.205C3.671,12.545 3.671,12.923 3.709,13.263C3.709,13.414 3.748,13.603 3.748,13.754C3.748,13.83 3.787,13.943 3.787,14.019C3.825,14.132 3.825,14.246 3.864,14.359C3.902,14.51 3.98,14.623 4.057,14.775C4.134,14.888 4.212,14.964 4.289,15.077C4.405,15.19 4.521,15.266 4.637,15.304C4.753,15.379 4.907,15.417 5.023,15.455C5.139,15.493 5.293,15.53 5.409,15.568C5.68,15.644 5.912,15.682 6.182,15.682C6.298,15.682 6.375,15.682 6.491,15.682C6.878,15.682 7.225,15.719 7.612,15.719C9.157,15.719 10.703,15.682 12.248,15.719C13.021,15.719 13.794,15.757 14.567,15.757C15.339,15.757 16.112,15.757 16.885,15.757C18.353,15.757 19.783,15.719 21.251,15.682C22.797,15.644 24.342,15.568 25.888,15.493C27.356,15.455 28.824,15.417 30.293,15.304C31.065,15.228 31.8,15.19 32.572,15.115C33.345,15.039 34.079,15.001 34.852,14.926C35.586,14.85 36.359,14.775 37.093,14.661C37.248,14.623 37.402,14.623 37.518,14.586C37.595,14.548 37.673,14.51 37.75,14.472C37.827,14.435 37.866,14.359 37.943,14.321C38.059,14.208 38.136,14.094 38.175,13.943C38.329,13.565 38.407,13.188 38.445,12.772C38.484,12.356 38.523,11.978 38.523,11.563C38.561,10.807 38.523,10.089 38.445,9.333C38.407,8.918 38.368,8.578 38.329,8.238ZM37.363,11.941C37.363,12.054 37.363,12.205 37.325,12.318C37.286,12.696 37.248,13.074 37.132,13.414C37.132,13.452 37.093,13.49 37.093,13.49L37.054,13.49C35.586,13.717 34.118,13.792 32.688,13.906C31.954,13.981 31.181,14.019 30.447,14.094C29.713,14.132 29.018,14.208 28.283,14.208C26.777,14.283 25.27,14.321 23.763,14.397C22.256,14.472 20.788,14.548 19.281,14.586C17.696,14.623 16.151,14.661 14.567,14.699C13.833,14.699 13.098,14.699 12.403,14.699C11.592,14.699 10.819,14.699 10.007,14.699C9.428,14.699 8.848,14.699 8.269,14.737C8.037,14.737 7.844,14.737 7.612,14.737C7.496,14.737 7.38,14.737 7.225,14.737C6.878,14.737 6.491,14.737 6.144,14.699C5.989,14.699 5.834,14.661 5.68,14.623C5.564,14.586 5.409,14.548 5.293,14.51C5.178,14.472 5.1,14.435 5.023,14.359C4.984,14.321 4.946,14.283 4.907,14.246C4.868,14.208 4.83,14.132 4.83,14.094C4.791,14.019 4.753,13.906 4.753,13.83C4.714,13.49 4.675,13.188 4.637,12.848C4.598,12.507 4.559,12.13 4.521,11.789C4.482,11.449 4.443,11.109 4.405,10.769C4.366,10.429 4.366,10.051 4.405,9.711C4.405,9.333 4.443,8.955 4.443,8.578C4.443,8.389 4.443,8.2 4.482,8.011C4.482,7.709 4.482,7.406 4.521,7.104C4.559,6.915 4.559,6.764 4.637,6.613C4.637,6.575 4.675,6.537 4.675,6.537L4.714,6.499C4.714,6.499 4.714,6.499 4.753,6.499C4.907,6.462 5.023,6.424 5.178,6.386C5.564,6.31 5.989,6.31 6.375,6.273C6.762,6.235 7.109,6.235 7.496,6.235C8.269,6.197 9.041,6.197 9.814,6.159C11.282,6.121 12.751,6.084 14.219,6.008C15.726,5.933 17.233,5.895 18.74,5.857C19.512,5.819 20.247,5.819 21.019,5.819C21.676,5.819 22.372,5.857 23.029,5.857C23.106,5.857 23.183,5.857 23.26,5.857C24.304,5.857 25.308,5.819 26.352,5.819C26.699,5.819 27.047,5.857 27.433,5.857C28.168,5.895 28.863,5.895 29.597,5.895C30.331,5.933 31.104,5.97 31.838,6.008C32.611,6.046 33.422,6.084 34.195,6.121C34.891,6.159 35.625,6.197 36.32,6.235C36.398,6.235 36.475,6.273 36.552,6.273C36.629,6.273 36.707,6.273 36.784,6.31C36.784,6.348 36.823,6.424 36.823,6.462C36.861,6.613 36.9,6.726 36.938,6.877C37.016,7.142 37.054,7.368 37.093,7.633C37.209,8.313 37.325,9.031 37.363,9.711C37.402,10.089 37.402,10.467 37.402,10.807C37.402,11.185 37.402,11.563 37.363,11.941Z" fill="#354A59"/>
<path d="M38.368,24.524C38.329,24.07 38.291,23.617 38.213,23.163C38.175,22.71 38.097,22.294 38.059,21.841C38.02,21.425 37.982,21.009 37.943,20.594C37.904,20.367 37.866,20.14 37.788,19.914C37.75,19.762 37.672,19.611 37.556,19.498C37.518,19.46 37.441,19.385 37.363,19.385C37.286,19.347 37.209,19.309 37.131,19.309C37.016,19.271 36.861,19.271 36.706,19.271C36.281,19.233 35.818,19.233 35.393,19.233C34.929,19.196 34.504,19.196 34.04,19.196C33.577,19.196 33.113,19.196 32.649,19.196C32.224,19.196 31.761,19.196 31.336,19.196C31.065,19.196 30.795,19.196 30.524,19.196C29.867,19.196 29.211,19.196 28.554,19.233C28.09,19.271 27.665,19.309 27.24,19.347C26.39,19.347 25.501,19.309 24.651,19.347C23.608,19.347 22.565,19.347 21.522,19.385C20.594,19.385 19.706,19.422 18.778,19.422C17.735,19.422 16.692,19.422 15.649,19.422C15.224,19.422 14.799,19.422 14.335,19.422C13.794,19.422 13.253,19.422 12.712,19.422C11.785,19.422 10.896,19.385 9.969,19.385C9.466,19.385 9.003,19.422 8.5,19.422C8.23,19.422 7.96,19.46 7.689,19.46C7.457,19.46 7.225,19.498 6.994,19.498C6.878,19.498 6.762,19.536 6.607,19.536C6.337,19.574 6.028,19.611 5.796,19.762C5.641,19.838 5.525,19.951 5.409,20.065C5.371,20.14 5.293,20.216 5.255,20.291C5.216,20.367 5.178,20.443 5.139,20.556C5.1,20.707 5.062,20.858 5.023,21.009C4.984,21.123 4.984,21.198 4.984,21.312C4.946,21.576 4.946,21.841 4.907,22.143C4.907,22.37 4.868,22.634 4.868,22.861C4.868,23.806 4.868,24.75 4.907,25.695C4.946,26.602 4.984,27.509 5.023,28.416C5.062,29.36 5.1,30.343 5.1,31.287C5.1,31.779 5.1,32.232 5.062,32.723C5.062,33.215 5.023,33.668 5.023,34.159C4.984,35.066 4.984,35.973 4.984,36.842C4.984,37.787 4.984,38.731 4.984,39.676C4.984,40.583 4.946,41.528 4.907,42.434C4.868,43.379 4.83,44.286 4.791,45.231C4.791,45.684 4.791,46.138 4.791,46.591C4.791,47.044 4.753,47.536 4.753,47.989C4.714,48.443 4.714,48.896 4.714,49.349C4.714,49.614 4.753,49.878 4.791,50.143C4.868,50.445 5.023,50.71 5.255,50.936C5.564,51.201 5.95,51.314 6.337,51.428C6.569,51.503 6.8,51.541 7.032,51.617C7.225,51.654 7.457,51.692 7.689,51.73C8.191,51.806 8.732,51.843 9.235,51.843C10.201,51.881 11.167,51.957 12.132,51.995C13.06,52.032 14.026,52.07 14.992,52.07C15.958,52.07 16.962,52.032 17.928,52.032C18.894,52.032 19.86,52.07 20.826,52.07C21.792,52.07 22.758,52.07 23.685,52.032C24.651,51.995 25.579,52.032 26.545,52.032C28.438,52.07 30.37,52.07 32.263,52.032C33.19,52.032 34.156,51.995 35.084,51.919C35.547,51.881 36.05,51.843 36.513,51.73C36.706,51.692 36.861,51.617 37.016,51.541C37.17,51.466 37.286,51.352 37.363,51.239C37.479,51.088 37.556,50.936 37.634,50.785C37.711,50.596 37.788,50.407 37.827,50.219C37.866,50.067 37.904,49.916 37.904,49.803C37.982,49.312 37.982,48.82 37.982,48.329C37.982,47.876 37.982,47.422 37.943,46.931C37.943,46.478 37.904,45.986 37.904,45.533C37.904,45.042 37.904,44.551 37.904,44.059C37.904,43.606 37.904,43.115 37.904,42.661C37.904,42.208 37.904,41.754 37.904,41.301C37.904,40.81 37.943,40.318 37.982,39.827C38.02,39.374 38.059,38.958 38.059,38.505C38.097,37.636 38.097,36.729 38.097,35.86C38.097,34.991 38.175,34.084 38.252,33.215C38.252,33.252 38.252,33.252 38.252,33.29C38.252,33.328 38.252,33.366 38.252,33.366C38.252,33.328 38.252,33.328 38.252,33.29L38.252,33.328C38.252,33.29 38.252,33.252 38.252,33.215C38.252,33.177 38.252,33.177 38.252,33.139C38.252,33.063 38.252,33.026 38.291,32.95C38.291,32.988 38.291,32.988 38.291,33.026C38.329,32.534 38.407,32.081 38.445,31.59C38.484,31.099 38.522,30.645 38.522,30.154C38.561,29.247 38.561,28.302 38.522,27.395C38.484,26.337 38.445,25.43 38.368,24.524ZM36.745,34.386C36.668,34.386 36.591,34.386 36.513,34.386C36.359,34.386 36.204,34.386 36.05,34.386C35.702,34.386 35.393,34.386 35.045,34.386C34.388,34.386 33.731,34.386 33.113,34.386C31.761,34.386 30.408,34.462 29.056,34.462C29.017,34.462 28.979,34.462 28.94,34.462C28.94,34.197 28.94,33.97 28.94,33.706C28.94,32.837 28.94,31.968 28.94,31.136C28.979,29.814 29.017,28.491 29.056,27.169C29.79,27.169 30.524,27.131 31.258,27.093C31.606,27.055 31.954,27.055 32.302,27.055C32.649,27.055 32.959,27.055 33.306,27.055C33.654,27.055 34.002,27.055 34.349,27.055C34.697,27.055 35.045,27.055 35.393,27.055C35.74,27.055 36.088,27.055 36.475,27.055C36.706,27.055 36.938,27.055 37.17,27.055C37.17,27.358 37.17,27.66 37.17,27.924C37.17,28.869 37.17,29.814 37.093,30.758C37.054,31.212 37.016,31.665 36.977,32.157C36.9,32.912 36.822,33.668 36.784,34.424C36.784,34.386 36.784,34.386 36.745,34.386ZM28.013,35.671C27.974,36.54 27.936,37.371 27.936,38.24C27.936,39.072 27.936,39.941 27.897,40.81C27.897,41.414 27.858,41.981 27.781,42.586C27.742,42.586 27.742,42.586 27.704,42.586C27.549,42.586 27.395,42.586 27.201,42.586C26.815,42.586 26.429,42.586 26.081,42.548C25.694,42.548 25.347,42.548 24.96,42.548C24.613,42.548 24.226,42.548 23.879,42.548C23.106,42.51 22.333,42.472 21.56,42.434C21.135,42.397 20.71,42.397 20.285,42.359C20.285,42.208 20.285,42.057 20.285,41.905C20.247,41.15 20.208,40.394 20.208,39.638C20.169,38.883 20.169,38.127 20.169,37.333C20.169,36.54 20.208,35.784 20.208,34.991C20.401,34.991 20.556,34.991 20.749,34.991C21.444,34.991 22.14,35.028 22.835,35.028C24.226,35.066 25.579,35.104 26.97,35.142C27.317,35.142 27.704,35.142 28.051,35.179C28.051,35.331 28.013,35.482 28.013,35.671ZM19.59,31.703C19.551,32.459 19.512,33.215 19.512,34.008C19.512,34.121 19.512,34.273 19.512,34.386C18.624,34.386 17.735,34.386 16.846,34.424C16.151,34.424 15.494,34.424 14.799,34.462C14.103,34.499 13.446,34.499 12.751,34.537C12.712,33.441 12.673,32.383 12.635,31.287C12.596,29.927 12.557,28.567 12.519,27.244C12.519,27.169 12.519,27.093 12.519,27.018C13.176,27.018 13.871,27.018 14.528,27.055C15.262,27.055 15.996,27.093 16.692,27.093C17.001,27.093 17.31,27.093 17.658,27.093C18.006,27.093 18.392,27.093 18.74,27.093C19.087,27.093 19.474,27.093 19.822,27.093C19.783,27.887 19.744,28.642 19.667,29.436C19.667,30.154 19.628,30.91 19.59,31.703ZM12.017,28.189C12.017,29.511 12.094,30.872 12.132,32.194C12.171,32.988 12.171,33.744 12.21,34.537C11.707,34.575 11.167,34.575 10.664,34.613C9.969,34.65 9.273,34.688 8.539,34.688C8.075,34.688 7.612,34.688 7.148,34.65C6.955,34.65 6.723,34.613 6.53,34.613C6.414,34.613 6.298,34.613 6.144,34.613C6.105,34.613 6.105,34.613 6.066,34.613C6.066,34.159 6.105,33.706 6.105,33.215C6.105,32.723 6.144,32.27 6.144,31.779C6.144,31.287 6.144,30.758 6.144,30.267C6.105,29.36 6.066,28.416 6.028,27.509C6.028,27.358 5.989,27.169 5.989,27.018C6.221,26.98 6.414,27.018 6.646,27.018C6.8,27.018 6.994,27.055 7.148,27.055C7.534,27.055 7.882,27.093 8.269,27.055C8.964,27.055 9.621,27.018 10.316,27.018C10.896,27.018 11.437,26.98 12.017,26.98C12.017,27.358 12.017,27.773 12.017,28.189ZM6.028,41.452C6.066,40.545 6.066,39.638 6.066,38.694C6.066,37.787 6.066,36.842 6.066,35.935C6.066,35.557 6.066,35.217 6.066,34.839C6.105,34.839 6.144,34.839 6.182,34.839C6.298,34.839 6.414,34.839 6.569,34.877C6.878,34.915 7.187,34.953 7.496,34.953C7.844,34.991 8.191,34.991 8.5,34.991C9.196,34.991 9.93,34.991 10.626,34.991C11.167,34.991 11.669,34.953 12.21,34.953C12.21,35.331 12.248,35.746 12.248,36.124C12.248,36.464 12.287,36.842 12.287,37.182C12.287,37.484 12.326,37.787 12.326,38.127C12.326,38.807 12.326,39.525 12.287,40.205C12.287,40.847 12.248,41.452 12.248,42.094C11.514,42.094 10.741,42.057 10.007,42.057C9.466,42.057 8.925,42.057 8.423,42.019C7.921,42.019 7.38,41.981 6.878,41.905C6.607,41.868 6.298,41.83 6.028,41.792C5.989,41.679 5.989,41.565 6.028,41.452ZM12.828,37.258C12.789,36.578 12.789,35.935 12.751,35.255C12.751,35.179 12.751,35.104 12.751,34.991C13.408,34.991 14.103,34.953 14.76,34.953C15.417,34.953 16.112,34.953 16.769,34.953C17.426,34.953 18.083,34.953 18.701,34.953C18.933,34.953 19.203,34.953 19.435,34.953C19.397,36.2 19.358,37.447 19.397,38.656C19.397,39.449 19.435,40.205 19.435,40.999C19.435,41.414 19.474,41.868 19.474,42.283C19.397,42.283 19.319,42.283 19.242,42.283C17.696,42.208 16.151,42.17 14.605,42.132C13.987,42.132 13.408,42.094 12.789,42.094C12.789,41.15 12.828,40.167 12.828,39.223C12.867,38.543 12.867,37.9 12.828,37.258ZM25.038,34.424C23.608,34.386 22.217,34.386 20.787,34.348C20.633,34.348 20.478,34.348 20.324,34.348C20.285,34.348 20.285,34.348 20.247,34.348C20.247,33.744 20.247,33.139 20.285,32.534C20.324,31.741 20.362,30.947 20.401,30.192C20.44,29.398 20.44,28.642 20.478,27.849C20.478,27.584 20.517,27.32 20.517,27.055C20.672,27.055 20.787,27.055 20.942,27.055C21.638,27.093 22.333,27.131 23.029,27.169C23.724,27.206 24.42,27.206 25.115,27.206C25.81,27.206 26.506,27.206 27.24,27.169C27.626,27.169 28.013,27.169 28.399,27.169C28.399,27.471 28.361,27.735 28.361,28.038C28.322,28.907 28.245,29.738 28.206,30.607C28.167,31.892 28.129,33.177 28.09,34.462C27.047,34.462 26.042,34.424 25.038,34.424ZM31.413,20.065C31.877,20.103 32.302,20.103 32.765,20.14C33.229,20.14 33.654,20.178 34.118,20.178C34.581,20.216 35.045,20.216 35.47,20.254C35.856,20.291 36.243,20.291 36.629,20.329C36.668,20.594 36.706,20.896 36.706,21.161C36.745,21.576 36.784,21.992 36.861,22.445C36.977,23.352 37.093,24.259 37.131,25.204C37.17,25.544 37.17,25.884 37.17,26.262C37.093,26.262 37.054,26.262 36.977,26.262C36.822,26.262 36.706,26.262 36.552,26.262C36.243,26.262 35.895,26.3 35.586,26.3C35.238,26.3 34.89,26.3 34.543,26.3C34.195,26.3 33.847,26.3 33.499,26.337C33.345,26.337 33.19,26.337 33.036,26.337C32.843,26.337 32.688,26.337 32.495,26.337C32.147,26.337 31.838,26.375 31.49,26.375C31.143,26.413 30.756,26.413 30.408,26.451C30.061,26.451 29.713,26.451 29.365,26.451C29.288,26.451 29.172,26.451 29.095,26.451C29.095,26.337 29.095,26.224 29.095,26.073C29.095,25.204 29.095,24.335 29.133,23.466C29.133,23.05 29.172,22.634 29.211,22.181C29.249,21.765 29.249,21.312 29.288,20.896C29.288,20.556 29.288,20.216 29.211,19.914C29.945,19.989 30.679,20.027 31.413,20.065ZM23.84,19.951C24.381,19.951 24.96,19.914 25.501,19.914C25.54,19.951 25.617,19.951 25.694,19.951C26.197,19.951 26.699,19.951 27.201,19.951C27.665,19.951 28.129,19.951 28.592,19.951C28.631,20.027 28.631,20.065 28.631,20.14C28.708,20.669 28.631,21.198 28.592,21.69C28.554,22.105 28.515,22.521 28.515,22.937C28.476,23.768 28.438,24.637 28.438,25.468C28.438,25.808 28.399,26.111 28.399,26.451C28.051,26.451 27.665,26.451 27.317,26.451C26.622,26.451 25.926,26.489 25.231,26.489C24.535,26.489 23.84,26.489 23.144,26.489C22.449,26.489 21.753,26.413 21.058,26.375C20.903,26.375 20.71,26.375 20.556,26.375C20.633,25.317 20.672,24.297 20.749,23.239C20.787,22.672 20.826,22.105 20.826,21.576C20.826,21.312 20.826,21.009 20.826,20.745C20.826,20.518 20.787,20.291 20.787,20.065C20.903,20.065 21.019,20.065 21.135,20.065C22.024,20.027 22.913,19.989 23.84,19.951ZM15.185,20.254C16.112,20.216 17.04,20.178 18.006,20.178C18.74,20.178 19.512,20.14 20.247,20.103C20.247,20.443 20.285,20.783 20.285,21.161C20.285,21.538 20.285,21.879 20.247,22.256C20.169,23.012 20.092,23.806 20.053,24.561C20.015,25.166 19.937,25.733 19.899,26.337C18.856,26.3 17.812,26.337 16.808,26.337C16.267,26.337 15.687,26.337 15.146,26.337C14.296,26.337 13.446,26.337 12.596,26.337C12.557,26.337 12.557,26.337 12.519,26.337C12.519,25.922 12.519,25.506 12.519,25.09C12.519,24.448 12.557,23.806 12.557,23.163C12.557,22.634 12.557,22.105 12.557,21.576C12.557,21.161 12.519,20.745 12.519,20.291C13.408,20.329 14.296,20.291 15.185,20.254ZM5.873,21.841C5.873,21.803 5.873,21.803 5.873,21.765C5.912,21.425 5.95,21.047 6.066,20.707C6.066,20.669 6.105,20.632 6.144,20.594C6.144,20.594 6.144,20.594 6.182,20.594C6.259,20.556 6.337,20.556 6.414,20.518C6.916,20.443 7.419,20.405 7.921,20.405C8.385,20.405 8.81,20.367 9.273,20.367C10.201,20.329 11.128,20.329 12.055,20.329C12.055,20.934 12.094,21.501 12.094,22.105C12.094,22.785 12.055,23.466 12.055,24.146C12.017,24.901 12.017,25.657 12.017,26.375C11.862,26.375 11.707,26.375 11.553,26.413C11.205,26.413 10.857,26.451 10.51,26.451C9.814,26.489 9.119,26.526 8.423,26.526C7.998,26.526 7.573,26.526 7.148,26.526C6.916,26.526 6.723,26.526 6.491,26.489C6.375,26.489 6.259,26.489 6.144,26.489C6.105,26.489 6.028,26.489 5.989,26.489C5.989,26.375 5.989,26.262 5.95,26.111C5.912,25.619 5.873,25.166 5.873,24.675C5.834,24.184 5.834,23.692 5.834,23.201C5.834,22.785 5.834,22.332 5.873,21.841ZM8.385,50.483C8.075,50.445 7.766,50.407 7.457,50.37C7.303,50.332 7.148,50.294 6.994,50.256C6.762,50.181 6.491,50.143 6.259,50.03C6.182,49.992 6.105,49.954 6.028,49.916C6.028,49.916 6.028,49.916 6.028,49.878C5.989,49.803 5.989,49.765 5.989,49.69C5.95,49.274 5.95,48.858 5.95,48.443C5.95,47.951 5.989,47.498 5.989,47.007C5.989,46.553 5.989,46.1 5.95,45.646C5.95,45.193 5.912,44.739 5.95,44.286C5.95,43.644 5.989,43.001 5.989,42.321C6.646,42.434 7.341,42.51 7.998,42.586C8.771,42.623 9.544,42.661 10.316,42.699C10.935,42.737 11.592,42.737 12.21,42.775C12.21,43.228 12.171,43.719 12.132,44.173C12.094,44.815 12.017,45.457 12.017,46.138C11.978,46.78 11.978,47.46 11.939,48.102C11.901,48.594 11.901,49.085 11.901,49.576C11.901,49.841 11.901,50.067 11.901,50.332C11.901,50.445 11.901,50.559 11.901,50.672C11.901,50.71 11.901,50.71 11.901,50.748C11.476,50.71 11.051,50.71 10.626,50.672C9.891,50.596 9.157,50.559 8.385,50.483ZM17.426,50.71C16.962,50.71 16.46,50.748 15.996,50.748C15.03,50.785 14.064,50.785 13.098,50.748C12.944,50.748 12.828,50.748 12.712,50.71C12.712,50.634 12.712,50.559 12.712,50.483C12.712,50.332 12.712,50.143 12.712,49.992C12.712,49.69 12.673,49.349 12.673,49.047C12.673,48.405 12.673,47.762 12.712,47.082C12.712,46.44 12.712,45.797 12.751,45.155C12.789,44.513 12.828,43.87 12.828,43.19C12.828,43.039 12.828,42.888 12.828,42.737C13.562,42.775 14.258,42.775 14.992,42.812C16.537,42.85 18.044,42.926 19.59,43.001C19.59,43.115 19.59,43.19 19.59,43.304C19.59,44.059 19.551,44.815 19.551,45.571C19.551,46.364 19.512,47.12 19.512,47.914C19.512,48.443 19.551,48.972 19.512,49.501C19.512,49.765 19.512,49.992 19.512,50.256C19.512,50.37 19.512,50.483 19.512,50.559C19.512,50.596 19.512,50.672 19.512,50.71C19.319,50.71 19.165,50.71 18.971,50.71C18.392,50.71 17.928,50.71 17.426,50.71ZM24.613,50.71C23.647,50.71 22.681,50.748 21.753,50.748C21.29,50.748 20.826,50.748 20.362,50.748C20.362,50.634 20.362,50.521 20.362,50.407C20.362,50.256 20.362,50.067 20.362,49.916C20.362,49.538 20.362,49.161 20.324,48.783C20.324,48.405 20.285,48.027 20.285,47.649C20.285,47.271 20.285,46.893 20.285,46.515C20.285,45.76 20.285,45.004 20.285,44.248C20.285,43.87 20.285,43.492 20.285,43.115C20.787,43.152 21.328,43.19 21.831,43.19C22.603,43.228 23.376,43.304 24.149,43.304C24.497,43.304 24.844,43.341 25.192,43.341C25.54,43.341 25.926,43.341 26.274,43.379C26.622,43.379 26.97,43.417 27.279,43.455C27.395,43.455 27.549,43.455 27.665,43.455C27.626,43.833 27.626,44.21 27.626,44.551C27.626,44.966 27.626,45.382 27.626,45.797C27.626,46.591 27.588,47.422 27.626,48.216C27.626,48.594 27.665,49.009 27.704,49.387C27.742,49.765 27.742,50.181 27.781,50.559C27.781,50.634 27.781,50.672 27.781,50.748C27.665,50.748 27.51,50.748 27.395,50.748C26.506,50.71 25.54,50.672 24.613,50.71ZM36.784,37.711C36.784,38.202 36.745,38.694 36.706,39.185C36.668,39.638 36.629,40.054 36.629,40.507C36.591,41.452 36.591,42.434 36.591,43.379C36.591,44.324 36.591,45.231 36.629,46.175C36.668,47.12 36.706,48.065 36.706,49.009C36.706,49.161 36.706,49.274 36.668,49.425C36.668,49.538 36.629,49.614 36.629,49.727C36.591,49.878 36.552,50.03 36.513,50.143C36.475,50.219 36.436,50.294 36.397,50.37L36.359,50.407L36.32,50.445C36.166,50.483 36.05,50.521 35.895,50.559C35.47,50.634 35.006,50.634 34.581,50.672C34.118,50.71 33.615,50.71 33.152,50.71C32.186,50.748 31.258,50.748 30.292,50.748C29.79,50.748 29.288,50.748 28.786,50.748C28.786,50.672 28.786,50.559 28.786,50.483C28.786,50.294 28.747,50.105 28.747,49.916C28.708,49.538 28.708,49.123 28.708,48.745C28.67,48.367 28.67,47.951 28.67,47.573C28.67,47.158 28.67,46.742 28.67,46.327C28.67,45.495 28.631,44.702 28.67,43.87C28.708,43.039 28.786,42.208 28.824,41.376C28.863,40.545 28.863,39.676 28.863,38.845C28.863,37.976 28.901,37.107 28.94,36.238C28.94,35.897 28.979,35.557 28.979,35.217C29.017,35.217 29.056,35.217 29.095,35.217C29.79,35.217 30.486,35.217 31.143,35.179C31.799,35.179 32.495,35.179 33.152,35.179C33.809,35.179 34.465,35.217 35.084,35.217C35.431,35.217 35.74,35.255 36.088,35.255C36.243,35.255 36.397,35.255 36.552,35.293C36.629,35.293 36.706,35.293 36.745,35.293C36.784,35.293 36.784,35.293 36.822,35.293C36.784,36.049 36.822,36.88 36.784,37.711Z" fill="#354A59"/>
<line x1="38.213" y1="32.988" x2="38.213" y2="33.139" fill="#354A59"/>
<path d="M7.534,22.219C8.075,22.181 8.578,22.181 9.08,22.143C9.08,22.181 9.08,22.181 9.08,22.219C9.041,22.596 9.003,22.974 8.964,23.314C8.925,23.503 8.925,23.73 8.887,23.919C8.848,24.146 8.81,24.372 8.81,24.561C8.81,24.75 8.925,24.901 9.119,24.939C9.312,24.977 9.544,24.864 9.621,24.637C9.66,24.448 9.66,24.259 9.66,24.07C9.66,23.919 9.698,23.768 9.698,23.579C9.737,23.277 9.737,22.937 9.776,22.634C9.814,22.408 9.814,22.181 9.853,21.954C9.853,21.879 9.853,21.841 9.853,21.765C9.853,21.652 9.814,21.576 9.737,21.501C9.66,21.35 9.505,21.312 9.351,21.312L9.312,21.312C9.196,21.312 9.08,21.312 8.964,21.35C8.462,21.387 7.998,21.425 7.496,21.425C7.303,21.425 7.109,21.614 7.109,21.803C7.109,22.067 7.303,22.256 7.534,22.219Z" fill="#354A59"/>
<path d="M15.726,23.314C15.649,23.39 15.61,23.503 15.533,23.579C15.494,23.655 15.417,23.768 15.378,23.843C15.339,23.957 15.262,24.108 15.262,24.221C15.262,24.335 15.262,24.486 15.339,24.561C15.417,24.675 15.494,24.75 15.571,24.826C15.765,25.015 16.035,25.09 16.305,25.09C16.576,25.053 16.885,24.939 17.078,24.788C17.271,24.637 17.426,24.448 17.503,24.221C17.581,24.07 17.581,23.919 17.581,23.768C17.581,23.655 17.503,23.541 17.465,23.428C17.426,23.352 17.349,23.277 17.31,23.239C17.233,23.163 17.117,23.088 17.04,23.012C17.078,23.012 17.078,22.974 17.117,22.974C17.194,22.937 17.233,22.899 17.31,22.823C17.349,22.785 17.387,22.71 17.426,22.672C17.465,22.596 17.503,22.521 17.503,22.445C17.542,22.37 17.542,22.294 17.542,22.219C17.542,22.105 17.503,21.992 17.426,21.916C17.426,21.916 17.426,21.916 17.426,21.879C17.426,21.765 17.387,21.69 17.31,21.614C17.194,21.501 17.04,21.35 16.885,21.312C16.769,21.274 16.692,21.274 16.576,21.274C16.46,21.274 16.383,21.274 16.267,21.312C16.19,21.312 16.074,21.35 15.996,21.35C15.88,21.387 15.726,21.463 15.61,21.538C15.494,21.614 15.378,21.727 15.262,21.841C15.185,21.954 15.108,22.067 15.03,22.181C14.992,22.294 14.953,22.408 14.953,22.521C14.953,22.672 15.03,22.823 15.146,22.937C15.262,23.163 15.494,23.239 15.726,23.314ZM16.885,23.881C16.885,23.919 16.885,23.919 16.885,23.919C16.846,23.957 16.846,23.995 16.808,24.032C16.769,24.07 16.73,24.108 16.692,24.146C16.653,24.184 16.576,24.221 16.499,24.259C16.421,24.297 16.305,24.335 16.228,24.335C16.19,24.335 16.19,24.335 16.151,24.335C16.112,24.297 16.074,24.297 16.035,24.259C15.996,24.221 15.996,24.221 15.958,24.184C15.958,24.146 15.958,24.108 15.996,24.108C16.035,23.995 16.112,23.919 16.151,23.806C16.228,23.692 16.344,23.579 16.421,23.503C16.499,23.541 16.576,23.579 16.653,23.655C16.692,23.692 16.73,23.73 16.769,23.768C16.846,23.806 16.846,23.843 16.885,23.881ZM15.765,22.483C15.803,22.408 15.88,22.37 15.919,22.332C15.996,22.294 16.074,22.219 16.151,22.181C16.228,22.143 16.267,22.143 16.344,22.143L16.383,22.143C16.499,22.143 16.576,22.105 16.692,22.143C16.73,22.181 16.769,22.219 16.808,22.219C16.808,22.256 16.769,22.294 16.769,22.332C16.653,22.445 16.499,22.559 16.383,22.71C16.344,22.748 16.344,22.748 16.305,22.785C16.228,22.748 16.112,22.748 16.035,22.71C15.958,22.672 15.88,22.634 15.803,22.596C15.726,22.521 15.765,22.483 15.765,22.483ZM15.726,22.521C15.726,22.559 15.726,22.559 15.726,22.521ZM15.726,22.483C15.726,22.521 15.726,22.521 15.726,22.483Z" fill="#354A59"/>
<path d="M23.338,22.634C23.376,22.71 23.415,22.748 23.454,22.823C23.531,22.937 23.647,23.05 23.801,23.126C23.956,23.201 24.11,23.239 24.265,23.239C24.342,23.239 24.419,23.239 24.497,23.239C24.613,23.239 24.69,23.201 24.806,23.201C24.845,23.201 24.883,23.163 24.883,23.163C24.883,23.239 24.845,23.352 24.845,23.428C24.806,23.579 24.806,23.768 24.767,23.919C24.767,23.995 24.729,24.07 24.729,24.146C24.729,24.221 24.69,24.297 24.69,24.335C24.69,24.448 24.729,24.524 24.767,24.599C24.845,24.713 24.999,24.788 25.115,24.788C25.27,24.788 25.385,24.713 25.463,24.561C25.501,24.486 25.54,24.41 25.54,24.335C25.54,24.297 25.54,24.221 25.579,24.184C25.579,24.07 25.617,23.957 25.617,23.843C25.656,23.617 25.656,23.39 25.695,23.163C25.733,22.899 25.733,22.634 25.733,22.332C25.733,22.219 25.733,22.143 25.733,22.03C25.733,21.954 25.733,21.916 25.695,21.841C25.695,21.803 25.695,21.727 25.656,21.69C25.617,21.614 25.617,21.576 25.54,21.501C25.54,21.387 25.463,21.312 25.385,21.274C25.192,21.198 25.038,21.123 24.845,21.085C24.806,21.085 24.767,21.085 24.69,21.085C24.574,21.085 24.497,21.085 24.381,21.123C24.226,21.161 24.072,21.198 23.917,21.274C23.801,21.35 23.685,21.387 23.569,21.463C23.492,21.501 23.454,21.538 23.415,21.614C23.338,21.69 23.299,21.765 23.26,21.841C23.183,21.992 23.144,22.143 23.183,22.294C23.26,22.445 23.26,22.521 23.338,22.634ZM23.994,22.219C23.994,22.219 23.994,22.181 24.033,22.181C24.072,22.143 24.11,22.105 24.11,22.067C24.188,21.992 24.304,21.954 24.381,21.879C24.458,21.841 24.574,21.803 24.651,21.803C24.69,21.803 24.729,21.803 24.767,21.803C24.845,21.803 24.922,21.841 24.96,21.841L24.999,21.841C24.999,21.879 24.999,21.879 24.96,21.916C24.922,21.992 24.922,22.105 24.883,22.181C24.845,22.219 24.845,22.256 24.806,22.332C24.767,22.37 24.69,22.408 24.651,22.408C24.613,22.445 24.535,22.445 24.497,22.445C24.419,22.445 24.381,22.445 24.304,22.445C24.226,22.445 24.149,22.408 24.072,22.408C24.072,22.408 24.072,22.408 24.033,22.408L23.994,22.37C23.956,22.332 23.956,22.294 23.917,22.256C23.917,22.256 23.917,22.256 23.917,22.219C23.956,22.256 23.956,22.219 23.994,22.219Z" fill="#354A59"/>
<path d="M10.007,29.587C9.853,29.549 9.66,29.625 9.582,29.776C9.505,29.927 9.466,30.116 9.428,30.267C9.389,30.418 9.389,30.532 9.351,30.683C9.08,30.721 8.848,30.683 8.578,30.683C8.5,30.683 8.423,30.645 8.346,30.645C8.346,30.607 8.385,30.57 8.385,30.532C8.5,30.305 8.578,30.04 8.694,29.814C8.848,29.474 8.964,29.171 9.08,28.831C9.119,28.756 9.08,28.605 9.041,28.529C9.003,28.453 8.887,28.378 8.81,28.378C8.771,28.378 8.732,28.378 8.732,28.378C8.655,28.378 8.578,28.416 8.539,28.453C8.462,28.529 8.423,28.605 8.385,28.68C8.385,28.718 8.346,28.718 8.346,28.756C8.191,29.134 8.037,29.511 7.882,29.852C7.805,30.04 7.728,30.267 7.65,30.456C7.612,30.57 7.573,30.721 7.573,30.834C7.573,30.91 7.573,30.985 7.65,31.061C7.689,31.136 7.766,31.174 7.805,31.212C7.921,31.287 8.075,31.363 8.23,31.401C8.346,31.439 8.462,31.439 8.539,31.476C8.616,31.476 8.732,31.514 8.81,31.514C9.041,31.552 9.273,31.552 9.505,31.552C9.582,31.552 9.621,31.552 9.66,31.552C9.66,31.703 9.621,31.892 9.621,32.043C9.621,32.157 9.698,32.27 9.776,32.345C9.853,32.421 9.969,32.459 10.123,32.459C10.239,32.459 10.355,32.421 10.432,32.308C10.548,32.194 10.587,32.043 10.548,31.854C10.51,31.741 10.471,31.59 10.471,31.476C10.432,31.099 10.394,30.683 10.394,30.305C10.394,30.267 10.394,30.267 10.394,30.229C10.394,30.116 10.394,30.003 10.394,29.927C10.316,29.776 10.162,29.625 10.007,29.587Z" fill="#354A59"/>
<path d="M17.349,30.04C17.271,29.965 17.155,29.889 17.078,29.814C16.962,29.738 16.808,29.7 16.692,29.663C16.615,29.625 16.537,29.625 16.421,29.625C16.189,29.587 15.958,29.587 15.726,29.549C15.687,29.36 15.687,29.171 15.726,28.982C15.726,28.945 15.726,28.869 15.764,28.831C15.919,28.831 16.035,28.831 16.19,28.794C16.383,28.794 16.576,28.794 16.769,28.794C16.846,28.794 16.924,28.831 17.04,28.869C17.117,28.907 17.233,28.907 17.31,28.907C17.387,28.869 17.465,28.831 17.542,28.718C17.58,28.642 17.58,28.529 17.58,28.453C17.542,28.378 17.503,28.265 17.387,28.265C17.271,28.227 17.117,28.151 17.001,28.151C16.885,28.151 16.769,28.113 16.692,28.113C16.653,28.113 16.576,28.113 16.537,28.113C16.421,28.113 16.305,28.113 16.228,28.113C16.074,28.113 15.958,28.113 15.803,28.151C15.726,28.151 15.61,28.151 15.494,28.189C15.417,28.227 15.301,28.265 15.262,28.34C15.185,28.416 15.146,28.529 15.108,28.605C15.03,28.794 15.03,28.945 14.992,29.134C14.992,29.209 14.992,29.285 14.992,29.36C14.992,29.511 14.992,29.663 14.992,29.776C14.992,29.965 15.069,30.116 15.185,30.229C15.262,30.305 15.378,30.343 15.494,30.381C15.571,30.418 15.687,30.418 15.764,30.418C15.88,30.418 16.035,30.418 16.151,30.456C16.305,30.456 16.46,30.494 16.615,30.532C16.653,30.532 16.692,30.569 16.73,30.607L16.769,30.645C16.769,30.645 16.769,30.683 16.808,30.683C16.808,30.683 16.808,30.683 16.808,30.721L16.808,30.758C16.769,30.796 16.769,30.834 16.73,30.834C16.615,30.91 16.499,30.985 16.383,31.061C16.267,31.099 16.151,31.136 16.035,31.174C15.958,31.174 15.919,31.174 15.842,31.174C15.764,31.174 15.726,31.136 15.649,31.136C15.533,31.023 15.455,30.985 15.378,30.985C15.146,30.91 14.876,31.061 14.799,31.25C14.721,31.363 14.721,31.514 14.76,31.665C14.799,31.816 14.914,31.892 15.03,31.968C15.224,32.081 15.455,32.119 15.687,32.157C16.035,32.194 16.383,32.081 16.692,31.93C16.846,31.854 16.962,31.779 17.078,31.703C17.194,31.59 17.349,31.514 17.426,31.363C17.542,31.25 17.58,31.099 17.619,30.947C17.658,30.758 17.619,30.569 17.58,30.381C17.542,30.229 17.465,30.116 17.349,30.04Z" fill="#354A59"/>
<path d="M24.999,30.418C24.729,30.154 24.381,30.04 24.033,29.965C23.994,29.965 23.917,29.927 23.879,29.927L23.917,29.889C24.072,29.7 24.226,29.549 24.381,29.398C24.458,29.36 24.535,29.285 24.613,29.247C24.69,29.209 24.767,29.209 24.806,29.209C24.883,29.209 24.96,29.171 24.999,29.134C25.038,29.058 25.076,28.982 25.076,28.907C25.076,28.831 25.038,28.756 24.999,28.718C24.96,28.68 24.883,28.642 24.806,28.642C24.806,28.642 24.806,28.642 24.767,28.642C24.651,28.68 24.535,28.68 24.381,28.718C24.265,28.756 24.149,28.831 24.033,28.907C23.879,29.02 23.763,29.134 23.647,29.247C23.376,29.511 23.144,29.814 22.99,30.154C22.874,30.343 22.797,30.57 22.719,30.796C22.642,31.023 22.642,31.25 22.642,31.476C22.642,31.741 22.758,31.968 22.874,32.157C22.951,32.232 23.029,32.345 23.106,32.421C23.222,32.534 23.376,32.572 23.531,32.61C23.608,32.648 23.724,32.648 23.801,32.648C23.879,32.648 23.994,32.648 24.072,32.61C24.188,32.572 24.304,32.572 24.419,32.497C24.574,32.421 24.767,32.345 24.883,32.232C25.038,32.043 25.154,31.816 25.231,31.59C25.27,31.476 25.27,31.363 25.308,31.25C25.347,31.099 25.308,30.947 25.27,30.796C25.192,30.645 25.115,30.532 24.999,30.418ZM24.381,31.325C24.342,31.401 24.342,31.439 24.304,31.514C24.188,31.552 24.072,31.59 23.917,31.628C23.879,31.628 23.801,31.628 23.763,31.628L23.724,31.628L23.685,31.628C23.647,31.59 23.647,31.59 23.608,31.552C23.569,31.514 23.531,31.476 23.531,31.401C23.492,31.325 23.492,31.287 23.492,31.212C23.492,31.099 23.492,31.023 23.492,30.91L23.492,30.872C23.569,30.872 23.608,30.872 23.685,30.872C23.763,30.872 23.84,30.872 23.956,30.872C24.072,30.872 24.149,30.91 24.265,30.947C24.304,30.985 24.342,30.985 24.419,31.023C24.458,31.061 24.458,31.061 24.497,31.099C24.419,31.174 24.381,31.25 24.381,31.325Z" fill="#354A59"/>
<path d="M8.5,38.089C8.616,37.976 8.732,37.862 8.81,37.749C8.81,37.938 8.81,38.165 8.81,38.354C8.81,38.731 8.81,39.109 8.771,39.449C8.732,39.638 8.732,39.827 8.848,39.978C8.925,40.054 9.003,40.13 9.119,40.167C9.235,40.205 9.35,40.167 9.466,40.13C9.66,40.016 9.698,39.827 9.621,39.638C9.621,39.563 9.621,39.449 9.621,39.374C9.621,39.26 9.621,39.147 9.582,38.996C9.582,38.769 9.544,38.542 9.544,38.354C9.544,38.127 9.544,37.938 9.544,37.711C9.544,37.598 9.544,37.447 9.505,37.333C9.505,37.22 9.466,37.069 9.466,36.955C9.466,36.88 9.428,36.842 9.428,36.767C9.389,36.691 9.35,36.578 9.312,36.502C9.273,36.464 9.235,36.389 9.157,36.389C9.08,36.275 9.041,36.275 8.964,36.275C8.925,36.275 8.887,36.275 8.848,36.275C8.578,36.313 8.5,36.615 8.423,36.842C8.346,37.031 8.269,37.182 8.191,37.333C8.114,37.409 8.037,37.484 7.96,37.56C7.805,37.711 7.844,37.938 7.96,38.051C8.114,38.24 8.346,38.202 8.5,38.089Z" fill="#354A59"/>
<path d="M14.799,39.941C14.992,39.978 15.224,39.941 15.455,39.941C15.649,39.941 15.803,39.941 15.996,39.941C16.305,39.941 16.615,39.941 16.924,39.978C17.194,39.978 17.387,39.752 17.387,39.487C17.387,39.223 17.155,39.034 16.885,39.034C16.692,39.034 16.46,39.072 16.267,39.072C16.537,38.845 16.73,38.58 16.885,38.24C17.001,37.976 17.04,37.636 16.885,37.371C16.808,37.258 16.73,37.144 16.653,37.031C16.615,36.993 16.576,36.955 16.537,36.918C16.499,36.88 16.46,36.842 16.421,36.842C16.383,36.804 16.344,36.804 16.267,36.804C16.19,36.804 16.151,36.804 16.112,36.804C16.035,36.804 15.958,36.804 15.842,36.842C15.764,36.88 15.687,36.918 15.649,36.955C15.571,36.993 15.533,37.031 15.455,37.069C15.185,37.22 14.914,37.409 14.837,37.711C14.799,37.9 14.914,38.089 15.108,38.127C15.301,38.165 15.494,38.051 15.533,37.862C15.533,37.862 15.533,37.862 15.533,37.825L15.571,37.787C15.687,37.711 15.842,37.598 15.996,37.56C16.035,37.56 16.074,37.522 16.074,37.522C16.112,37.56 16.112,37.56 16.151,37.598C16.19,37.636 16.228,37.711 16.228,37.749C16.228,37.749 16.228,37.749 16.228,37.787C16.228,37.825 16.228,37.825 16.228,37.862C16.228,37.9 16.228,37.938 16.19,37.976C16.151,38.089 16.074,38.165 16.035,38.278C15.919,38.429 15.764,38.58 15.61,38.694C15.455,38.845 15.262,38.958 15.069,39.072C15.03,39.109 14.953,39.147 14.914,39.185C14.837,39.223 14.76,39.26 14.683,39.336C14.567,39.412 14.489,39.525 14.489,39.676C14.489,39.752 14.605,39.903 14.799,39.941Z" fill="#354A59"/>
<path d="M25.154,38.051C25.076,37.976 24.96,37.938 24.845,37.862C24.69,37.787 24.497,37.711 24.304,37.636L24.342,37.598C24.381,37.56 24.42,37.522 24.497,37.484C24.574,37.409 24.69,37.296 24.767,37.182C24.845,37.069 24.922,36.918 24.96,36.767C24.96,36.691 24.96,36.653 24.96,36.578C24.96,36.54 24.96,36.502 24.922,36.426C24.883,36.389 24.883,36.351 24.845,36.313L24.806,36.275C24.767,36.238 24.729,36.2 24.69,36.162C24.651,36.124 24.574,36.086 24.497,36.086C24.381,36.049 24.265,36.049 24.149,36.011C24.11,36.011 24.11,36.011 24.072,36.011C23.879,36.011 23.685,36.049 23.492,36.086C23.222,36.124 22.913,36.2 22.681,36.426C22.565,36.54 22.565,36.729 22.642,36.88C22.642,36.918 22.681,36.918 22.681,36.955C22.719,36.993 22.758,36.993 22.797,37.031C22.835,37.031 22.835,37.069 22.874,37.069C23.029,37.144 23.222,37.069 23.299,36.955C23.338,36.918 23.338,36.88 23.338,36.842C23.415,36.804 23.492,36.804 23.569,36.804C23.763,36.767 23.956,36.767 24.149,36.767C24.188,36.767 24.188,36.767 24.226,36.767C24.226,36.804 24.188,36.804 24.188,36.842C24.072,36.993 23.956,37.107 23.84,37.22C23.763,37.296 23.685,37.333 23.608,37.409C23.569,37.447 23.492,37.484 23.454,37.522C23.415,37.56 23.376,37.598 23.299,37.636C23.222,37.711 23.183,37.787 23.144,37.862C23.144,37.938 23.144,37.976 23.144,38.051C23.183,38.127 23.222,38.202 23.338,38.278C23.454,38.316 23.531,38.354 23.647,38.391C23.724,38.391 23.763,38.391 23.84,38.429C23.994,38.467 24.149,38.467 24.304,38.543C24.458,38.618 24.574,38.656 24.69,38.731L24.729,38.769C24.69,38.807 24.69,38.807 24.651,38.845C24.574,38.92 24.458,38.958 24.381,38.996C24.226,39.072 24.033,39.109 23.879,39.147C23.724,39.185 23.569,39.185 23.376,39.185C23.338,39.185 23.26,39.147 23.222,39.147C23.144,39.109 23.067,39.072 22.99,38.996C22.835,38.883 22.604,38.958 22.449,39.072C22.372,39.147 22.333,39.26 22.333,39.374C22.333,39.487 22.372,39.601 22.488,39.676C22.565,39.752 22.681,39.827 22.758,39.865C22.835,39.903 22.913,39.941 22.99,39.941C23.067,39.978 23.106,39.978 23.183,39.978C23.492,40.016 23.763,39.978 24.072,39.903C24.342,39.865 24.574,39.752 24.806,39.638C24.922,39.563 25.038,39.525 25.115,39.449C25.192,39.412 25.231,39.374 25.27,39.298C25.308,39.26 25.347,39.185 25.424,39.109C25.501,38.996 25.54,38.883 25.54,38.731C25.54,38.618 25.54,38.467 25.463,38.354C25.347,38.202 25.231,38.127 25.154,38.051Z" fill="#354A59"/>
<path d="M9.814,44.626C9.698,44.513 9.544,44.437 9.351,44.399C9.273,44.399 9.157,44.362 9.041,44.399L9.003,44.399C8.964,44.399 8.964,44.399 8.925,44.399L8.887,44.399C8.655,44.399 8.423,44.437 8.23,44.513C7.998,44.588 7.805,44.74 7.612,44.891C7.264,45.231 7.148,45.722 7.109,46.175C7.109,46.402 7.148,46.591 7.225,46.818C7.303,47.045 7.419,47.271 7.573,47.422C7.728,47.574 7.882,47.725 8.114,47.8C8.346,47.914 8.616,47.951 8.887,47.951C9.003,47.951 9.157,47.914 9.273,47.876C9.389,47.838 9.505,47.8 9.621,47.725C9.737,47.687 9.853,47.574 9.93,47.498C10.046,47.422 10.123,47.271 10.201,47.158C10.316,46.969 10.432,46.742 10.471,46.516C10.51,46.402 10.51,46.289 10.51,46.138C10.51,45.987 10.471,45.835 10.432,45.722C10.394,45.344 10.162,44.891 9.814,44.626ZM9.66,46.553C9.621,46.667 9.544,46.78 9.505,46.856C9.466,46.931 9.389,46.969 9.351,47.007C9.273,47.045 9.235,47.082 9.157,47.12C9.08,47.158 8.964,47.196 8.887,47.196C8.81,47.196 8.732,47.196 8.655,47.196C8.578,47.196 8.462,47.158 8.385,47.12C8.307,47.082 8.269,47.045 8.191,47.007C8.114,46.969 8.075,46.893 7.998,46.856C7.921,46.78 7.882,46.667 7.844,46.591C7.805,46.478 7.766,46.402 7.728,46.289C7.728,46.175 7.728,46.024 7.728,45.911C7.728,45.798 7.766,45.646 7.805,45.533C7.844,45.457 7.882,45.382 7.921,45.306C7.96,45.231 8.037,45.193 8.114,45.117C8.191,45.042 8.307,45.004 8.385,44.966C8.423,45.004 8.5,45.004 8.539,44.966C8.578,44.966 8.616,44.928 8.655,44.928C8.694,44.928 8.694,44.928 8.732,44.928C8.848,44.928 8.964,44.966 9.08,45.004C9.157,45.042 9.196,45.042 9.273,45.08C9.351,45.155 9.428,45.193 9.466,45.269C9.505,45.344 9.582,45.42 9.621,45.495C9.66,45.646 9.698,45.76 9.737,45.911C9.737,46.024 9.737,46.1 9.737,46.213C9.698,46.364 9.698,46.44 9.66,46.553Z" fill="#354A59"/>
<path d="M34.775,42.51C34.659,42.435 34.543,42.359 34.427,42.321C34.35,42.321 34.234,42.283 34.156,42.283C34.04,42.283 33.925,42.283 33.77,42.283C33.731,42.283 33.731,42.283 33.693,42.283C33.538,42.283 33.384,42.283 33.268,42.283C33.268,42.246 33.268,42.246 33.268,42.208C33.268,41.754 33.268,41.339 33.268,40.885C33.268,40.659 33.074,40.507 32.843,40.507C32.611,40.507 32.456,40.696 32.456,40.923C32.456,41.377 32.456,41.868 32.418,42.321C32.07,42.359 31.684,42.359 31.336,42.397C30.988,42.435 30.718,42.699 30.718,43.039C30.718,43.379 31.027,43.644 31.374,43.644C31.684,43.606 31.954,43.606 32.263,43.568C32.224,43.719 32.224,43.87 32.186,43.984C32.147,44.211 32.109,44.437 32.109,44.664C32.07,44.966 32.031,45.306 32.109,45.609C32.186,45.835 32.418,46.024 32.688,45.986C32.843,45.986 32.997,45.911 33.074,45.798C33.19,45.684 33.229,45.533 33.229,45.382C33.229,45.306 33.229,45.231 33.229,45.155C33.229,45.08 33.229,44.966 33.19,44.891C33.152,44.702 33.152,44.551 33.152,44.362C33.113,44.059 33.152,43.757 33.19,43.455C33.422,43.455 33.615,43.417 33.847,43.417C33.963,43.417 34.079,43.417 34.234,43.417C34.311,43.417 34.427,43.417 34.504,43.379C34.62,43.341 34.736,43.266 34.813,43.19C34.891,43.115 34.929,43.039 34.968,42.926C35.006,42.888 34.929,42.623 34.775,42.51Z" fill="#354A59"/>
<path d="M34.079,30.645C34.002,30.645 33.925,30.607 33.847,30.607C33.809,30.607 33.77,30.607 33.731,30.607C33.615,30.607 33.538,30.645 33.422,30.645C33.19,30.683 32.959,30.683 32.727,30.721C32.224,30.758 31.722,30.758 31.22,30.758C30.949,30.758 30.756,30.985 30.756,31.25C30.756,31.514 30.988,31.703 31.259,31.703C31.684,31.703 32.109,31.703 32.572,31.703C32.92,31.703 33.268,31.703 33.615,31.703C33.809,31.741 33.963,31.741 34.118,31.703C34.35,31.628 34.504,31.439 34.504,31.174C34.466,30.91 34.311,30.683 34.079,30.645Z" fill="#354A59"/>
<path d="M31.606,22.974C32.031,22.974 32.456,22.974 32.881,22.974C33.036,22.974 33.229,22.974 33.384,22.974C33.615,22.974 33.809,22.937 34.002,22.899C34.079,22.861 34.156,22.823 34.195,22.785C34.272,22.71 34.311,22.559 34.311,22.445C34.311,22.37 34.272,22.294 34.234,22.219C34.156,22.105 34.079,22.067 33.925,22.03C33.809,21.916 33.615,21.916 33.422,21.916C33.422,21.916 33.422,21.916 33.384,21.916C33.19,21.916 33.036,21.916 32.843,21.916C32.418,21.916 31.993,21.916 31.568,21.916C31.297,21.916 31.065,22.181 31.065,22.445C31.104,22.748 31.336,22.937 31.606,22.974Z" fill="#354A59"/>
<path d="M34.156,23.655C34.04,23.655 33.886,23.692 33.77,23.73C33.693,23.768 33.577,23.768 33.5,23.806C33.268,23.843 33.075,23.881 32.843,23.919C32.649,23.957 32.418,23.995 32.224,24.032C31.993,24.07 31.722,24.146 31.49,24.184C31.297,24.221 31.22,24.448 31.258,24.599C31.336,24.788 31.529,24.864 31.684,24.826C31.954,24.75 32.186,24.713 32.456,24.675C32.727,24.637 33.036,24.599 33.306,24.561C33.461,24.561 33.615,24.524 33.809,24.524C33.847,24.524 33.925,24.524 33.963,24.524C34.079,24.524 34.234,24.524 34.35,24.486C34.543,24.41 34.659,24.259 34.659,24.032C34.659,23.919 34.62,23.806 34.504,23.73C34.427,23.692 34.311,23.655 34.156,23.655C34.195,23.655 34.195,23.655 34.156,23.655Z" fill="#354A59"/>
<path d="M16.035,45.722C16.228,45.684 16.383,45.533 16.421,45.306C16.46,45.231 16.46,45.117 16.421,45.042C16.383,44.928 16.305,44.815 16.19,44.777C16.151,44.777 16.151,44.74 16.112,44.74C16.035,44.702 15.958,44.664 15.88,44.664C15.803,44.664 15.726,44.702 15.649,44.74C15.61,44.74 15.571,44.777 15.571,44.777C15.533,44.815 15.494,44.853 15.455,44.891C15.417,44.928 15.378,45.004 15.339,45.08C15.301,45.193 15.339,45.344 15.378,45.457C15.494,45.684 15.803,45.798 16.035,45.722Z" fill="#354A59"/>
<path d="M17.271,46.175C17.194,46.175 17.155,46.138 17.078,46.138C17.001,46.138 16.924,46.138 16.808,46.175C16.692,46.175 16.576,46.213 16.46,46.213C16.228,46.251 15.996,46.251 15.764,46.289C15.262,46.364 14.76,46.402 14.258,46.478C14.142,46.478 14.064,46.516 13.987,46.591C13.91,46.667 13.871,46.742 13.871,46.856C13.871,47.045 14.064,47.233 14.258,47.196C14.76,47.158 15.262,47.082 15.764,47.082C15.996,47.082 16.228,47.082 16.46,47.045C16.576,47.045 16.692,47.045 16.808,47.045C16.962,47.045 17.117,47.045 17.233,46.969C17.31,46.931 17.349,46.893 17.426,46.856C17.503,46.78 17.542,46.667 17.542,46.553C17.581,46.402 17.465,46.251 17.271,46.175Z" fill="#354A59"/>
<path d="M16.151,47.838C16.035,47.838 15.919,47.876 15.803,47.914C15.765,47.951 15.687,47.989 15.649,48.027C15.533,48.065 15.455,48.178 15.455,48.292C15.417,48.405 15.455,48.518 15.494,48.594C15.533,48.669 15.533,48.707 15.61,48.745C15.649,48.783 15.687,48.821 15.726,48.821C15.803,48.858 15.919,48.896 15.996,48.934C16.035,48.934 16.112,48.972 16.151,48.972C16.228,48.972 16.305,48.934 16.383,48.896C16.499,48.858 16.576,48.745 16.615,48.632C16.653,48.556 16.692,48.48 16.692,48.405C16.73,48.254 16.692,48.065 16.537,47.951C16.46,47.876 16.305,47.838 16.151,47.838Z" fill="#354A59"/>
<path d="M23.569,48.896C23.531,48.934 23.531,48.934 23.531,48.934C23.569,48.934 23.569,48.896 23.569,48.896Z" fill="#354A59"/>
<path d="M25.965,47.649C25.849,47.574 25.733,47.498 25.617,47.422C25.385,47.271 25.192,47.082 24.96,46.893C25.231,46.478 25.54,46.062 25.81,45.684C25.888,45.609 25.888,45.457 25.849,45.344C25.81,45.231 25.733,45.155 25.617,45.08C25.54,45.042 25.463,45.042 25.385,45.042C25.347,45.042 25.308,45.042 25.27,45.08C25.154,45.117 25.076,45.193 24.999,45.306C24.729,45.684 24.497,46.024 24.226,46.402C23.994,46.213 23.801,46.024 23.569,45.835C23.338,45.646 23.106,45.457 22.913,45.231C22.874,45.193 22.797,45.155 22.719,45.155C22.642,45.155 22.526,45.193 22.488,45.231C22.449,45.306 22.41,45.382 22.41,45.457C22.41,45.533 22.449,45.609 22.488,45.646C22.719,45.911 23.029,46.175 23.299,46.402C23.492,46.591 23.647,46.742 23.84,46.893C23.685,47.12 23.531,47.309 23.338,47.536C23.222,47.687 23.106,47.838 22.99,47.989C22.913,48.065 22.835,48.178 22.758,48.291C22.642,48.48 22.565,48.669 22.642,48.896C22.681,49.085 22.913,49.236 23.106,49.198C23.183,49.198 23.26,49.161 23.338,49.123C23.415,49.085 23.454,49.009 23.492,48.934C23.492,48.934 23.492,48.934 23.492,48.896C23.569,48.745 23.685,48.632 23.763,48.48C23.84,48.329 23.956,48.216 24.033,48.103C24.188,47.914 24.342,47.687 24.497,47.498C24.613,47.611 24.767,47.762 24.922,47.876C25.192,48.14 25.54,48.329 25.888,48.518C26.042,48.594 26.236,48.556 26.351,48.443C26.506,48.291 26.506,48.027 26.351,47.914C26.274,47.8 26.12,47.725 25.965,47.649Z" fill="#354A59"/>
</svg>
