<svg width="46" height="40" viewBox="0 0 46 40" fill="none" xmlns="http://www.w3.org/2000/svg" xmlns:xlink="http://www.w3.org/1999/xlink">
<path d="M27.645,0.704C27.192,0.253 26.578,0 25.937,0C25.297,0 24.683,0.253 24.23,0.704L7.323,17.524C6.883,17.977 6.64,18.584 6.645,19.214C6.651,19.844 6.905,20.447 7.353,20.892C7.801,21.338 8.406,21.59 9.04,21.596C9.673,21.601 10.283,21.359 10.738,20.921L11.446,20.217L11.446,36.043C11.446,36.68 11.701,37.291 12.153,37.742C12.606,38.192 13.221,38.445 13.861,38.445L18.692,38.445C19.332,38.445 19.947,38.192 20.399,37.742C20.852,37.291 18.065,39.083 18.065,38.445L33.183,38.445C33.183,37.808 33.529,28.581 33.982,28.13C34.434,27.68 22.882,28.834 23.522,28.834L28.353,28.834C28.993,28.834 29.607,29.087 30.06,29.538C30.513,29.988 30.768,30.6 30.768,31.237L30.768,36.043C30.768,36.68 31.022,37.291 31.475,37.742C31.928,38.192 32.542,38.445 33.183,38.445L38.013,38.445C38.654,38.445 39.268,38.192 39.721,37.742C40.174,37.291 40.429,36.68 40.429,36.043L40.429,20.217L41.136,20.921C41.592,21.359 42.202,21.601 42.835,21.596C43.468,21.59 44.074,21.338 44.522,20.892C44.97,20.447 45.224,19.844 45.229,19.214C45.235,18.584 44.991,17.977 44.551,17.524L27.645,0.704Z" fill="#FFA14B"/>
<path d="M4.502,15.005L19.507,0L34.512,15.005L4.502,15.005ZM4.502,15.005L4.502,36.44C4.502,37.009 4.728,37.554 5.13,37.956C5.532,38.358 6.077,38.584 6.646,38.584L13.076,38.584L4.502,38.584L4.502,15.005ZM34.512,15.005L34.512,36.44C34.512,37.009 34.286,37.554 33.884,37.956C33.482,38.358 32.937,38.584 32.368,38.584L25.938,38.584L34.512,38.584L34.512,15.005ZM13.076,38.584C13.645,38.584 14.19,38.358 14.592,37.956C14.994,37.554 15.22,37.009 15.22,36.44L15.22,27.866C15.22,27.298 15.446,26.752 15.848,26.35C16.25,25.948 16.795,25.723 17.363,25.723L21.65,25.723C22.219,25.723 22.764,25.948 23.166,26.35C23.568,26.752 23.794,27.298 23.794,27.866L23.794,36.44C23.794,37.009 24.02,37.554 24.422,37.956C24.824,38.358 25.369,38.584 25.938,38.584L13.076,38.584ZM25.938,38.584L13.076,38.584Z" fill="#FFA14B" stroke="#333333" stroke-width="2" stroke-miterlimit="3.999327" stroke-linecap="round" stroke-linejoin="round"/>
</svg>
