<svg width="56" height="48" viewBox="0 0 56 48" fill="none" xmlns="http://www.w3.org/2000/svg" xmlns:xlink="http://www.w3.org/1999/xlink">
<path d="M40.755,43.2C41.725,44.703 43.035,46.546 45.073,46.352C45.995,46.255 46.771,45.721 47.11,44.849C47.499,43.927 47.159,43.006 46.625,42.23C45.898,41.261 44.976,40.436 44.151,39.515C43.763,39.127 43.181,39.709 43.52,40.146C44.151,40.824 44.83,41.503 45.461,42.182C45.946,42.715 46.48,43.346 46.431,44.121C46.383,44.849 45.801,45.382 45.121,45.479C44.394,45.576 43.666,45.285 43.132,44.849C42.453,44.267 41.968,43.539 41.482,42.764C41.24,42.279 40.464,42.715 40.755,43.2Z" fill="#333333"/>
<path d="M43.52,41.552C43.811,42.036 44.102,42.521 44.442,43.006C44.539,43.2 44.83,43.297 45.024,43.152C45.218,43.006 45.315,42.764 45.17,42.57C44.879,42.085 44.588,41.6 44.248,41.115C44.151,40.921 43.86,40.824 43.666,40.97C43.52,41.115 43.423,41.358 43.52,41.552Z" fill="#333333"/>
<path d="M13.876,44.315C13.1,45.527 12.129,47.03 10.528,47.03C9.801,47.03 9.17,46.594 9.024,45.915C8.83,45.188 9.267,44.509 9.703,43.976C10.383,43.2 11.111,42.424 11.838,41.697C12.226,41.309 11.596,40.679 11.208,41.067C10.48,41.842 9.655,42.618 8.976,43.442C8.345,44.17 7.908,45.042 8.151,46.012C8.345,46.885 9.073,47.612 9.946,47.806C10.868,48 11.838,47.758 12.566,47.176C13.439,46.545 14.022,45.624 14.604,44.703C14.895,44.267 14.167,43.83 13.876,44.315Z" fill="#333333"/>
<path d="M11.11,42.715C10.819,43.2 10.528,43.685 10.189,44.17C10.092,44.364 10.14,44.655 10.334,44.752C10.528,44.849 10.819,44.8 10.916,44.606C11.208,44.121 11.499,43.636 11.838,43.152C11.935,42.958 11.887,42.667 11.693,42.57C11.499,42.424 11.256,42.521 11.11,42.715Z" fill="#333333"/>
<path d="M40.755,11.976C41.046,11.636 41.337,11.249 41.58,10.909C41.677,10.812 41.725,10.715 41.725,10.618C41.725,10.521 41.677,10.376 41.58,10.327C41.483,10.23 41.385,10.182 41.288,10.182C41.191,10.182 41.046,10.23 40.997,10.327C40.706,10.667 40.415,11.055 40.173,11.394C40.075,11.491 40.027,11.588 40.027,11.685C40.027,11.782 40.075,11.927 40.173,11.976C40.27,12.073 40.367,12.121 40.464,12.121C40.561,12.073 40.706,12.024 40.755,11.976Z" fill="#333333"/>
<path d="M43.52,14.788C43.52,14.788 43.52,14.836 43.472,14.885C43.52,14.739 43.617,14.642 43.666,14.545C43.666,14.594 43.617,14.594 43.617,14.642C43.714,14.545 43.811,14.448 43.908,14.351C43.86,14.351 43.86,14.4 43.811,14.4C43.908,14.303 44.054,14.255 44.199,14.158C44.151,14.158 44.151,14.206 44.102,14.206C44.248,14.158 44.394,14.109 44.539,14.109C44.491,14.109 44.442,14.109 44.442,14.109L44.491,14.109C44.588,14.109 44.685,14.061 44.782,13.964C44.879,13.867 44.927,13.77 44.927,13.673C44.927,13.576 44.879,13.43 44.782,13.382C44.685,13.333 44.588,13.236 44.491,13.236C44.102,13.285 43.763,13.382 43.472,13.624C43.326,13.721 43.181,13.867 43.084,14.012C42.938,14.206 42.841,14.351 42.744,14.594C42.695,14.691 42.744,14.836 42.792,14.933C42.841,15.03 42.938,15.127 43.035,15.127C43.132,15.176 43.278,15.127 43.375,15.079C43.423,14.982 43.472,14.885 43.52,14.788Z" fill="#333333"/>
<path d="M45.558,13.77C44.394,12.364 43.084,11.055 41.677,9.842C41.094,9.406 40.561,8.97 39.93,8.582C39.396,8.242 38.863,7.855 38.426,7.37C37.456,6.303 37.795,4.703 38.523,3.539C39.299,2.279 40.658,1.455 42.065,1.067C44.782,0.339 47.838,1.309 49.973,3.055C52.544,5.139 53.66,8.485 53.078,11.733C52.933,12.606 52.69,13.527 52.253,14.303C51.817,15.079 51.137,15.758 50.361,16.194C49.391,16.776 48.518,16.679 47.693,15.952C46.771,15.37 46.189,14.545 45.558,13.77C45.218,13.333 44.588,13.964 44.927,14.4C46.043,15.758 47.402,17.842 49.439,17.503C50.313,17.358 51.089,16.776 51.768,16.194C52.399,15.612 52.884,14.885 53.224,14.109C54.631,10.715 54.146,6.545 51.72,3.733C49.682,1.358 46.431,-0.145 43.278,0.049C40.173,0.291 36.631,2.667 36.922,6.109C37.067,7.855 38.668,8.776 39.93,9.649C41.822,10.909 43.472,12.606 44.927,14.4C45.267,14.788 45.898,14.206 45.558,13.77Z" fill="#333333"/>
<path d="M50.798,6.449C52.156,8.533 52.205,11.297 50.846,13.43C50.555,13.915 51.283,14.352 51.574,13.867C53.078,11.539 53.078,8.339 51.526,6.061C51.235,5.527 50.458,5.964 50.798,6.449Z" fill="#333333"/>
<path d="M49.876,15.418C50.119,15.176 50.41,14.982 50.652,14.739C50.749,14.691 50.798,14.546 50.798,14.449C50.798,14.352 50.749,14.206 50.652,14.158C50.555,14.061 50.458,14.012 50.361,14.012C50.313,14.012 50.264,14.012 50.264,14.012C50.167,14.012 50.119,14.061 50.07,14.109C49.828,14.352 49.536,14.546 49.294,14.788C49.197,14.836 49.148,14.982 49.148,15.079C49.148,15.176 49.197,15.321 49.294,15.37C49.391,15.467 49.488,15.515 49.585,15.515C49.633,15.515 49.682,15.515 49.682,15.515C49.731,15.467 49.828,15.467 49.876,15.418Z" fill="#333333"/>
<path d="M50.022,2.521C50.119,2.327 50.167,2.279 50.313,2.133C50.313,2.133 50.41,2.036 50.361,2.085C50.41,2.036 50.458,2.036 50.458,1.988C50.507,1.988 50.555,1.939 50.555,1.939C50.555,1.939 50.604,1.939 50.604,1.891C50.652,1.842 50.555,1.891 50.604,1.891C50.701,1.842 50.749,1.842 50.846,1.794L50.895,1.794C50.943,1.794 50.992,1.794 51.041,1.794C51.089,1.794 51.138,1.794 51.186,1.794L51.235,1.794C51.332,1.794 51.429,1.842 51.477,1.842C51.477,1.842 51.574,1.891 51.526,1.842C51.574,1.842 51.623,1.891 51.623,1.891C51.671,1.891 51.671,1.939 51.72,1.939C51.72,1.939 51.768,1.939 51.768,1.988L51.817,2.036C51.817,2.036 51.865,2.085 51.914,2.085C51.962,2.133 51.962,2.133 52.011,2.182C52.011,2.182 52.059,2.279 52.059,2.23C52.108,2.279 52.108,2.327 52.156,2.327L52.205,2.424C52.205,2.376 52.205,2.473 52.253,2.521C52.253,2.57 52.253,2.618 52.302,2.618L52.302,2.667C52.302,2.618 52.302,2.618 52.302,2.667C52.302,2.764 52.302,2.812 52.302,2.909L52.302,2.958C52.302,3.006 52.302,3.055 52.253,3.103L52.253,3.152C52.253,3.152 52.205,3.249 52.253,3.2C52.253,3.2 52.253,3.249 52.205,3.249C52.205,3.297 52.156,3.346 52.156,3.346C52.156,3.346 52.156,3.394 52.108,3.394C52.059,3.442 52.059,3.491 52.011,3.491L51.962,3.539C52.011,3.491 51.914,3.588 51.962,3.539C51.914,3.539 51.865,3.588 51.865,3.588C51.865,3.588 51.817,3.588 51.817,3.636C51.914,3.588 51.768,3.685 51.817,3.636C51.574,3.733 51.429,3.927 51.526,4.17C51.574,4.364 51.817,4.558 52.059,4.461C52.981,4.121 53.515,3.055 53.127,2.133C52.739,1.164 51.623,0.679 50.652,0.921C50.07,1.067 49.585,1.455 49.294,1.988C49.197,2.182 49.245,2.473 49.439,2.57C49.634,2.812 49.925,2.764 50.022,2.521Z" fill="#333333"/>
<path d="M50.846,2.715C50.992,2.715 51.137,2.715 51.283,2.715C51.332,2.715 51.38,2.715 51.429,2.667C51.477,2.667 51.526,2.618 51.574,2.57C51.623,2.521 51.623,2.473 51.671,2.424C51.72,2.376 51.72,2.327 51.72,2.279C51.72,2.23 51.72,2.182 51.72,2.182C51.72,2.085 51.671,2.036 51.623,1.988C51.526,1.891 51.429,1.843 51.332,1.843C51.186,1.843 51.04,1.843 50.895,1.843C50.846,1.843 50.798,1.843 50.749,1.891C50.701,1.891 50.652,1.939 50.604,1.988C50.555,2.036 50.555,2.085 50.507,2.133C50.458,2.182 50.458,2.23 50.458,2.279C50.458,2.327 50.458,2.376 50.458,2.376C50.458,2.473 50.507,2.521 50.555,2.57C50.604,2.667 50.701,2.715 50.846,2.715Z" fill="#333333"/>
<path d="M13.779,12.315C13.488,11.976 13.197,11.588 12.954,11.249C12.906,11.152 12.76,11.152 12.663,11.152C12.566,11.152 12.421,11.2 12.372,11.297C12.275,11.394 12.226,11.491 12.226,11.588C12.226,11.636 12.226,11.685 12.226,11.685C12.226,11.782 12.275,11.83 12.323,11.879C12.615,12.218 12.906,12.606 13.148,12.946C13.197,13.043 13.342,13.091 13.439,13.091C13.536,13.091 13.682,13.043 13.73,12.946C13.828,12.849 13.876,12.752 13.876,12.655C13.876,12.606 13.876,12.558 13.876,12.558C13.876,12.461 13.828,12.364 13.779,12.315Z" fill="#333333"/>
<path d="M11.256,15.515C11.159,15.321 11.062,15.127 10.916,14.933C10.819,14.788 10.674,14.691 10.528,14.546C10.237,14.303 9.849,14.206 9.509,14.158C9.412,14.158 9.267,14.206 9.218,14.303C9.121,14.4 9.073,14.497 9.073,14.594C9.073,14.691 9.121,14.837 9.218,14.885C9.315,14.982 9.412,14.982 9.509,15.03L9.558,15.03C9.509,15.03 9.461,15.03 9.461,15.03C9.606,15.03 9.752,15.079 9.898,15.127C9.849,15.127 9.849,15.079 9.801,15.079C9.946,15.127 10.043,15.224 10.189,15.321C10.14,15.321 10.14,15.273 10.092,15.273C10.189,15.37 10.286,15.467 10.383,15.564C10.383,15.515 10.334,15.515 10.334,15.467C10.431,15.564 10.48,15.709 10.528,15.806C10.528,15.758 10.48,15.758 10.48,15.709C10.528,15.806 10.577,15.903 10.674,15.952C10.771,16 10.916,16.049 11.013,16C11.11,15.952 11.208,15.903 11.256,15.806C11.256,15.758 11.305,15.612 11.256,15.515Z" fill="#333333"/>
<path d="M9.024,15.37C10.383,13.77 11.887,12.218 13.585,10.958C14.701,10.133 16.156,9.503 16.787,8.194C17.515,6.739 16.884,4.897 15.962,3.685C14.992,2.424 13.536,1.552 11.935,1.212C8.782,0.485 5.434,1.697 3.105,3.782C0.34,6.303 -0.582,10.182 0.34,13.721C0.825,15.661 1.941,17.455 3.881,18.23C6.162,19.2 7.763,16.921 9.024,15.37C9.364,14.933 8.782,14.352 8.393,14.739C7.472,15.903 6.065,18.133 4.318,17.503C2.717,16.97 1.698,15.418 1.261,13.867C0.34,10.715 0.97,7.176 3.299,4.8C5.24,2.812 8.151,1.6 10.916,1.891C12.372,2.036 13.73,2.667 14.749,3.685C15.671,4.606 16.544,6.303 16.011,7.661C15.477,8.97 13.876,9.6 12.857,10.424C11.208,11.685 9.703,13.188 8.393,14.788C8.054,15.176 8.685,15.806 9.024,15.37Z" fill="#333333"/>
<path d="M2.426,6.982C0.873,9.309 0.873,12.461 2.377,14.788C2.668,15.273 3.445,14.836 3.105,14.352C1.747,12.267 1.795,9.455 3.154,7.37C3.493,6.933 2.765,6.497 2.426,6.982Z" fill="#333333"/>
<path d="M4.706,15.758C4.463,15.515 4.172,15.321 3.93,15.079C3.833,14.982 3.736,14.933 3.639,14.933C3.542,14.933 3.396,14.982 3.348,15.079C3.251,15.176 3.202,15.273 3.202,15.37C3.202,15.467 3.251,15.612 3.348,15.661C3.59,15.903 3.881,16.097 4.124,16.339C4.172,16.436 4.269,16.485 4.415,16.485C4.512,16.485 4.658,16.436 4.706,16.339C4.803,16.242 4.852,16.145 4.852,16.049C4.803,15.952 4.803,15.855 4.706,15.758Z" fill="#333333"/>
<path d="M4.706,3.103C4.221,2.182 3.057,1.746 2.086,2.085C1.601,2.279 1.213,2.57 0.97,3.006C0.728,3.443 0.728,3.976 0.873,4.412C1.067,4.946 1.455,5.382 1.989,5.527C2.232,5.624 2.474,5.43 2.523,5.236C2.571,5.043 2.426,4.8 2.183,4.752C2.086,4.703 2.232,4.752 2.135,4.752C2.086,4.752 2.086,4.703 2.038,4.703C2.038,4.703 1.941,4.655 1.989,4.703C1.989,4.606 1.941,4.558 1.892,4.558C1.892,4.509 1.844,4.509 1.844,4.461C1.892,4.509 1.844,4.461 1.844,4.412C1.844,4.364 1.795,4.364 1.795,4.315C1.795,4.315 1.795,4.267 1.747,4.267C1.747,4.267 1.698,4.17 1.747,4.218C1.747,4.267 1.747,4.17 1.747,4.121C1.747,4.073 1.747,4.024 1.698,4.024L1.698,3.927C1.698,3.879 1.698,3.879 1.698,3.83C1.698,3.782 1.698,3.733 1.698,3.685L1.698,3.636C1.698,3.539 1.747,3.491 1.747,3.394C1.698,3.443 1.747,3.346 1.795,3.346C1.795,3.297 1.844,3.297 1.844,3.249C1.892,3.2 1.844,3.249 1.892,3.2C1.844,3.249 1.892,3.2 1.941,3.152C1.941,3.152 1.989,3.103 2.038,3.055C1.989,3.103 2.086,3.055 2.086,3.006C2.135,3.006 2.232,2.958 2.329,2.909L2.377,2.909C2.426,2.861 2.426,2.861 2.474,2.861C2.523,2.861 2.571,2.861 2.62,2.812L2.668,2.812C2.765,2.812 2.862,2.812 2.96,2.812L3.008,2.812C3.057,2.812 3.105,2.812 3.154,2.861C3.493,2.958 3.784,3.2 3.978,3.539C4.075,3.733 4.367,3.782 4.561,3.685C4.755,3.539 4.803,3.297 4.706,3.103Z" fill="#333333"/>
<path d="M3.154,2.861C3.008,2.861 2.862,2.861 2.717,2.861C2.668,2.861 2.62,2.861 2.571,2.909C2.523,2.909 2.474,2.958 2.426,3.006C2.377,3.006 2.329,3.055 2.329,3.103C2.28,3.152 2.28,3.249 2.28,3.297C2.28,3.346 2.28,3.394 2.28,3.394C2.28,3.491 2.329,3.54 2.377,3.588C2.474,3.685 2.571,3.733 2.668,3.733C2.814,3.733 2.96,3.733 3.105,3.733C3.154,3.733 3.202,3.733 3.251,3.685C3.299,3.685 3.348,3.636 3.396,3.588C3.445,3.54 3.445,3.491 3.493,3.443C3.542,3.394 3.59,3.346 3.59,3.297C3.59,3.249 3.59,3.2 3.59,3.2C3.59,3.103 3.542,3.055 3.493,3.006C3.348,2.909 3.251,2.861 3.154,2.861Z" fill="#333333"/>
<path d="M27.073,28.8C26.393,28.8 25.811,28.218 25.811,27.539C25.811,26.861 26.393,26.279 27.073,26.279C27.752,26.279 28.334,26.861 28.334,27.539C28.334,28.218 27.752,28.8 27.073,28.8ZM27.073,26.861C26.685,26.861 26.393,27.152 26.393,27.539C26.393,27.927 26.685,28.218 27.073,28.218C27.461,28.218 27.752,27.927 27.752,27.539C27.752,27.152 27.461,26.861 27.073,26.861Z" fill="#333333"/>
<path d="M25.52,26.376C28.14,28.994 30.809,31.661 33.428,34.279C33.817,34.667 34.447,34.085 34.059,33.649C31.391,31.03 28.771,28.412 26.102,25.746C25.714,25.358 25.083,25.988 25.52,26.376Z" fill="#333333"/>
<path d="M35.272,35.394L31.197,34.182L33.962,31.515L35.272,35.394ZM32.313,33.891L34.399,34.521L33.72,32.534L32.313,33.891Z" fill="#333333"/>
<path d="M26.636,18.667C26.636,21.77 26.636,24.873 26.636,27.927C26.636,28.461 27.509,28.461 27.509,27.927C27.509,24.824 27.509,21.721 27.509,18.667C27.509,18.134 26.636,18.134 26.636,18.667Z" fill="#333333"/>
<path d="M28.625,19.733L25.326,19.636L26.976,16.388L28.625,19.733ZM26.248,19.103L27.703,19.152L26.976,17.697L26.248,19.103Z" fill="#333333"/>
<path d="M47.838,24.679C46.577,16.485 39.93,9.067 31.779,7.37C27.606,6.497 22.997,6.691 19.067,8.339C15.089,10.036 11.887,13.527 9.849,17.212C6.259,23.758 6.065,32.291 9.606,38.885C11.45,42.376 14.41,44.994 18.097,46.449C22.512,48.194 27.752,48.339 32.361,47.321C34.69,46.836 36.922,45.964 38.911,44.703C40.852,43.491 42.55,41.842 43.908,40C46.528,36.461 47.984,32.097 48.032,27.685C48.081,26.764 47.984,25.745 47.838,24.679C47.741,24.145 46.916,24.388 47.013,24.921C48.275,33.552 43.375,42.715 35.03,45.77C30.76,47.321 25.811,47.564 21.396,46.594C17.466,45.77 13.876,43.733 11.547,40.436C7.52,34.764 6.889,26.764 9.364,20.364C10.868,16.436 13.585,12.897 17.03,10.521C20.474,8.194 24.744,7.564 28.819,7.855C32.749,8.145 36.485,9.6 39.542,12.121C42.55,14.594 44.879,17.891 46.189,21.576C46.577,22.691 46.868,23.806 47.013,24.97C47.11,25.455 47.935,25.212 47.838,24.679Z" fill="#333333"/>
<path d="M33.962,43.443C31.876,44.218 29.741,44.606 27.509,44.655C25.472,44.703 23.434,44.509 21.445,43.976C17.563,42.958 14.604,40.243 12.566,36.849C10.48,33.358 9.558,29.285 9.995,25.212C10.383,21.576 11.838,18.036 14.361,15.37C18.582,11.006 25.229,9.309 31.1,10.521C38.086,11.976 43.569,17.842 44.782,24.824C46.092,31.855 42.404,38.788 36.34,42.279C35.563,42.715 34.787,43.103 33.962,43.443C33.429,43.636 33.671,44.461 34.205,44.267C40.997,41.6 45.995,35.006 45.946,27.588C45.946,20.024 40.755,12.8 33.623,10.327C27.558,8.242 20.426,9.358 15.38,13.333C9.121,18.327 7.52,27.636 10.577,34.812C12.129,38.4 14.701,41.794 18.194,43.636C20.086,44.655 22.221,45.139 24.356,45.333C26.491,45.576 28.722,45.576 30.809,45.188C31.973,44.994 33.089,44.655 34.205,44.267C34.739,44.073 34.496,43.2 33.962,43.443Z" fill="#333333"/>
<path d="M26.199,10.036C26.199,10.473 26.199,10.909 26.199,11.297C26.491,11.297 26.782,11.297 27.073,11.297C27.073,11.006 27.073,10.667 27.073,10.376C26.782,10.376 26.491,10.376 26.199,10.376C26.199,10.715 26.199,11.055 26.199,11.394C26.199,11.636 26.394,11.83 26.636,11.83C26.879,11.83 27.073,11.636 27.073,11.394C27.073,11.006 27.073,10.667 27.073,10.279C26.782,10.279 26.491,10.279 26.199,10.279C26.199,10.667 26.199,11.006 26.199,11.394C26.199,11.636 26.394,11.83 26.636,11.83C26.879,11.83 27.073,11.636 27.073,11.394C27.073,11.103 27.073,10.812 27.073,10.521C27.073,10.279 26.879,10.085 26.636,10.085C26.394,10.085 26.199,10.279 26.199,10.521C26.199,11.103 26.199,11.685 26.199,12.267C26.491,12.267 26.782,12.267 27.073,12.267C27.073,11.879 27.073,11.491 27.073,11.103C27.073,10.861 26.879,10.667 26.636,10.667C26.394,10.667 26.199,10.861 26.199,11.103C26.199,11.491 26.199,11.879 26.199,12.267C26.199,12.509 26.394,12.703 26.636,12.703C26.879,12.703 27.073,12.509 27.073,12.267C27.073,11.685 27.073,11.103 27.073,10.521C26.782,10.521 26.491,10.521 26.199,10.521C26.199,10.812 26.199,11.103 26.199,11.394C26.491,11.394 26.782,11.394 27.073,11.394C27.073,11.006 27.073,10.667 27.073,10.279C27.073,10.036 26.879,9.842 26.636,9.842C26.394,9.842 26.199,10.036 26.199,10.279C26.199,10.667 26.199,11.006 26.199,11.394C26.491,11.394 26.782,11.394 27.073,11.394C27.073,11.055 27.073,10.715 27.073,10.376C27.073,10.133 26.879,9.939 26.636,9.939C26.394,9.939 26.199,10.133 26.199,10.376C26.199,10.667 26.199,11.006 26.199,11.297C26.199,11.539 26.394,11.733 26.636,11.733C26.879,11.733 27.073,11.539 27.073,11.297C27.073,10.861 27.073,10.424 27.073,10.036C27.073,9.794 26.879,9.6 26.636,9.6C26.394,9.6 26.199,9.794 26.199,10.036Z" fill="#333333"/>
<path d="M26.199,42.085C26.199,43.054 26.199,43.976 26.199,44.945C26.491,44.945 26.782,44.945 27.073,44.945C27.073,44.654 27.073,44.315 27.073,44.024C26.782,44.024 26.491,44.024 26.199,44.024C26.199,44.364 26.199,44.703 26.199,45.042C26.199,45.285 26.394,45.479 26.636,45.479C26.879,45.479 27.073,45.285 27.073,45.042C27.073,44.654 27.073,44.315 27.073,43.927C26.782,43.927 26.491,43.927 26.199,43.927C26.199,44.315 26.199,44.654 26.199,45.042C26.199,45.285 26.394,45.479 26.636,45.479C26.879,45.479 27.073,45.285 27.073,45.042C27.073,44.751 27.073,44.461 27.073,44.17C27.073,43.927 26.879,43.733 26.636,43.733C26.394,43.733 26.199,43.927 26.199,44.17C26.199,44.461 26.199,44.8 26.199,45.091C26.491,45.091 26.782,45.091 27.073,45.091C27.073,44.994 27.073,44.848 27.073,44.751C27.073,44.509 26.879,44.315 26.636,44.315C26.394,44.315 26.199,44.509 26.199,44.751C26.199,44.848 26.199,44.994 26.199,45.091C26.199,45.333 26.394,45.527 26.636,45.527C26.879,45.527 27.073,45.333 27.073,45.091C27.073,44.8 27.073,44.461 27.073,44.17C26.782,44.17 26.491,44.17 26.199,44.17C26.199,44.461 26.199,44.751 26.199,45.042C26.491,45.042 26.782,45.042 27.073,45.042C27.073,44.654 27.073,44.315 27.073,43.927C27.073,43.685 26.879,43.491 26.636,43.491C26.394,43.491 26.199,43.685 26.199,43.927C26.199,44.315 26.199,44.654 26.199,45.042C26.491,45.042 26.782,45.042 27.073,45.042C27.073,44.703 27.073,44.364 27.073,44.024C27.073,43.782 26.879,43.588 26.636,43.588C26.394,43.588 26.199,43.782 26.199,44.024C26.199,44.315 26.199,44.654 26.199,44.945C26.199,45.188 26.394,45.382 26.636,45.382C26.879,45.382 27.073,45.188 27.073,44.945C27.073,43.976 27.073,43.054 27.073,42.085C27.073,41.842 26.879,41.648 26.636,41.648C26.394,41.648 26.199,41.842 26.199,42.085Z" fill="#333333"/>
<path d="M9.558,27.976C9.8,27.976 10.092,27.976 10.334,27.976C10.334,27.685 10.334,27.394 10.334,27.103C10.043,27.103 9.703,27.103 9.412,27.103C9.412,27.394 9.412,27.685 9.412,27.976C9.752,27.976 10.092,27.976 10.431,27.976C10.965,27.976 10.965,27.103 10.431,27.103C10.189,27.103 9.995,27.103 9.752,27.103C9.752,27.394 9.752,27.685 9.752,27.976C9.995,27.976 10.189,27.976 10.431,27.976C10.965,27.976 10.965,27.103 10.431,27.103C10.14,27.103 9.849,27.103 9.558,27.103C9.024,27.103 9.024,27.976 9.558,27.976C10.577,27.976 11.596,27.976 12.615,27.976C12.615,27.685 12.615,27.394 12.615,27.103C11.79,27.103 10.965,27.103 10.14,27.103C9.606,27.103 9.606,27.976 10.14,27.976C10.965,27.976 11.79,27.976 12.615,27.976C13.148,27.976 13.148,27.103 12.615,27.103C11.596,27.103 10.577,27.103 9.558,27.103C9.558,27.394 9.558,27.685 9.558,27.976C9.849,27.976 10.14,27.976 10.431,27.976C10.431,27.685 10.431,27.394 10.431,27.103C10.189,27.103 9.995,27.103 9.752,27.103C9.218,27.103 9.218,27.976 9.752,27.976C9.995,27.976 10.189,27.976 10.431,27.976C10.431,27.685 10.431,27.394 10.431,27.103C10.092,27.103 9.752,27.103 9.412,27.103C8.879,27.103 8.879,27.976 9.412,27.976C9.703,27.976 10.043,27.976 10.334,27.976C10.868,27.976 10.868,27.103 10.334,27.103C10.092,27.103 9.8,27.103 9.558,27.103C9.024,27.103 9.024,27.976 9.558,27.976Z" fill="#333333"/>
<path d="M42.744,27.976C43.181,27.976 43.617,27.976 44.005,27.976C44.005,27.685 44.005,27.394 44.005,27.103C43.714,27.103 43.375,27.103 43.084,27.103C43.084,27.394 43.084,27.685 43.084,27.976C43.423,27.976 43.763,27.976 44.102,27.976C44.345,27.976 44.539,27.782 44.539,27.539C44.539,27.297 44.345,27.103 44.102,27.103C43.714,27.103 43.375,27.103 42.986,27.103C42.986,27.394 42.986,27.685 42.986,27.976C43.375,27.976 43.714,27.976 44.102,27.976C44.345,27.976 44.539,27.782 44.539,27.539C44.539,27.297 44.345,27.103 44.102,27.103C43.811,27.103 43.52,27.103 43.229,27.103C42.986,27.103 42.792,27.297 42.792,27.539C42.792,27.782 42.986,27.976 43.229,27.976C43.957,27.976 44.685,27.976 45.412,27.976C45.412,27.685 45.412,27.394 45.412,27.103C44.879,27.103 44.345,27.103 43.763,27.103C43.52,27.103 43.326,27.297 43.326,27.539C43.326,27.782 43.52,27.976 43.763,27.976C44.296,27.976 44.83,27.976 45.412,27.976C45.655,27.976 45.849,27.782 45.849,27.539C45.849,27.297 45.655,27.103 45.412,27.103C44.685,27.103 43.957,27.103 43.229,27.103C43.229,27.394 43.229,27.685 43.229,27.976C43.52,27.976 43.811,27.976 44.102,27.976C44.102,27.685 44.102,27.394 44.102,27.103C43.714,27.103 43.375,27.103 42.986,27.103C42.744,27.103 42.55,27.297 42.55,27.539C42.55,27.782 42.744,27.976 42.986,27.976C43.375,27.976 43.714,27.976 44.102,27.976C44.102,27.685 44.102,27.394 44.102,27.103C43.763,27.103 43.423,27.103 43.084,27.103C42.841,27.103 42.647,27.297 42.647,27.539C42.647,27.782 42.841,27.976 43.084,27.976C43.375,27.976 43.714,27.976 44.005,27.976C44.248,27.976 44.442,27.782 44.442,27.539C44.442,27.297 44.248,27.103 44.005,27.103C43.569,27.103 43.132,27.103 42.744,27.103C42.501,27.103 42.307,27.297 42.307,27.539C42.307,27.782 42.501,27.976 42.744,27.976Z" fill="#333333"/>
<path d="M33.283,13.673C35.321,14.4 37.067,15.709 38.377,17.358C38.523,17.552 38.814,17.503 39.008,17.358C39.202,17.164 39.154,16.921 39.008,16.727C37.601,14.933 35.66,13.576 33.526,12.8C32.992,12.655 32.749,13.479 33.283,13.673Z" fill="#333333"/>
<path d="M39.396,18.861C39.687,19.297 39.978,19.733 40.221,20.17C40.318,20.364 40.609,20.461 40.803,20.315C40.997,20.17 41.094,19.927 40.949,19.733C40.658,19.297 40.367,18.861 40.124,18.424C40.027,18.23 39.736,18.133 39.542,18.279C39.348,18.376 39.251,18.667 39.396,18.861Z" fill="#333333"/>
</svg>
