<svg width="32" height="34" viewBox="0 0 32 34" fill="none" xmlns="http://www.w3.org/2000/svg" xmlns:xlink="http://www.w3.org/1999/xlink">
<path d="M16,0.154C3.853,0.154 0.202,16.151 0.169,16.313L0,17.077L0.167,17.841C0.202,18.003 3.853,34 16,34C28.147,34 31.798,18.003 31.831,17.841L32,17.077L31.833,16.313C31.798,16.151 28.147,0.154 16,0.154ZM16,26.747C12.489,26.747 9.634,22.41 9.634,17.077C9.634,11.744 12.489,7.407 16,7.407C19.511,7.407 22.366,11.744 22.366,17.077C22.366,22.41 19.511,26.747 16,26.747Z" fill="#99A6C0" fill-opacity="0.6"/>
<path d="M16,13.692C14.916,13.692 14,15.243 14,17.077C14,18.911 14.916,20.462 16,20.462C17.084,20.462 18,18.911 18,17.077C18,15.243 17.084,13.692 16,13.692Z" fill="#99A6C0" fill-opacity="0.6"/>
</svg>
