<svg width="78" height="100" viewBox="0 0 78 100" fill="none" xmlns="http://www.w3.org/2000/svg" xmlns:xlink="http://www.w3.org/1999/xlink">
<path d="M55.511,0.858L40.898,2.811L24.861,4.955L10.248,6.908C10.248,6.908 -0.759,7.099 0.664,18.009L2.657,32.92L8.35,75.989L10.343,90.9C11.766,101.81 22.489,99.095 22.489,99.095L37.102,97.142L53.139,94.998L67.752,93.044C67.752,93.044 78.759,92.854 77.336,81.944L75.343,67.032L69.65,23.964L67.609,9.052C66.186,-1.858 55.511,0.858 55.511,0.858Z" fill="#77CFE0"/>
<path d="M19.69,100C16.464,100 10.818,98.857 9.821,90.996L0.142,18.104C-0.285,14.721 0.332,12.006 2.088,9.957C5.077,6.479 10.058,6.384 10.248,6.384L55.416,0.334C55.416,0.334 56.602,0.048 58.31,0.048C61.537,0.048 67.135,1.191 68.179,9.052L77.858,81.944C78.285,85.326 77.668,88.042 75.912,90.09C72.923,93.568 67.942,93.664 67.752,93.664L22.584,99.714C22.584,99.714 21.398,100 19.69,100ZM58.31,1.143C56.792,1.143 55.653,1.429 55.653,1.429L10.343,7.48C10.248,7.48 5.551,7.623 2.942,10.672C1.423,12.482 0.854,14.912 1.281,17.913L10.912,90.9C11.766,97.523 16.179,98.904 19.69,98.904C21.208,98.904 22.347,98.618 22.347,98.618L67.61,92.568C67.704,92.568 72.402,92.425 75.011,89.376C76.529,87.613 77.099,85.183 76.719,82.134L67.088,9.147C66.186,2.525 61.821,1.143 58.31,1.143Z" fill="#5E2C00"/>
<g opacity="0.6">
<path d="M54.088,4.526L40.708,6.336L26,8.29L12.62,10.1C12.62,10.1 2.515,10.291 3.843,20.295L5.646,34.016L10.912,73.559L12.715,87.28C14.044,97.284 23.865,94.807 23.865,94.807L37.245,92.997L51.953,91.043L65.332,89.233C65.332,89.233 75.438,89.042 74.11,79.038L72.307,65.317L67.04,25.774L65.237,12.053C63.909,2.001 54.088,4.526 54.088,4.526Z" fill="#FFFDE6"/>
</g>
<path d="M64.196,22.915L8.159,22.915L8.159,34.539L64.196,34.539L64.196,22.915Z" transform="rotate(-15.245 36.178 28.727)" fill="#467F8A"/>
<path d="M9.157,38.78C8.872,38.78 8.635,38.59 8.588,38.304L7.069,26.775C7.069,26.632 7.069,26.489 7.164,26.346C7.259,26.251 7.401,26.155 7.544,26.108L63.102,18.676C63.387,18.628 63.719,18.866 63.719,19.152L65.237,30.681C65.237,30.824 65.237,30.967 65.142,31.11C65.048,31.205 64.905,31.301 64.763,31.348L9.252,38.733C9.204,38.78 9.204,38.78 9.157,38.78ZM8.255,27.156L9.631,37.542L64.051,30.253L62.675,19.867L8.255,27.156Z" fill="#5E2C00"/>
<path d="M61.919,24.203L10.342,24.203L10.342,32.778L61.919,32.778L61.919,24.203Z" transform="rotate(-15.245 36.13 28.49)" fill="#ADAAA8"/>
<path d="M41.418,8.525L36.246,8.525L36.246,18.052L41.418,18.052L41.418,8.525Z" transform="rotate(-15.245 38.832 13.288)" fill="#817C70"/>
<path d="M36.865,18.914C36.58,18.914 36.343,18.723 36.296,18.437L35.062,8.957C35.015,8.623 35.252,8.337 35.536,8.337L40.661,7.67C40.945,7.623 41.23,7.861 41.277,8.147L42.558,17.627C42.558,17.77 42.558,17.913 42.464,18.056C42.369,18.152 42.226,18.247 42.084,18.294L36.96,18.961C36.912,18.914 36.912,18.914 36.865,18.914ZM36.248,9.385L37.339,17.723L41.325,17.199L40.234,8.861L36.248,9.385Z" fill="#5E2C00"/>
<path d="M36.249,9.1L33.07,9.1L33.07,18.628L36.249,18.628L36.249,9.1Z" transform="rotate(-15.245 34.66 13.864)" fill="#817C70"/>
<path d="M33.734,19.343C33.449,19.343 33.212,19.152 33.164,18.866L31.931,9.385C31.931,9.243 31.931,9.1 32.026,8.957C32.12,8.861 32.263,8.766 32.405,8.718L35.584,8.29C35.916,8.242 36.201,8.48 36.201,8.766L37.434,18.247C37.434,18.39 37.434,18.533 37.339,18.676C37.245,18.771 37.102,18.866 36.96,18.914L33.781,19.343L33.734,19.343ZM33.117,9.814L34.208,18.152L36.248,17.866L35.157,9.528L33.117,9.814Z" fill="#5E2C00"/>
<path d="M47.298,7.77L41.319,7.77L41.319,17.298L47.298,17.298L47.298,7.77Z" transform="rotate(-15.245 44.309 12.534)" fill="#817C70"/>
<path d="M41.989,18.247C41.847,18.247 41.752,18.199 41.657,18.152C41.515,18.056 41.467,17.913 41.42,17.77L40.186,8.29C40.139,7.956 40.376,7.67 40.661,7.67L46.591,6.86C46.734,6.86 46.876,6.86 47.018,6.956C47.161,7.051 47.208,7.194 47.255,7.337L48.489,16.818C48.536,17.103 48.299,17.437 48.015,17.437L42.084,18.247C42.036,18.247 42.036,18.247 41.989,18.247ZM41.372,8.718L42.463,17.056L47.303,16.389L46.212,8.051L41.372,8.718Z" fill="#5E2C00"/>
<path d="M61.396,5.72L58.217,5.72L58.217,15.247L61.396,15.247L61.396,5.72Z" transform="rotate(-15.22 59.807 10.484)" fill="#817C70"/>
<path d="M58.88,16.008C58.595,16.008 58.358,15.817 58.31,15.531L57.077,6.051C57.077,5.908 57.077,5.765 57.172,5.622C57.266,5.526 57.409,5.431 57.551,5.384L60.73,4.955C61.062,4.907 61.347,5.145 61.347,5.431L62.58,14.912C62.58,15.055 62.58,15.198 62.485,15.341C62.391,15.436 62.248,15.531 62.106,15.579L58.927,16.008L58.88,16.008ZM58.263,6.432L59.354,14.769L61.394,14.483L60.303,6.193L58.263,6.432Z" fill="#5E2C00"/>
<path d="M53.184,7.003L47.3,7.003L47.3,16.531L53.184,16.531L53.184,7.003Z" transform="rotate(-15.245 50.242 11.767)" fill="#817C70"/>
<path d="M47.92,17.437C47.635,17.437 47.398,17.246 47.35,16.96L46.117,7.48C46.117,7.337 46.117,7.194 46.212,7.051C46.307,6.956 46.449,6.86 46.591,6.813L52.427,6.051C52.759,6.003 53.044,6.241 53.044,6.527L54.277,16.008C54.277,16.151 54.277,16.294 54.183,16.436C54.088,16.532 53.945,16.627 53.803,16.675L47.967,17.437C47.967,17.437 47.967,17.437 47.92,17.437ZM47.303,7.909L48.394,16.246L53.091,15.627L52,7.289L47.303,7.909Z" fill="#5E2C00"/>
<path d="M58.31,6.285L53.138,6.285L53.138,15.813L58.31,15.813L58.31,6.285Z" transform="rotate(-15.245 55.724 11.049)" fill="#817C70"/>
<path d="M53.755,16.675C53.613,16.675 53.518,16.627 53.423,16.579C53.281,16.484 53.234,16.341 53.186,16.198L51.953,6.718C51.905,6.384 52.142,6.098 52.427,6.098L57.551,5.431C57.693,5.431 57.836,5.431 57.978,5.526C58.12,5.622 58.168,5.765 58.215,5.908L59.449,15.388C59.496,15.722 59.259,15.96 58.974,16.008L53.85,16.675C53.803,16.675 53.803,16.675 53.755,16.675ZM53.139,7.146L54.23,15.484L58.215,14.96L57.124,6.622L53.139,7.146Z" fill="#5E2C00"/>
<path d="M15.515,10.386L39.617,5.145L26.617,6.86L12.383,8.766C12.383,8.766 1.661,8.957 3.037,19.581L4.982,34.112L6.547,46.022L5.931,21.391C4.555,10.576 15.515,10.386 15.515,10.386Z" fill="#77CFE0"/>
<path d="M73.398,77.37L72.117,52.644L73.825,65.698L75.723,79.991C75.723,79.991 78.332,90.424 67.799,91.853L53.328,93.807L41.467,95.379L65.332,89.519C76.102,87.994 73.398,77.37 73.398,77.37Z" fill="#77CFE0"/>
<path d="M51.905,25.679L51.526,26.203L51.241,25.965L50.861,23.154L51.668,23.773L51.905,25.679ZM52.285,28.728L51.668,29.538L51.288,26.727L51.526,26.394L52.047,26.775L52.285,28.728ZM54.657,22.487L54.04,23.297L51.715,23.583L50.909,22.963L54.657,22.487ZM55.558,29.157L51.858,29.633L52.474,28.823L54.799,28.537L55.558,29.157ZM55.179,25.393L54.942,25.679L54.42,25.298L54.182,23.392L54.799,22.582L55.179,25.393ZM55.653,29.014L54.847,28.395L54.61,26.489L54.989,25.965L55.274,26.203L55.653,29.014Z" fill="#717375"/>
<path d="M57.029,24.964L56.65,25.488L56.365,25.25L55.985,22.439L56.792,23.059L57.029,24.964ZM57.409,28.061L56.792,28.871L56.412,26.06L56.65,25.727L57.172,26.108L57.409,28.061ZM59.781,21.82L59.164,22.63L56.839,22.916L56.033,22.296L59.781,21.82ZM60.682,28.49L56.982,28.966L57.599,28.156L59.923,27.87L60.682,28.49ZM60.303,24.726L60.066,25.012L59.544,24.631L59.307,22.725L59.923,21.915L60.303,24.726ZM60.777,28.347L59.971,27.728L59.734,25.822L60.113,25.298L60.398,25.536L60.777,28.347Z" fill="#717375"/>
<path d="M21.255,41.877L13.332,42.925C13.332,42.925 11.387,42.973 11.672,44.879L11.672,44.974L12.336,50.119L12.573,51.882C12.81,53.788 14.708,53.311 14.708,53.311L22.631,52.263C22.631,52.263 24.577,52.215 24.292,50.31L24.055,48.547L23.39,43.402L23.39,43.306C23.106,41.401 21.255,41.877 21.255,41.877Z" fill="#F9DEA1"/>
<path d="M14.234,53.931C13.047,53.931 12.193,53.216 12.051,51.977L11.102,44.974C10.96,44.069 11.292,43.497 11.529,43.163C12.193,42.401 13.19,42.354 13.285,42.354L21.113,41.305C21.113,41.305 21.35,41.258 21.682,41.258C22.869,41.258 23.723,42.02 23.865,43.211L24.814,50.214C24.956,51.12 24.624,51.691 24.387,52.025C23.723,52.787 22.726,52.787 22.631,52.835L14.803,53.883C14.85,53.883 14.566,53.931 14.234,53.931ZM21.73,42.401C21.54,42.401 21.398,42.449 21.35,42.449L13.38,43.497C13.142,43.497 12.62,43.592 12.383,43.926C12.193,44.116 12.146,44.45 12.193,44.831L13.142,51.834C13.237,52.501 13.569,52.835 14.234,52.835C14.423,52.835 14.566,52.787 14.613,52.787L22.584,51.739C22.821,51.739 23.343,51.644 23.58,51.31C23.77,51.12 23.818,50.834 23.77,50.405L22.821,43.402C22.726,42.687 22.394,42.401 21.73,42.401Z" fill="#5E2C00"/>
<path d="M35.109,40.019L27.186,41.067C27.186,41.067 25.241,41.115 25.526,43.021L25.526,43.116L26.19,48.261L26.427,50.024C26.664,51.93 28.562,51.453 28.562,51.453L36.485,50.405C36.485,50.405 38.431,50.357 38.146,48.452L37.956,46.689L37.292,41.544L37.292,41.448C37.007,39.543 35.109,40.019 35.109,40.019Z" fill="#F9DEA1"/>
<path d="M28.088,52.072C26.901,52.072 26.047,51.31 25.905,50.072L24.956,43.068C24.814,42.163 25.146,41.591 25.383,41.258C26.047,40.496 27.044,40.448 27.139,40.448L34.967,39.4C34.967,39.4 35.204,39.352 35.536,39.352C36.723,39.352 37.577,40.067 37.719,41.305L38.668,48.309C38.81,49.214 38.478,49.786 38.193,50.119C37.529,50.881 36.533,50.929 36.438,50.929L28.609,51.977C28.704,52.025 28.42,52.072 28.088,52.072ZM35.631,40.543C35.442,40.543 35.299,40.591 35.252,40.591L27.281,41.639C27.044,41.639 26.522,41.734 26.285,42.068C26.095,42.258 26.047,42.544 26.095,42.973L27.044,49.976C27.139,50.643 27.471,50.977 28.135,50.977C28.325,50.977 28.467,50.929 28.515,50.929L36.485,49.881C36.723,49.881 37.245,49.786 37.482,49.452C37.672,49.262 37.719,48.928 37.672,48.547L36.723,41.544C36.58,40.829 36.248,40.543 35.631,40.543Z" fill="#5E2C00"/>
<path d="M48.963,38.161L41.04,39.209C41.04,39.209 39.095,39.257 39.38,41.163L39.38,41.258L40.044,46.403L40.281,48.166C40.518,50.072 42.416,49.595 42.416,49.595L50.339,48.547C50.339,48.547 52.285,48.499 52,46.594L51.763,44.831L51.098,39.686L51.098,39.59C50.861,37.685 48.963,38.161 48.963,38.161Z" fill="#F9DEA1"/>
<path d="M41.942,50.214C40.755,50.214 39.901,49.452 39.759,48.261L38.81,41.258C38.668,40.353 39,39.781 39.237,39.447C39.901,38.685 40.898,38.638 40.993,38.638L48.821,37.589C48.821,37.589 49.058,37.542 49.39,37.542C50.577,37.542 51.431,38.256 51.573,39.495L52.522,46.498C52.664,47.404 52.332,47.975 52.047,48.309C51.383,49.071 50.387,49.119 50.292,49.119L42.463,50.167C42.558,50.167 42.321,50.214 41.942,50.214ZM49.485,38.685C49.296,38.685 49.106,38.733 49.106,38.733L41.135,39.781C40.898,39.781 40.376,39.876 40.139,40.21C39.949,40.4 39.901,40.734 39.949,41.115L40.898,48.118C40.993,48.785 41.325,49.119 41.989,49.119C42.179,49.119 42.321,49.071 42.369,49.071L50.339,48.023C50.577,48.023 51.099,47.928 51.336,47.594C51.526,47.404 51.573,47.07 51.526,46.689L50.577,39.686C50.434,38.971 50.102,38.685 49.485,38.685Z" fill="#5E2C00"/>
<path d="M62.818,36.303L54.894,37.351C54.894,37.351 52.949,37.399 53.234,39.304L53.234,39.4L53.898,44.545L54.135,46.308C54.372,48.213 56.27,47.737 56.27,47.737L64.193,46.689C64.193,46.689 66.139,46.641 65.854,44.736L65.617,42.973L64.953,37.828L64.953,37.732C64.715,35.827 62.818,36.303 62.818,36.303Z" fill="#F9DEA1"/>
<path d="M55.843,48.356C54.657,48.356 53.803,47.642 53.661,46.403L52.712,39.4C52.569,38.495 52.901,37.923 53.139,37.589C53.803,36.827 54.799,36.779 54.894,36.779L62.723,35.731C62.723,35.731 62.96,35.684 63.292,35.684C64.478,35.684 65.332,36.398 65.474,37.637L66.423,44.64C66.566,45.546 66.234,46.117 65.949,46.451C65.285,47.213 64.288,47.261 64.193,47.261L56.365,48.309C56.412,48.309 56.175,48.356 55.843,48.356ZM63.339,36.827C63.15,36.827 63.007,36.875 62.96,36.875L54.989,37.923C54.752,37.923 54.23,38.018 53.993,38.352C53.803,38.542 53.755,38.876 53.803,39.257L54.752,46.26C54.847,46.927 55.179,47.261 55.843,47.261C56.033,47.261 56.175,47.213 56.223,47.213L64.193,46.165C64.431,46.165 64.953,46.07 65.19,45.784C65.38,45.593 65.427,45.26 65.38,44.879L64.431,37.875C64.288,37.113 63.956,36.827 63.339,36.827Z" fill="#5E2C00"/>
<path d="M22.963,54.788L15.04,55.836C15.04,55.836 13.095,55.884 13.38,57.789L13.38,57.885L14.044,63.03L14.281,64.793C14.518,66.698 16.416,66.222 16.416,66.222L24.339,65.174C24.339,65.174 26.285,65.126 26,63.221L25.763,61.458L25.099,56.313L25.099,56.217C24.814,54.312 22.963,54.788 22.963,54.788Z" fill="#F9DEA1"/>
<path d="M15.942,66.841C14.755,66.841 13.901,66.127 13.759,64.888L12.81,57.885C12.668,56.98 13,56.408 13.237,56.074C13.901,55.312 14.898,55.264 14.993,55.264L22.821,54.216C22.821,54.216 23.058,54.169 23.39,54.169C24.577,54.169 25.431,54.883 25.573,56.122L26.522,63.125C26.664,64.031 26.332,64.602 26.047,64.936C25.383,65.698 24.387,65.746 24.292,65.746L16.463,66.794C16.511,66.794 16.274,66.841 15.942,66.841ZM23.438,55.264C23.248,55.264 23.058,55.312 23.058,55.312L15.088,56.36C14.85,56.36 14.328,56.456 14.091,56.789C13.901,56.98 13.854,57.313 13.901,57.694L14.85,64.698C14.945,65.365 15.277,65.698 15.942,65.698C16.131,65.698 16.321,65.65 16.321,65.65L24.292,64.602C24.529,64.602 25.051,64.507 25.288,64.173C25.478,63.983 25.526,63.697 25.478,63.268L24.529,56.265C24.434,55.598 24.102,55.264 23.438,55.264Z" fill="#5E2C00"/>
<path d="M36.818,52.93L28.942,53.978C28.942,53.978 26.996,54.026 27.281,55.931L27.281,56.027L27.945,61.172L28.182,62.935C28.42,64.84 30.318,64.364 30.318,64.364L38.241,63.316C38.241,63.316 40.186,63.268 39.901,61.363L39.664,59.6L39,54.455L39,54.359C38.715,52.454 36.818,52.93 36.818,52.93Z" fill="#F9DEA1"/>
<path d="M29.796,64.983C28.609,64.983 27.755,64.269 27.613,63.03L26.664,56.027C26.522,55.122 26.854,54.55 27.139,54.216C27.803,53.454 28.799,53.406 28.894,53.406L36.723,52.358C36.675,52.358 36.96,52.311 37.292,52.311C38.478,52.311 39.332,53.025 39.474,54.264L40.423,61.267C40.566,62.173 40.234,62.744 39.949,63.078C39.285,63.84 38.288,63.888 38.193,63.888L30.365,64.936C30.412,64.936 30.128,64.983 29.796,64.983ZM37.339,53.406C37.15,53.406 36.96,53.454 36.96,53.454L28.989,54.502C28.752,54.502 28.23,54.597 27.993,54.931C27.803,55.122 27.755,55.455 27.803,55.836L28.752,62.839C28.847,63.506 29.179,63.84 29.843,63.84C30.033,63.84 30.175,63.792 30.223,63.792L38.193,62.744C38.431,62.744 38.953,62.649 39.19,62.315C39.38,62.125 39.427,61.791 39.38,61.41L38.431,54.407C38.288,53.74 37.956,53.406 37.339,53.406Z" fill="#5E2C00"/>
<path d="M50.671,51.072L42.748,52.12C42.748,52.12 40.803,52.168 41.088,54.073L41.088,54.169L41.752,59.314L41.989,61.077C42.226,62.982 44.124,62.506 44.124,62.506L52.047,61.458C52.047,61.458 53.993,61.41 53.708,59.505L53.471,57.742L52.807,52.597L52.807,52.501C52.569,50.596 50.671,51.072 50.671,51.072Z" fill="#F9DEA1"/>
<path d="M43.65,63.125C42.463,63.125 41.609,62.363 41.467,61.172L40.518,54.169C40.376,53.263 40.708,52.692 40.945,52.358C41.609,51.596 42.606,51.548 42.701,51.548L50.529,50.5C50.529,50.5 50.766,50.453 51.099,50.453C52.285,50.453 53.139,51.167 53.281,52.406L54.23,59.409C54.372,60.314 54.04,60.886 53.803,61.22C53.139,61.982 52.142,62.03 52.047,62.03L44.219,63.078C44.266,63.078 44.029,63.125 43.65,63.125ZM51.193,51.596C51.004,51.596 50.861,51.644 50.814,51.644L42.843,52.692C42.606,52.692 42.084,52.787 41.847,53.121C41.657,53.311 41.609,53.597 41.657,54.026L42.606,61.029C42.701,61.696 43.033,62.03 43.697,62.03C43.887,62.03 44.029,61.982 44.077,61.982L52.047,60.934C52.285,60.934 52.807,60.839 53.044,60.505C53.234,60.314 53.281,59.981 53.234,59.6L52.285,52.597C52.142,51.882 51.81,51.596 51.193,51.596Z" fill="#5E2C00"/>
<path d="M64.573,49.214L56.65,50.262C56.65,50.262 54.704,50.31 54.989,52.215L54.989,52.311L55.653,57.456L55.89,59.219C56.128,61.124 58.026,60.648 58.026,60.648L65.949,59.6C65.949,59.6 67.894,59.552 67.609,57.647L67.372,55.884L66.708,50.738L66.708,50.643C66.423,48.738 64.573,49.214 64.573,49.214Z" fill="#F9DEA1"/>
<path d="M57.551,61.267C56.365,61.267 55.511,60.505 55.369,59.314L54.42,52.311C54.277,51.405 54.609,50.834 54.847,50.5C55.511,49.738 56.507,49.69 56.602,49.69L64.431,48.642C64.431,48.642 64.668,48.595 65,48.595C66.186,48.595 67.04,49.357 67.182,50.548L68.131,57.551C68.274,58.456 67.942,59.028 67.704,59.362C67.04,60.124 66.044,60.172 65.949,60.172L58.12,61.22C58.12,61.22 57.883,61.267 57.551,61.267ZM65.047,49.738C64.858,49.738 64.715,49.786 64.668,49.786L56.697,50.834C56.46,50.834 55.938,50.929 55.701,51.263C55.511,51.453 55.464,51.739 55.511,52.168L56.46,59.171C56.555,59.838 56.887,60.172 57.551,60.172C57.741,60.172 57.931,60.124 57.931,60.124L65.901,59.076C66.139,59.076 66.661,58.981 66.898,58.647C67.088,58.456 67.135,58.171 67.088,57.742L66.139,50.738C66.044,50.024 65.664,49.738 65.047,49.738Z" fill="#5E2C00"/>
<path d="M24.672,67.651L16.748,68.699C16.748,68.699 14.803,68.747 15.088,70.653L15.088,70.748L15.752,75.893L15.989,77.656C16.226,79.562 18.124,79.085 18.124,79.085L26.047,78.037C26.047,78.037 27.993,77.99 27.708,76.084L27.471,74.321L26.807,69.176L26.807,69.081C26.569,67.175 24.672,67.651 24.672,67.651Z" fill="#F9DEA1"/>
<path d="M17.65,79.752C16.464,79.752 15.61,79.038 15.467,77.799L14.518,70.796C14.376,69.89 14.708,69.319 14.945,68.985C15.61,68.223 16.606,68.175 16.701,68.175L24.529,67.127C24.529,67.127 24.766,67.08 25.099,67.08C26.285,67.08 27.139,67.842 27.281,69.081L28.23,76.084C28.372,76.989 28.04,77.561 27.756,77.894C27.091,78.657 26.095,78.704 26,78.704L18.172,79.752C18.219,79.705 17.982,79.752 17.65,79.752ZM25.193,68.175C25.004,68.175 24.861,68.223 24.814,68.223L16.843,69.271C16.606,69.271 16.084,69.366 15.847,69.7C15.657,69.89 15.61,70.224 15.657,70.605L16.606,77.608C16.701,78.275 17.033,78.609 17.697,78.609C17.887,78.609 18.077,78.561 18.077,78.561L26.047,77.513C26.285,77.513 26.807,77.418 27.044,77.084C27.234,76.894 27.281,76.608 27.234,76.179L26.285,69.176C26.142,68.509 25.81,68.175 25.193,68.175Z" fill="#5E2C00"/>
<path d="M38.526,65.793L30.602,66.841C30.602,66.841 28.657,66.889 28.942,68.795L28.942,68.89L29.606,74.035L29.843,75.798C30.08,77.704 31.978,77.227 31.978,77.227L39.901,76.179C39.901,76.179 41.847,76.132 41.562,74.226L41.325,72.463L40.661,67.318L40.661,67.223C40.423,65.317 38.526,65.793 38.526,65.793Z" fill="#F9DEA1"/>
<path d="M31.504,77.894C30.318,77.894 29.464,77.132 29.321,75.941L28.372,68.938C28.23,68.032 28.562,67.461 28.799,67.127C29.464,66.365 30.46,66.317 30.555,66.317L38.383,65.269C38.383,65.269 38.62,65.222 38.953,65.222C40.139,65.222 40.993,65.936 41.135,67.175L42.084,74.178C42.226,75.083 41.894,75.655 41.657,75.989C40.993,76.751 39.996,76.798 39.901,76.798L32.073,77.847C32.12,77.799 31.883,77.894 31.504,77.894ZM39.047,66.317C38.858,66.317 38.715,66.365 38.668,66.365L30.697,67.413C30.46,67.413 29.938,67.508 29.701,67.794C29.511,67.985 29.464,68.318 29.511,68.699L30.46,75.703C30.555,76.37 30.887,76.703 31.551,76.703C31.741,76.703 31.931,76.656 31.931,76.656L39.901,75.607C40.139,75.607 40.661,75.512 40.898,75.179C41.088,74.988 41.135,74.702 41.088,74.273L40.139,67.27C39.996,66.651 39.664,66.317 39.047,66.317Z" fill="#5E2C00"/>
<path d="M52.38,63.935L44.456,64.983C44.456,64.983 42.511,65.031 42.796,66.937L42.796,67.032L43.46,72.177L43.697,73.94C43.934,75.846 45.832,75.369 45.832,75.369L53.755,74.321C53.755,74.321 55.701,74.273 55.416,72.368L55.179,70.605L54.515,65.46L54.515,65.364C54.277,63.506 52.38,63.935 52.38,63.935Z" fill="#F9DEA1"/>
<path d="M45.358,76.036C44.172,76.036 43.318,75.322 43.175,74.083L42.226,67.08C42.084,66.174 42.416,65.603 42.653,65.269C43.318,64.507 44.314,64.459 44.409,64.459L52.237,63.411C52.19,63.411 52.474,63.364 52.807,63.364C53.993,63.364 54.847,64.078 54.989,65.317L55.938,72.32C56.08,73.225 55.748,73.797 55.464,74.131C54.799,74.893 53.803,74.94 53.708,74.94L45.88,75.989C45.974,75.989 45.737,76.036 45.358,76.036ZM52.901,64.459C52.712,64.459 52.522,64.507 52.522,64.507L44.551,65.555C44.314,65.555 43.792,65.65 43.555,65.984C43.365,66.174 43.318,66.508 43.365,66.889L44.314,73.892C44.409,74.559 44.741,74.893 45.405,74.893C45.595,74.893 45.785,74.845 45.785,74.845L53.755,73.797C53.993,73.797 54.515,73.702 54.752,73.368C54.942,73.178 54.989,72.892 54.942,72.463L53.993,65.46C53.85,64.793 53.518,64.459 52.901,64.459Z" fill="#5E2C00"/>
<path d="M66.281,62.125L58.358,63.173C58.358,63.173 56.412,63.221 56.697,65.126L56.697,65.222L57.361,70.367L57.599,72.13C57.836,74.035 59.734,73.559 59.734,73.559L67.657,72.511C67.657,72.511 69.602,72.463 69.318,70.557L69.08,68.795L68.416,63.649L68.416,63.554C68.131,61.648 66.281,62.125 66.281,62.125Z" fill="#F9DEA1"/>
<path d="M59.259,74.178C58.073,74.178 57.219,73.416 57.077,72.177L56.128,65.174C55.985,64.269 56.318,63.697 56.555,63.364C57.219,62.601 58.215,62.554 58.31,62.554L66.139,61.506C66.139,61.506 66.376,61.458 66.708,61.458C67.894,61.458 68.748,62.22 68.891,63.411L69.839,70.415C69.982,71.32 69.65,71.891 69.412,72.225C68.748,72.987 67.752,73.035 67.657,73.035L59.829,74.083C59.829,74.131 59.591,74.178 59.259,74.178ZM66.756,62.601C66.566,62.601 66.376,62.649 66.376,62.649L58.405,63.697C58.168,63.697 57.646,63.792 57.409,64.126C57.219,64.316 57.172,64.602 57.219,65.031L58.168,72.034C58.263,72.701 58.595,73.035 59.259,73.035C59.449,73.035 59.591,72.987 59.639,72.987L67.61,71.939C67.847,71.939 68.369,71.844 68.606,71.51C68.796,71.32 68.843,70.986 68.796,70.605L67.847,63.602C67.752,62.935 67.372,62.601 66.756,62.601Z" fill="#5E2C00"/>
<path d="M26.38,80.562L18.504,81.61C18.504,81.61 16.558,81.658 16.843,83.564L16.843,83.659L17.507,88.804L17.745,90.567C17.982,92.473 19.88,91.996 19.88,91.996L27.803,90.948C27.803,90.948 29.748,90.9 29.464,88.995L29.226,87.232L28.562,82.087L28.562,81.991C28.277,80.086 26.38,80.562 26.38,80.562Z" fill="#F9DEA1"/>
<path d="M19.358,92.616C18.172,92.616 17.318,91.853 17.175,90.662L16.226,83.659C16.084,82.754 16.416,82.182 16.653,81.849C17.318,81.086 18.314,81.039 18.409,81.039L26.237,79.991C26.237,79.991 26.474,79.943 26.807,79.943C27.993,79.943 28.847,80.657 28.989,81.944L29.938,88.947C30.08,89.852 29.748,90.424 29.511,90.758C28.847,91.52 27.85,91.567 27.755,91.567L19.927,92.568C19.974,92.616 19.69,92.616 19.358,92.616ZM26.901,81.086C26.712,81.086 26.569,81.134 26.522,81.134L18.551,82.182C18.314,82.182 17.792,82.277 17.555,82.611C17.365,82.801 17.318,83.135 17.365,83.516L18.314,90.519C18.409,91.186 18.741,91.52 19.405,91.52C19.595,91.52 19.737,91.472 19.785,91.472L27.755,90.424C27.993,90.424 28.515,90.329 28.752,89.995C28.942,89.805 28.989,89.471 28.942,89.09L27.993,82.087C27.85,81.42 27.518,81.086 26.901,81.086Z" fill="#5E2C00"/>
<path d="M40.234,78.704L32.31,79.752C32.31,79.752 30.365,79.8 30.65,81.706L30.65,81.801L31.314,86.946L31.551,88.709C31.788,90.615 33.686,90.138 33.686,90.138L41.609,89.09C41.609,89.09 43.555,89.042 43.27,87.137L43.033,85.374L42.369,80.229L42.369,80.133C42.131,78.228 40.234,78.704 40.234,78.704Z" fill="#F9DEA1"/>
<path d="M33.212,90.805C32.026,90.805 31.172,90.043 31.029,88.852L30.08,81.849C29.938,80.943 30.27,80.372 30.507,80.038C31.172,79.276 32.168,79.228 32.263,79.228L40.091,78.18C40.091,78.18 40.328,78.133 40.661,78.133C41.847,78.133 42.701,78.847 42.843,80.086L43.792,87.089C43.934,87.994 43.602,88.566 43.365,88.9C42.701,89.662 41.704,89.709 41.609,89.709L33.781,90.758C33.828,90.758 33.591,90.805 33.212,90.805ZM40.755,79.228C40.566,79.228 40.423,79.276 40.376,79.276L32.405,80.324C32.168,80.324 31.646,80.419 31.409,80.753C31.219,80.943 31.172,81.229 31.219,81.658L32.168,88.661C32.263,89.328 32.595,89.662 33.259,89.662C33.449,89.662 33.591,89.614 33.639,89.614L41.609,88.566C41.847,88.566 42.369,88.471 42.606,88.185C42.796,87.994 42.843,87.708 42.796,87.28L41.847,80.276C41.704,79.562 41.372,79.228 40.755,79.228Z" fill="#5E2C00"/>
<path d="M54.135,76.846L46.212,77.894C46.212,77.894 44.266,77.942 44.551,79.848L44.551,79.943L45.215,85.088L45.453,86.851C45.69,88.757 47.588,88.28 47.588,88.28L55.511,87.232C55.511,87.232 57.456,87.184 57.172,85.279L56.934,83.516L56.27,78.371L56.27,78.275C55.985,76.37 54.135,76.846 54.135,76.846Z" fill="#F9DEA1"/>
<path d="M47.113,88.947C45.927,88.947 45.073,88.233 44.931,86.994L43.982,79.991C43.839,79.085 44.172,78.514 44.456,78.18C45.12,77.418 46.117,77.37 46.212,77.37L54.04,76.322C54.04,76.322 54.277,76.274 54.609,76.274C55.796,76.274 56.65,76.989 56.792,78.228L57.741,85.231C57.883,86.136 57.551,86.708 57.314,87.041C56.65,87.804 55.653,87.851 55.558,87.851L47.73,88.9C47.682,88.9 47.445,88.947 47.113,88.947ZM54.609,77.37C54.42,77.37 54.23,77.418 54.23,77.418L46.259,78.466C46.022,78.466 45.5,78.561 45.263,78.847C45.073,79.038 45.026,79.371 45.073,79.752L46.022,86.756C46.117,87.423 46.449,87.756 47.113,87.756C47.303,87.756 47.493,87.708 47.493,87.708L55.463,86.66C55.701,86.66 56.223,86.565 56.46,86.232C56.65,86.041 56.697,85.708 56.65,85.326L55.701,78.323C55.606,77.704 55.226,77.37 54.609,77.37Z" fill="#5E2C00"/>
<path d="M67.989,74.988L60.066,76.036C60.066,76.036 58.12,76.084 58.405,77.99L58.405,78.085L59.069,83.23L59.307,84.993C59.544,86.899 61.442,86.422 61.442,86.422L69.365,85.374C69.365,85.374 71.31,85.326 71.026,83.421L70.788,81.658L70.124,76.513L70.124,76.417C69.839,74.512 67.989,74.988 67.989,74.988Z" fill="#F9DEA1"/>
<path d="M60.967,87.089C59.781,87.089 58.927,86.327 58.785,85.136L57.836,78.133C57.693,77.227 58.026,76.656 58.263,76.322C58.927,75.56 59.923,75.512 60.018,75.512L67.847,74.464C67.847,74.464 68.084,74.416 68.416,74.416C69.602,74.416 70.456,75.131 70.599,76.37L71.547,83.373C71.69,84.278 71.358,84.85 71.12,85.183C70.456,85.946 69.46,85.993 69.365,85.993L61.537,87.042C61.537,87.042 61.299,87.089 60.967,87.089ZM68.464,75.512C68.274,75.512 68.084,75.56 68.084,75.56L60.113,76.608C59.876,76.608 59.354,76.703 59.117,77.037C58.927,77.227 58.88,77.513 58.927,77.942L59.876,84.945C59.971,85.612 60.303,85.946 60.967,85.946C61.157,85.946 61.299,85.898 61.347,85.898L69.318,84.85C69.555,84.85 70.077,84.755 70.314,84.469C70.504,84.278 70.551,83.945 70.504,83.564L69.555,76.56C69.46,75.846 69.128,75.512 68.464,75.512Z" fill="#5E2C00"/>
<path d="M21.777,75.417L21.303,75.465L20.876,72.273C20.781,72.415 20.639,72.558 20.449,72.701C20.259,72.844 20.117,72.94 19.974,73.035L19.927,72.558C20.164,72.368 20.401,72.177 20.591,71.987C20.781,71.796 20.876,71.558 20.971,71.367L21.303,71.32L21.777,75.417Z" fill="#4262AD"/>
<path d="M36.818,72.94L36.865,73.416L34.208,73.797C34.208,73.654 34.208,73.559 34.208,73.464C34.255,73.273 34.35,73.083 34.445,72.892C34.588,72.701 34.777,72.463 35.015,72.177C35.394,71.749 35.679,71.415 35.774,71.177C35.916,70.939 35.963,70.748 35.916,70.557C35.869,70.367 35.774,70.224 35.631,70.081C35.489,69.986 35.299,69.938 35.062,69.938C34.825,69.986 34.635,70.081 34.54,70.224C34.398,70.367 34.35,70.605 34.398,70.843L33.876,70.843C33.876,70.462 33.971,70.129 34.161,69.938C34.35,69.7 34.635,69.557 35.062,69.509C35.442,69.462 35.774,69.509 36.011,69.7C36.248,69.891 36.438,70.129 36.438,70.462C36.438,70.605 36.438,70.796 36.391,70.939C36.343,71.082 36.248,71.272 36.106,71.463C35.963,71.653 35.774,71.939 35.442,72.273C35.157,72.558 35.015,72.749 34.92,72.844C34.825,72.94 34.777,73.035 34.73,73.13L36.818,72.94Z" fill="#4262AD"/>
<path d="M47.92,70.796L48.394,70.653C48.489,70.939 48.631,71.129 48.774,71.224C48.916,71.32 49.106,71.367 49.296,71.32C49.533,71.272 49.723,71.177 49.865,70.986C50.007,70.796 50.055,70.605 50.007,70.367C49.96,70.129 49.865,69.938 49.723,69.843C49.533,69.7 49.343,69.652 49.106,69.7C49.011,69.7 48.916,69.748 48.774,69.795L48.774,69.366C48.821,69.366 48.821,69.366 48.869,69.366C49.058,69.319 49.248,69.271 49.438,69.128C49.58,68.985 49.675,68.795 49.628,68.604C49.58,68.414 49.533,68.271 49.391,68.175C49.248,68.08 49.106,68.032 48.869,68.08C48.679,68.128 48.537,68.175 48.394,68.318C48.299,68.461 48.204,68.652 48.204,68.89L47.682,68.89C47.682,68.556 47.825,68.271 48.015,68.08C48.204,67.889 48.442,67.747 48.774,67.699C49.011,67.651 49.201,67.699 49.391,67.747C49.58,67.794 49.77,67.937 49.865,68.08C50.007,68.223 50.055,68.414 50.102,68.604C50.102,68.795 50.102,68.938 50.007,69.081C49.912,69.223 49.818,69.366 49.628,69.462C49.865,69.462 50.055,69.557 50.245,69.748C50.387,69.89 50.482,70.129 50.529,70.367C50.577,70.7 50.482,71.034 50.245,71.32C50.007,71.606 49.723,71.748 49.296,71.796C48.964,71.844 48.631,71.796 48.347,71.606C48.204,71.367 48.015,71.129 47.92,70.796Z" fill="#4262AD"/>
<path d="M20.307,62.458L20.164,61.506L18.409,61.744L18.361,61.267L19.88,58.409L20.307,58.361L20.639,60.982L21.161,60.886L21.208,61.363L20.639,61.458L20.781,62.411L20.307,62.458ZM20.117,61.029L19.88,59.219L18.836,61.22L20.117,61.029Z" fill="#4262AD"/>
<path d="M32.358,59.743L32.88,59.648C32.974,59.886 33.069,60.076 33.212,60.172C33.354,60.267 33.544,60.314 33.734,60.314C33.971,60.267 34.161,60.172 34.303,59.981C34.445,59.79 34.493,59.505 34.445,59.219C34.398,58.933 34.303,58.742 34.113,58.599C33.923,58.456 33.734,58.409 33.449,58.456C33.307,58.456 33.164,58.552 33.022,58.647C32.88,58.742 32.832,58.838 32.737,58.981L32.263,58.981L32.358,56.837L34.35,56.551L34.398,57.027L32.785,57.265L32.69,58.409C32.927,58.218 33.164,58.075 33.401,58.075C33.734,58.028 34.066,58.123 34.35,58.314C34.635,58.504 34.777,58.838 34.825,59.219C34.872,59.6 34.825,59.933 34.635,60.219C34.398,60.6 34.066,60.791 33.639,60.839C33.259,60.886 32.974,60.839 32.69,60.648C32.595,60.314 32.405,60.076 32.358,59.743Z" fill="#4262AD"/>
<path d="M48.537,55.55L48.062,55.646C48.015,55.455 47.92,55.312 47.825,55.264C47.683,55.122 47.493,55.074 47.303,55.122C47.161,55.122 47.018,55.217 46.923,55.312C46.781,55.455 46.686,55.646 46.639,55.884C46.591,56.122 46.591,56.456 46.639,56.837C46.734,56.646 46.876,56.503 47.018,56.36C47.161,56.265 47.35,56.17 47.54,56.17C47.872,56.122 48.157,56.217 48.442,56.408C48.726,56.598 48.869,56.932 48.916,57.313C48.964,57.551 48.916,57.789 48.869,58.028C48.774,58.266 48.679,58.456 48.489,58.599C48.299,58.742 48.11,58.838 47.872,58.838C47.445,58.885 47.113,58.79 46.781,58.504C46.496,58.218 46.259,57.742 46.212,57.027C46.117,56.265 46.164,55.646 46.401,55.264C46.591,54.931 46.923,54.74 47.35,54.645C47.683,54.597 47.92,54.645 48.157,54.788C48.299,55.026 48.442,55.264 48.537,55.55ZM46.734,57.551C46.734,57.742 46.829,57.885 46.923,58.028C47.018,58.171 47.113,58.266 47.256,58.361C47.398,58.409 47.54,58.456 47.683,58.409C47.872,58.361 48.062,58.266 48.204,58.075C48.347,57.885 48.394,57.647 48.347,57.361C48.299,57.075 48.204,56.884 48.015,56.741C47.825,56.598 47.635,56.551 47.445,56.551C47.208,56.598 47.018,56.694 46.923,56.884C46.781,57.075 46.734,57.313 46.734,57.551Z" fill="#4262AD"/>
<path d="M16.511,46.308L16.464,45.831L19.073,45.498L19.12,45.879C18.883,46.165 18.693,46.594 18.504,47.07C18.314,47.547 18.172,48.071 18.124,48.547C18.077,48.88 18.077,49.262 18.077,49.69L17.555,49.738C17.507,49.405 17.507,49.023 17.602,48.547C17.65,48.071 17.792,47.642 17.934,47.165C18.124,46.737 18.314,46.308 18.504,46.022L16.511,46.308Z" fill="#4262AD"/>
<path d="M31.266,45.593C31.029,45.546 30.887,45.45 30.745,45.355C30.65,45.212 30.555,45.069 30.507,44.879C30.46,44.593 30.555,44.307 30.745,44.069C30.934,43.83 31.219,43.688 31.551,43.64C31.883,43.592 32.215,43.64 32.453,43.83C32.69,44.021 32.832,44.259 32.88,44.545C32.927,44.736 32.88,44.926 32.785,45.069C32.69,45.212 32.547,45.355 32.358,45.45C32.595,45.498 32.832,45.593 32.974,45.784C33.117,45.927 33.212,46.165 33.259,46.403C33.307,46.737 33.212,47.07 33.022,47.308C32.832,47.594 32.5,47.737 32.12,47.785C31.741,47.832 31.361,47.785 31.124,47.546C30.839,47.356 30.697,47.07 30.65,46.689C30.602,46.403 30.65,46.213 30.745,45.974C30.839,45.879 31.029,45.688 31.266,45.593ZM31.124,46.689C31.124,46.832 31.219,46.975 31.266,47.07C31.361,47.213 31.456,47.261 31.599,47.356C31.741,47.404 31.883,47.451 32.026,47.404C32.263,47.356 32.453,47.261 32.595,47.118C32.737,46.927 32.785,46.737 32.737,46.498C32.69,46.26 32.595,46.07 32.405,45.927C32.215,45.784 32.026,45.736 31.788,45.784C31.551,45.831 31.361,45.927 31.219,46.07C31.172,46.26 31.124,46.451 31.124,46.689ZM31.029,44.783C31.077,44.974 31.124,45.117 31.266,45.212C31.409,45.307 31.551,45.355 31.788,45.307C31.978,45.26 32.12,45.212 32.215,45.069C32.31,44.926 32.358,44.783 32.358,44.593C32.31,44.402 32.263,44.259 32.12,44.164C31.978,44.069 31.836,44.021 31.646,44.021C31.456,44.069 31.314,44.116 31.219,44.259C31.077,44.45 31.029,44.593 31.029,44.783Z" fill="#4262AD"/>
<path d="M44.599,45.117L45.073,45.021C45.12,45.26 45.263,45.403 45.358,45.498C45.5,45.593 45.642,45.593 45.832,45.593C45.974,45.593 46.117,45.498 46.212,45.45C46.307,45.355 46.401,45.26 46.449,45.117C46.496,44.974 46.544,44.831 46.591,44.64C46.591,44.45 46.591,44.212 46.591,44.021C46.591,44.021 46.591,43.973 46.591,43.926C46.496,44.116 46.401,44.259 46.259,44.354C46.117,44.497 45.927,44.545 45.737,44.593C45.405,44.64 45.12,44.545 44.836,44.354C44.551,44.164 44.409,43.83 44.361,43.449C44.314,43.021 44.361,42.687 44.599,42.401C44.788,42.115 45.073,41.972 45.453,41.925C45.737,41.877 45.974,41.925 46.212,42.02C46.449,42.115 46.639,42.306 46.781,42.544C46.923,42.782 47.018,43.163 47.113,43.64C47.161,44.164 47.161,44.593 47.113,44.879C47.018,45.212 46.923,45.45 46.686,45.641C46.496,45.831 46.259,45.927 45.927,45.974C45.595,46.022 45.358,45.974 45.12,45.831C44.836,45.641 44.693,45.403 44.599,45.117ZM46.401,43.068C46.354,42.782 46.259,42.544 46.069,42.401C45.88,42.258 45.69,42.211 45.5,42.211C45.263,42.258 45.12,42.354 44.978,42.544C44.836,42.735 44.788,42.973 44.836,43.259C44.883,43.497 44.978,43.735 45.168,43.878C45.358,44.021 45.547,44.069 45.785,44.021C46.022,43.973 46.212,43.878 46.307,43.688C46.401,43.592 46.449,43.354 46.401,43.068Z" fill="#4262AD"/>
<path d="M21.825,86.47C21.777,85.993 21.777,85.612 21.825,85.279C21.872,84.993 22.015,84.707 22.157,84.564C22.347,84.374 22.584,84.278 22.869,84.231C23.106,84.183 23.296,84.231 23.438,84.278C23.628,84.326 23.77,84.469 23.912,84.612C24.055,84.755 24.15,84.945 24.245,85.184C24.339,85.422 24.387,85.708 24.482,86.136C24.529,86.613 24.529,86.994 24.482,87.327C24.434,87.613 24.292,87.899 24.15,88.042C23.96,88.233 23.723,88.328 23.438,88.375C23.058,88.423 22.726,88.328 22.442,88.09C22.11,87.756 21.92,87.232 21.825,86.47ZM22.299,86.422C22.394,87.089 22.537,87.518 22.726,87.709C22.916,87.899 23.106,87.994 23.343,87.947C23.58,87.899 23.77,87.804 23.865,87.518C24.007,87.28 24.007,86.803 23.912,86.136C23.818,85.469 23.675,85.041 23.485,84.85C23.296,84.659 23.106,84.564 22.869,84.612C22.631,84.659 22.489,84.755 22.347,84.993C22.252,85.279 22.252,85.755 22.299,86.422Z" fill="#4262AD"/>
<path d="M64.099,82.897L63.861,81.182L62.153,81.42L62.058,80.705L63.766,80.467L63.529,78.752L64.241,78.657L64.478,80.372L66.186,80.133L66.281,80.848L64.573,81.086L64.81,82.801L64.099,82.897Z" fill="#4262AD"/>
<path d="M52.901,81.706L48.679,82.277L48.584,81.563L52.807,80.991L52.901,81.706ZM53.139,83.659L48.916,84.231L48.821,83.516L53.044,82.944L53.139,83.659Z" fill="#4262AD"/>
<path d="M58.832,40.496L58.737,39.924L59.307,39.829L59.401,40.4L58.832,40.496Z" fill="#4262AD"/>
<path d="M59.069,42.449L58.974,41.877L59.544,41.782L59.639,42.354L59.069,42.449Z" fill="#4262AD"/>
<path d="M57.551,41.687L57.456,41.115L60.825,40.686L60.92,41.258L57.551,41.687Z" fill="#4262AD"/>
<path d="M61.109,68.366L61.015,67.794L64.383,67.365L64.478,67.937L61.109,68.366Z" fill="#4262AD"/>
<path d="M59.591,57.265L60.73,55.455L59.307,54.121L60.066,54.026L60.73,54.693C60.872,54.836 60.967,54.931 61.015,55.026C61.11,54.883 61.157,54.74 61.252,54.645L61.774,53.835L62.533,53.74L61.442,55.407L63.007,56.884L62.248,56.98L61.347,56.122L61.11,55.884L60.303,57.265L59.591,57.265Z" fill="#4262AD"/>
<path d="M37.482,86.708C37.529,87.041 37.292,87.375 36.96,87.423C36.628,87.47 36.296,87.232 36.248,86.899C36.201,86.565 36.438,86.232 36.77,86.184C37.102,86.136 37.434,86.374 37.482,86.708Z" fill="#4262AD"/>
</svg>
