<svg width="94" height="104" viewBox="0 0 94 104" fill="none" xmlns="http://www.w3.org/2000/svg" xmlns:xlink="http://www.w3.org/1999/xlink">
<path d="M46.271,91.85C65.936,91.85 81.877,75.937 81.877,56.306C81.877,36.676 65.936,20.763 46.271,20.763C26.607,20.763 10.665,36.676 10.665,56.306C10.665,75.937 26.607,91.85 46.271,91.85Z" transform="rotate(-42.862 46.271 56.306)" fill="#FF0000"/>
<path d="M20.99,20.518C16.535,21.105 10.479,28.271 8.017,33.831C5.556,39.391 8.447,43.111 9.893,44.09C11.339,45.068 13.292,43.111 13.292,43.111C13.292,43.111 16.613,37.237 19.622,33.165C22.631,29.093 28.335,25.843 28.335,25.843C28.335,25.843 28.218,24.472 28.023,23.689C27.867,22.906 25.444,19.97 20.99,20.518Z" fill="#FFB600"/>
<path d="M56.937,12.726C55.061,12.217 48.692,10.494 43.535,11.434C38.377,12.373 36.658,17.111 36.619,18.912C36.58,20.753 38.69,21.536 38.846,21.536C38.846,21.536 40.995,20.596 47.442,20.831C53.889,21.066 60.844,24.277 61.938,24.316C63.032,24.355 64.986,21.262 63.814,18.208C62.563,15.114 58.812,13.235 56.937,12.726Z" fill="#FFB600"/>
<path d="M46.43,84.093C61.756,84.093 74.18,71.72 74.18,56.457C74.18,41.194 61.756,28.821 46.43,28.821C31.104,28.821 18.68,41.194 18.68,56.457C18.68,71.72 31.104,84.093 46.43,84.093Z" transform="rotate(-42.836 46.43 56.457)" fill="#FFFFFF"/>
<path d="M19.505,29.524C14.386,34.731 11.964,40.566 11.846,40.683C11.729,40.801 10.596,42.132 10.713,42.68C10.791,43.189 10.87,44.364 10.987,44.364C11.104,44.364 11.417,44.207 11.417,44.207L13.722,42.915C13.722,42.915 17.668,33.635 28.062,25.53C28.296,25.334 28.023,23.689 28.023,23.689C28.023,23.689 24.623,24.316 19.505,29.524Z" fill="#B77E00"/>
<path d="M50.763,18.599C47.637,17.894 39.354,18.09 37.713,19.343C36.072,20.596 38.885,21.575 38.885,21.575C48.497,19.226 59.789,23.494 59.867,23.415C59.985,23.376 62.641,24.707 63.189,23.063C63.696,21.379 53.889,19.304 50.763,18.599Z" fill="#B77E00"/>
<path d="M8.33,24.473C7.119,25.647 10.557,28.545 10.557,28.545C10.713,28.31 11.768,27.292 12.98,26.156L11.768,24.786C11.768,24.786 9.541,23.298 8.33,24.473Z" fill="#CEC2AA"/>
<path d="M12.98,26.156L13.019,26.039C13.019,26.078 12.98,26.117 12.98,26.156Z" fill="#CEC2AA"/>
<path d="M51.584,6.97C50.294,7.166 49.826,9.358 49.747,10.141C49.669,10.925 49.552,10.885 49.552,10.885C47.012,10.376 45.137,7.479 43.3,3.367C41.386,-0.705 35.994,0.431 34.704,0.392C33.376,0.352 22.631,3.289 16.613,7.91C10.596,12.491 12.042,15.506 13.097,18.56C14.152,21.614 13.683,24.707 13.683,24.707L13.019,26.078C14.777,24.394 16.848,22.515 16.848,22.515C16.848,22.515 16.809,21.379 16.77,21.105C16.731,20.87 16.418,19.382 16.418,19.382C16.418,19.382 16.066,17.699 15.91,17.268C15.793,16.837 15.48,15.976 15.402,15.78C15.324,15.584 15.519,12.804 16.144,12.099C16.77,11.434 24.78,6.578 29.859,4.542C34.939,2.506 37.947,3.172 39.119,3.602C40.292,4.033 42.597,8.81 42.636,8.967C42.675,9.123 43.027,9.946 43.339,10.337C43.652,10.729 44.277,11.081 44.277,11.081C44.277,11.081 51.623,11.355 51.74,11.355C51.857,11.394 53.147,11.473 53.147,11.394C53.186,11.316 53.147,9.045 53.108,8.928C53.108,8.849 52.873,6.813 51.584,6.97Z" fill="#CEC2AA"/>
<path d="M33.845,20.283C33.727,20.048 32.868,19.304 31.774,19.382C31.774,19.382 30.015,19.97 30.172,21.262C30.328,22.554 31.266,23.337 32.36,23.376C33.454,23.415 34.314,21.692 34.196,21.223C34.079,20.753 33.962,20.518 33.845,20.283Z" fill="#CEC2AA"/>
<path d="M41.737,91.625C41.581,91.586 37.205,90.098 36.189,90.45C36.189,90.45 33.024,92.408 33.962,96.167C34.9,99.926 39.588,98.751 40.135,98.438C40.682,98.125 42.441,96.167 42.48,95.775C42.519,95.345 42.558,94.17 42.558,94.17C42.558,94.17 42.48,93.035 42.284,92.643C42.089,92.212 41.894,91.625 41.737,91.625Z" fill="#FFEC00"/>
<path d="M81.866,75.336C81.592,75.14 81.318,75.023 81.006,74.905C80.693,74.788 77.763,73.809 77.567,73.926C77.411,74.044 74.481,78.273 73.895,78.703C73.582,78.938 73.895,82.345 78.271,83.285C78.271,83.285 82.022,82.58 82.413,80.348C82.803,78.116 82.491,76.981 82.334,76.589C82.178,76.198 82.139,75.493 81.866,75.336Z" fill="#FFEC00"/>
<path d="M35.29,27.37C19.309,33.635 11.456,51.725 17.707,67.779C23.959,83.833 41.777,91.429 57.718,85.164C73.699,78.899 81.826,61.162 75.575,45.108C69.284,29.054 51.271,21.105 35.29,27.37ZM56.585,82.306C42.324,87.905 26.225,80.857 20.677,66.604C15.09,52.312 22.162,36.219 36.423,30.62C50.685,25.021 66.783,32.069 72.332,46.321C77.919,60.613 70.847,76.706 56.585,82.306Z" fill="#E8DDCA"/>
<path d="M46.504,58.303C46.504,58.303 50.06,57.324 49.239,54.035C49.239,54.035 61.04,46.047 64.908,40.566C65.025,40.409 56.859,44.912 53.186,48.475C49.513,51.999 48.458,52.978 48.458,52.978C48.458,52.978 46.27,52.038 45.606,52.352C44.941,52.665 42.128,54.857 44.59,57.403L45.528,58.147C45.528,58.147 42.831,65.469 44.355,73.104C44.316,73.104 47.051,66.369 46.504,58.303Z" fill="#FF0000"/>
<path d="M41.425,37.002C41.19,37.002 41.073,37.002 40.917,37.081C40.761,37.159 40.37,37.355 40.292,37.394C40.214,37.433 40.135,37.511 40.096,37.433C40.057,37.316 39.979,37.316 40.057,37.159C40.135,37.002 40.057,37.081 40.253,36.689C40.448,36.337 41.503,34.261 39.706,33.518C39.706,33.518 38.299,33.322 37.713,34.379C37.674,34.418 37.791,35.397 37.908,35.514C37.986,35.632 38.455,35.789 38.455,35.789L38.885,35.71C38.885,35.71 39.119,35.632 39.119,35.514C39.08,35.397 39.159,35.319 39.119,35.201C39.119,35.123 39.002,35.005 39.002,34.888C39.002,34.771 39.119,34.614 39.119,34.614L39.354,34.614L39.627,34.849C39.627,34.849 39.706,35.201 39.706,35.24C39.706,35.319 39.745,35.554 39.745,35.554C39.745,35.554 39.745,35.789 39.706,35.984C39.627,36.141 38.807,37.707 39.041,38.099C39.276,38.49 39.51,38.608 39.706,38.569C39.901,38.569 40.487,38.49 40.643,38.412C40.8,38.373 41.464,37.942 41.464,37.942C41.464,37.942 41.855,37.511 41.816,37.394C41.776,37.277 41.816,37.159 41.698,37.042C41.542,37.002 41.659,37.002 41.425,37.002Z" fill="#FFEC00"/>
<path d="M35.915,34.653C35.876,34.653 35.525,34.771 35.72,36.024C35.915,37.237 37.205,39.626 37.517,39.508C37.869,39.391 37.908,38.882 37.517,37.59C37.127,36.258 36.619,34.379 35.915,34.653Z" fill="#FFEC00"/>
<path d="M48.263,33.008C48.224,33.008 47.872,33.126 48.067,34.379C48.263,35.593 49.552,37.981 49.865,37.864C50.216,37.746 50.255,37.237 49.865,35.945C49.513,34.614 49.005,32.734 48.263,33.008Z" fill="#FFEC00"/>
<path d="M27.749,41.623C27.71,41.623 27.358,41.74 27.554,42.993C27.749,44.207 29.039,46.596 29.351,46.478C29.703,46.361 29.742,45.852 29.351,44.559C28.96,43.228 28.453,41.349 27.749,41.623Z" fill="#FFEC00"/>
<path d="M30.055,40.801C30.015,40.801 29.664,40.918 29.859,42.171C30.055,43.385 31.344,45.773 31.657,45.656C32.008,45.538 32.047,45.029 31.657,43.737C31.266,42.406 30.758,40.526 30.055,40.801Z" fill="#FFEC00"/>
<path d="M23.451,51.803C23.412,51.803 23.06,51.921 23.256,53.174C23.451,54.388 24.741,56.776 25.053,56.659C25.366,56.541 25.444,56.032 25.053,54.74C24.702,53.409 24.194,51.529 23.451,51.803Z" fill="#FFEC00"/>
<path d="M26.421,50.511C26.421,50.511 25.249,50.903 25.561,52.704C25.874,54.505 27.124,55.68 28.101,55.484C29.039,55.249 28.843,52.861 28.374,51.882C27.905,50.903 26.89,50.394 26.421,50.511ZM27.671,53.409C27.358,53.487 27.124,53.33 27.046,53.056C27.007,52.939 27.007,52.821 26.968,52.704C26.968,52.665 26.968,52.626 26.929,52.586C26.929,52.665 26.89,52.508 26.929,52.586C26.929,52.586 26.929,52.586 26.968,52.626C26.694,52.195 27.319,51.686 27.632,52.117C27.71,52.234 27.749,52.391 27.788,52.547C27.788,52.586 27.827,52.665 27.827,52.704C27.866,52.743 27.905,52.782 27.905,52.861C27.984,53.096 27.866,53.37 27.671,53.409Z" fill="#FFEC00"/>
<path d="M25.366,61.749C25.327,61.749 23.92,61.788 23.803,63.354C23.686,64.921 24.741,65.312 25.053,65.312C25.366,65.351 26.108,64.881 26.225,64.803C26.343,64.686 26.538,64.529 26.538,64.529C26.538,64.529 26.733,64.647 26.733,64.764C26.733,64.881 26.811,65.077 26.811,65.234C26.811,65.351 26.772,65.586 26.733,65.625C26.733,65.704 26.616,65.821 26.577,65.86C26.499,65.899 26.421,65.978 26.421,65.978C26.421,65.978 26.108,66.017 25.913,66.017C25.717,66.017 25.6,66.017 25.444,66.095C25.288,66.213 25.249,66.213 25.249,66.409C25.249,66.604 25.366,66.957 25.366,66.957C25.366,66.957 26.03,67.505 26.733,67.192C27.437,66.878 28.023,65.86 27.71,64.607C27.398,63.394 26.421,61.827 25.366,61.749ZM25.366,63.668C25.053,63.55 24.975,63.198 25.053,62.924C25.131,62.728 25.405,62.61 25.6,62.728C25.678,62.767 25.717,62.806 25.756,62.884C25.874,62.924 25.952,63.041 25.991,63.198C26.03,63.511 25.717,63.824 25.366,63.668Z" fill="#FFEC00"/>
<path d="M34.001,72.556C33.649,72.478 33.415,72.399 33.415,72.321C33.415,72.243 33.532,71.89 33.532,71.89C33.532,71.89 33.532,71.616 33.532,71.342C33.532,71.068 33.298,69.854 31.852,70.285C30.406,70.677 30.562,71.616 30.641,71.773C30.68,71.812 31.07,72.791 31.266,72.908C31.461,73.026 31.657,73.183 31.696,73.222C31.735,73.3 31.774,73.417 31.774,73.496C31.774,73.613 31.735,73.731 31.696,73.926C31.657,74.083 31.696,74.436 31.696,74.436C31.696,74.436 32.008,75.728 33.415,75.649C34.821,75.571 35.368,74.201 35.134,73.652C34.9,73.104 34.353,72.634 34.001,72.556ZM32.555,71.577C32.36,71.695 32.164,71.46 32.243,71.303C32.243,71.107 32.555,70.99 32.633,71.225C32.672,71.381 32.672,71.499 32.555,71.577ZM33.415,74.357C33.259,74.279 33.18,74.161 33.18,74.044C33.141,74.005 33.141,73.966 33.141,73.926C33.18,73.378 34.079,73.496 34.001,74.005C33.962,74.24 33.649,74.475 33.415,74.357Z" fill="#FFEC00"/>
<path d="M44.863,77.451C44.863,77.451 44.746,77.176 44.707,76.824C44.668,76.511 44.668,76.472 44.668,76.198C44.668,75.923 44.824,74.396 44.59,74.044C44.394,73.692 44.277,73.692 44.16,73.692C44.043,73.692 43.886,73.692 43.691,73.731C43.535,73.809 41.347,74.553 41.229,75.062C41.229,75.101 41.386,75.61 41.464,75.688C41.581,75.767 41.933,75.767 41.933,75.767C41.933,75.767 42.402,75.688 42.48,75.649C42.558,75.61 43.027,75.454 43.027,75.454L43.3,75.336C43.3,75.336 43.339,75.493 43.418,75.649C43.496,75.806 43.652,75.923 43.613,76.119C43.574,76.276 43.808,78.86 43.808,78.899C43.808,78.938 44.004,79.526 44.004,79.526C44.004,79.526 44.316,79.682 44.355,79.643C44.433,79.604 44.746,79.487 44.746,79.487L45.02,79.095L45.098,78.625L45.02,77.96L44.863,77.451Z" fill="#FFEC00"/>
<path d="M56.429,76.002C56.312,75.806 56.312,75.806 56.194,75.649C56.077,75.493 56.624,75.571 55.921,75.375C55.179,75.179 54.905,75.258 54.788,75.258C54.671,75.258 54.28,75.375 54.124,75.532C53.967,75.688 53.928,75.728 53.811,75.884C53.655,76.002 53.498,75.963 53.459,75.179C53.42,74.396 53.577,74.905 53.772,74.592C53.811,74.514 54.553,74.396 54.632,74.396C54.749,74.396 54.983,74.24 55.022,74.161C55.061,74.083 55.179,73.887 55.14,73.77C55.1,73.692 54.983,73.417 54.983,73.417C54.983,73.417 54.632,73.261 54.553,73.261C54.436,73.261 54.045,73.378 54.045,73.378C54.045,73.378 53.42,73.535 53.303,73.652C53.186,73.77 52.99,73.966 52.873,74.122C52.756,74.318 52.639,74.514 52.6,74.592C52.6,74.71 52.561,74.945 52.561,75.179C52.561,75.414 52.756,77.137 53.381,77.92C54.006,78.703 55.139,78.782 55.296,78.743C55.452,78.703 55.687,78.547 55.804,78.547C55.921,78.547 56.312,78.155 56.312,78.155C56.312,78.155 56.585,77.725 56.624,77.607C56.624,77.49 56.702,77.372 56.702,77.255C56.702,77.098 56.742,76.863 56.742,76.863L56.702,76.354C56.624,76.393 56.546,76.198 56.429,76.002ZM55.179,77.333C54.671,77.529 54.045,76.393 54.632,76.237L54.671,76.237C54.71,76.198 54.71,76.158 54.749,76.158C55.1,76.08 55.335,76.276 55.374,76.589C55.452,76.863 55.452,77.255 55.179,77.333Z" fill="#FFEC00"/>
<path d="M64.087,68.484C63.501,68.68 63.345,68.993 63.189,68.954C63.032,68.914 62.876,68.836 62.876,68.719C62.876,68.601 62.954,68.21 62.954,68.21C62.954,68.21 63.149,68.092 63.384,67.975C63.618,67.857 63.97,67.779 64.048,67.622C64.165,67.505 64.244,67.387 64.244,67.192C64.244,66.996 64.244,66.878 64.244,66.8C64.204,66.722 64.204,66.604 64.048,66.604C63.892,66.565 63.657,66.604 63.501,66.643C63.345,66.683 63.071,66.722 62.876,66.761C62.72,66.8 62.29,66.878 62.173,67.035C62.055,67.192 61.899,67.544 61.899,67.544L61.899,68.092L62.134,68.993C62.134,68.993 62.329,69.541 62.368,69.619C62.446,69.698 62.759,70.089 62.759,70.089C62.759,70.089 63.306,69.854 63.423,69.815C63.54,69.776 63.814,69.737 63.814,69.737C63.814,69.737 64.087,69.698 64.165,69.776C64.283,69.854 64.361,70.011 64.4,70.089C64.439,70.167 64.478,70.246 64.478,70.363C64.517,70.481 64.478,70.52 64.517,70.677C64.556,70.833 64.517,70.951 64.478,71.029C64.4,71.107 64.361,71.186 64.322,71.186C64.283,71.186 64.009,71.146 63.892,71.107C63.775,71.068 63.775,70.99 63.54,71.029C63.54,71.029 63.11,71.303 63.071,71.381C63.032,71.46 62.915,71.616 62.954,71.695C62.993,71.773 63.071,71.929 63.071,72.008C63.071,72.086 63.149,72.164 63.228,72.243C63.306,72.282 63.892,72.634 64.634,72.164C65.416,71.695 66.08,70.99 65.767,70.011C65.494,68.993 64.673,68.288 64.087,68.484Z" fill="#FFEC00"/>
<path d="M68.893,58.499C68.854,58.382 68.151,55.797 67.565,55.876C66.979,55.954 66.588,56.62 66.471,57.442C66.471,57.559 66.158,59.517 66.158,59.595C66.158,59.674 66.353,60.222 66.393,60.222C66.432,60.261 67.096,60.144 67.291,60.065C67.487,60.026 67.838,59.987 67.877,59.987C67.916,60.026 68.542,60.888 68.581,60.927C68.659,60.966 69.01,61.005 69.01,61.005L69.323,60.535C69.323,60.535 69.323,59.752 69.284,59.556C69.323,59.36 68.932,58.617 68.893,58.499ZM67.643,58.734C67.174,58.969 67.252,58.147 67.252,57.912C67.252,57.912 67.252,57.912 67.252,57.873C67.252,57.873 67.252,57.873 67.252,57.833C67.174,57.559 67.604,57.52 67.643,57.794C67.643,57.716 67.643,57.833 67.643,57.833C67.643,57.873 67.682,57.912 67.682,57.951C67.721,58.029 67.721,58.147 67.76,58.225C67.799,58.421 67.799,58.656 67.643,58.734Z" fill="#FFEC00"/>
<path d="M68.424,47.065C68.151,46.948 67.838,46.948 67.838,46.831C67.799,46.713 67.721,46.752 67.838,46.478C67.995,46.204 68.034,45.93 67.995,45.812C67.956,45.695 67.135,44.52 66.197,45.029C65.22,45.538 65.455,46.439 65.494,46.674C65.533,46.909 65.767,47.105 65.885,47.144C66.002,47.183 66.119,47.222 66.197,47.183C66.275,47.144 66.393,47.026 66.393,47.026L66.51,46.713C66.51,46.713 66.549,46.517 66.549,46.4C66.549,46.282 66.666,46.008 66.822,46.439C67.018,46.909 66.901,47.065 66.901,47.3C66.901,47.535 67.565,47.849 67.682,47.888C67.799,47.927 67.995,48.162 67.995,48.162C67.995,48.162 68.112,48.436 68.151,48.553C68.19,48.671 68.19,48.906 68.19,48.984C68.19,49.062 68.229,49.219 67.877,49.219C67.838,49.219 67.174,49.219 67.096,49.18C67.018,49.141 66.861,49.062 66.744,49.102C66.627,49.141 66.471,49.297 66.471,49.415C66.471,49.532 66.471,49.885 66.471,49.885C66.471,49.885 66.705,50.276 66.744,50.315C66.783,50.355 66.94,50.472 67.057,50.511C67.174,50.511 67.838,50.472 67.838,50.472C67.838,50.472 68.815,49.885 68.854,49.806C68.893,49.767 69.167,49.532 69.206,49.297C69.245,49.062 69.284,48.906 69.284,48.71C69.284,48.475 69.323,48.201 69.245,48.005C69.167,47.809 68.698,47.144 68.424,47.065Z" fill="#FFEC00"/>
<path d="M61.196,40.135C61.118,40.135 61.04,40.135 60.844,40.252C60.649,40.37 60.297,40.526 60.297,40.526C60.297,40.526 59.945,40.761 59.985,40.605C59.985,40.487 59.985,40.213 60.063,40.017C60.141,39.822 60.493,39.352 60.532,39.156C60.571,38.999 60.922,37.277 59.828,36.728C58.734,36.18 57.679,36.807 57.562,37.668C57.445,38.53 58.226,38.804 58.461,38.804C58.734,38.804 59.086,38.608 59.086,38.608C59.086,38.608 59.086,38.177 59.008,38.06C58.93,37.942 58.734,37.825 58.812,37.746C58.851,37.668 59.125,37.668 59.203,37.668C59.242,37.668 59.477,37.746 59.516,38.02C59.516,38.099 59.828,38.53 59.164,40.096C58.5,41.662 59.516,41.74 59.555,41.74C59.594,41.779 60.883,41.349 60.922,41.31C60.961,41.27 61.469,40.957 61.469,40.957C61.469,40.957 61.665,40.644 61.665,40.566C61.665,40.487 61.547,40.213 61.547,40.213C61.547,40.213 61.274,40.174 61.196,40.135Z" fill="#FFEC00"/>
<g opacity="0.2">
<path d="M31.969,32.813C31.969,32.813 48.263,25.06 61.977,36.18C75.692,47.3 72.215,63.981 70.066,70.755C70.066,70.755 77.919,60.143 71.511,45.577C65.064,31.011 50.138,23.768 31.969,32.813Z" fill="#4C1900"/>
</g>
<g opacity="0.4">
<path d="M19.075,33.909C19.036,33.948 18.88,34.144 18.645,34.535C19.114,33.909 19.309,33.713 19.075,33.909Z" fill="#4C1900"/>
</g>
<g opacity="0.4">
<path d="M56.937,88.179C49.435,91.351 25.678,91.586 16.574,71.577C8.408,53.644 16.652,37.746 18.645,34.457C16.105,37.668 5.438,52.195 14.582,71.029C25.366,93.191 48.302,91.781 48.302,91.781C76.317,88.532 79.873,66.526 79.873,66.526C73.426,80.426 64.4,85.047 56.937,88.179Z" fill="#4C1900"/>
</g>
<g opacity="0.25">
<path d="M52.951,11.277C52.912,11.238 52.873,11.238 52.795,11.199C51.154,10.259 50.607,7.4 50.451,7.596C50.138,8.066 49.513,10.925 49.513,10.925C49.513,10.925 54.71,12.138 52.951,11.277Z" fill="#4C1900"/>
</g>
<g opacity="0.25">
<path d="M12.55,25.921C11.26,26.313 9.307,23.924 9.15,24.042C6.532,25.53 10.557,28.506 10.557,28.506C10.557,28.506 13.839,25.569 12.55,25.921Z" fill="#4C1900"/>
</g>
<g opacity="0.25">
<path d="M30.797,19.578C30.094,20.596 30.172,22.241 30.172,22.241C30.172,22.241 30.797,22.632 30.992,22.828C31.188,23.024 31.422,23.141 31.539,23.18C31.657,23.219 32.36,23.376 32.633,23.337C32.907,23.298 33.298,22.985 33.493,22.789C33.727,22.593 34.196,21.497 34.196,21.497C34.196,21.497 33.884,21.692 32.165,21.732C30.445,21.771 30.953,19.343 30.797,19.578Z" fill="#4C1900"/>
</g>
<g opacity="0.25">
<path d="M48.927,10.729C48.497,10.533 44.433,9.162 42.48,6.656C40.526,4.151 41.698,0.431 31.93,3.015C22.162,5.638 12.94,11.238 12.628,12.021C12.276,12.843 12.237,15.858 13.136,18.521C14.035,21.183 14.308,23.689 13.019,25.491C13.019,25.491 15.246,24.081 15.519,23.689C15.793,23.259 16.652,22.593 16.848,22.123C17.082,21.653 16.457,19.186 16.34,18.756C16.223,18.325 15.324,15.467 15.48,14.723C15.676,13.939 15.832,13.196 16.066,12.687C16.301,12.177 16.027,12.295 16.809,11.59C17.59,10.846 26.421,5.286 33.18,3.524C39.94,1.801 40.722,5.051 40.722,5.051C40.722,5.051 43.261,10.807 44.785,11.003C46.309,11.199 51.076,11.786 48.927,10.729Z" fill="#4C1900"/>
</g>
<g opacity="0.3">
<path d="M37.557,15.819C36.033,18.716 37.088,20.361 37.088,20.361C38.299,17.855 43.73,18.403 43.73,18.403C43.73,18.403 43.261,17.346 45.215,14.566C47.169,11.747 51.701,11.355 51.701,11.355C42.128,10.415 39.08,12.921 37.557,15.819Z" fill="#8C4200"/>
</g>
<g opacity="0.4">
<path d="M77.724,79.878C75.809,78.116 77.45,74.553 77.528,74.357C78.036,73.143 74.051,77.999 73.816,78.938C73.582,79.878 75.497,82.893 78.271,82.697C81.045,82.502 82.569,79.8 82.569,79.8C82.569,79.8 79.638,81.64 77.724,79.878Z" fill="#B56B00"/>
</g>
<g opacity="0.4">
<path d="M37.83,90.607C37.049,90.411 35.72,90.528 35.72,90.528C35.72,90.528 33.688,92.095 33.806,94.483C33.806,94.483 38.143,92.173 39.549,94.718C40.956,97.263 39.393,98.673 39.393,98.673C39.393,98.673 43.3,97.185 42.48,93.7C41.698,90.254 38.612,90.803 37.83,90.607Z" fill="#B56B00"/>
</g>
<g opacity="0.3">
<path d="M10.088,29.132C7.587,34.849 7.119,36.258 7.08,36.611C6.415,42.68 10.713,44.638 10.948,44.364C11.221,44.09 11.807,40.683 11.807,40.683L14.542,35.123C10.01,33.008 10.244,28.819 10.088,29.132Z" fill="#8C4200"/>
</g>
<g opacity="0.4">
<path d="M50.763,18.599C36.853,17.15 37.635,20.322 37.127,20.4C37.127,20.909 38.846,21.575 38.846,21.575C38.846,21.575 36.892,22.045 45.215,20.909C53.537,19.774 58.617,24.12 61.626,24.198C64.634,24.277 64.634,20.048 50.763,18.599Z" fill="#4C1900"/>
</g>
<g opacity="0.4">
<path d="M64.595,40.526C62.173,42.993 59.75,45.382 57.093,47.574C54.475,49.767 51.271,51.294 48.732,53.526C48.653,53.604 48.653,53.722 48.732,53.761C48.224,54.583 47.989,55.719 47.09,56.228C45.684,57.05 44.394,55.954 43.965,54.623C43.926,54.544 43.847,54.544 43.808,54.623C43.535,56.267 45.059,57.716 46.661,57.598C48.732,57.442 49.279,55.523 49.161,53.761C52.209,52.821 55.022,50.394 57.445,48.397C60.18,46.165 62.72,43.502 64.712,40.566C64.751,40.566 64.634,40.487 64.595,40.526Z" fill="#4C1900"/>
<path d="M45.488,58.029C43.496,62.493 43.652,68.405 44.473,73.065C44.512,73.261 44.785,73.182 44.785,73.026C44.902,70.52 44.863,68.014 44.941,65.508C45.02,63.002 45.606,60.613 45.957,58.147C45.996,57.912 45.606,57.794 45.488,58.029Z" fill="#4C1900"/>
</g>
<path d="M38.729,98.79C35.681,98.399 34.196,92.565 34.509,92.251L34.196,92.525C32.711,100.161 41.816,99.221 38.729,98.79Z" fill="#FFF9CC"/>
<path d="M78.31,76.158C78.154,76.197 80.537,77.098 80.615,78.586C80.693,80.074 81.553,77.45 81.553,77.45C81.553,77.45 80.771,75.571 78.31,76.158Z" fill="#FFF9CC"/>
<path d="M34.353,80.622C9.971,70.285 20.99,44.207 24.233,39.939C24.233,39.939 14.464,48.123 18.997,65.939C23.529,83.715 45.293,86.809 51.506,85.282C57.718,83.754 66.432,78.038 69.558,71.577C69.558,71.577 58.695,90.959 34.353,80.622Z" fill="#FFFFFD"/>
<path d="M18.02,71.655C25.366,86.77 40.956,87.592 40.956,87.592C25.249,84.851 18.02,71.655 18.02,71.655Z" fill="#FFF9CC"/>
<path d="M20.443,32.891C20.325,33.048 20.169,33.165 20.052,33.322C20.169,33.204 20.286,33.048 20.443,32.891Z" fill="#FFF9CC"/>
<path d="M46.543,22.162C46.426,22.436 54.28,21.967 64.478,28.349C75.457,35.24 80.146,47.966 79.755,58.851C79.599,63.472 77.528,68.366 75.77,72.36C77.958,68.053 80.263,62.689 80.498,57.559C80.732,52.116 79.951,49.023 79.208,46.282C72.722,22.671 46.543,22.162 46.543,22.162Z" fill="#FFF9CC"/>
<path d="M47.403,26.391C47.403,26.391 63.657,26.313 73.152,43.267C82.647,60.261 69.167,79.252 61.157,83.559C61.157,83.559 76.825,77.333 77.06,54.623C77.216,33.126 53.537,24.081 47.403,26.391Z" fill="#FFFCEB"/>
<path d="M32.633,19.5C30.328,18.952 30.211,20.753 30.211,20.753C30.367,20.557 31.149,19.891 32.204,20.4C33.298,20.909 33.923,21.692 33.766,22.397C33.571,23.102 34.939,20.009 32.633,19.5Z" fill="#FFF9CC"/>
<path d="M50.099,17.699C40.721,16.171 37.088,19.735 37.088,19.735C41.268,17.385 46.778,18.168 53.03,19.108C59.281,20.048 63.501,22.828 63.501,22.828C63.501,22.828 64.087,22.319 64.087,22.045C64.048,21.732 59.437,19.226 50.099,17.699Z" fill="#FFF9CC"/>
<path d="M53.303,11.825C52.873,11.747 57.171,12.843 58.187,16.524C59.203,20.204 58.148,20.322 58.148,20.322L62.759,22.201C62.837,22.241 64.673,13.587 53.303,11.825Z" fill="#FFF9CC"/>
<path d="M24.936,24.081C22.123,26.078 19.622,27.331 14.855,34.144C10.088,40.957 10.518,43.502 10.831,43.894C11.182,44.285 10.088,43.111 13.292,37.864C16.535,32.617 22.865,24.747 27.632,23.689C27.671,23.65 27.749,22.084 24.936,24.081Z" fill="#FFF9CC"/>
<path d="M52.248,7.126C50.841,6.422 50.49,7.596 50.49,7.596C50.802,7.557 52.912,7.596 53.108,10.494C53.069,10.455 53.655,7.831 52.248,7.126Z" fill="#FFF9CC"/>
<path d="M18.254,6.735C18.333,6.696 18.45,6.656 18.606,6.578C18.333,6.696 18.215,6.774 18.254,6.735Z" fill="#FFF9CC"/>
<path d="M33.18,0.666C25.639,2.467 20.091,5.756 18.606,6.578C20.677,5.638 31.422,0.979 36.462,1.527C42.128,2.114 41.698,2.506 42.675,4.699C43.691,6.931 46.231,9.437 47.09,9.985C47.09,9.985 44.511,6.617 44.043,5.051C43.574,3.446 41.464,-1.331 33.18,0.666Z" fill="#FFF9CC"/>
<path d="M11.729,24.942C11.729,24.942 9.541,22.945 8.486,24.786C8.486,24.786 10.244,24.198 11.729,25.216C13.175,26.235 11.729,24.942 11.729,24.942Z" fill="#FFF9CC"/>
<path d="M18.137,22.123C18.137,22.123 17.629,22.476 16.848,23.063C16.848,23.063 21.615,24.747 22.552,26.744L26.421,24.12C26.421,24.159 22.513,20.635 18.137,22.123Z" fill="#FFF9CC"/>
<path d="M49.161,52.665C54.202,48.514 59.086,44.285 64.634,40.801C64.712,40.761 64.634,40.644 64.556,40.683C59.008,43.972 53.498,47.809 49.122,52.626C49.083,52.665 49.122,52.704 49.161,52.665Z" fill="#FFF9CC"/>
<path d="M45.527,53.37C45.918,53.644 46.426,53.526 46.895,53.683C47.286,53.8 47.481,54.192 47.872,54.309C47.989,54.348 48.106,54.27 48.145,54.153C48.341,53.644 47.755,53.213 47.325,53.056C46.817,52.821 46.035,52.704 45.567,53.056C45.41,53.174 45.41,53.291 45.527,53.37Z" fill="#FFF9CC"/>
<path d="M46.426,59.243C45.996,61.357 45.957,63.511 45.684,65.625C45.371,68.131 44.824,70.598 44.473,73.104C44.473,73.222 44.629,73.3 44.668,73.143C45.801,68.523 46.114,63.942 46.504,59.243C46.504,59.204 46.426,59.204 46.426,59.243Z" fill="#FFF9CC"/>
<path d="M37.127,36.063C36.97,35.632 36.775,34.81 36.267,34.614C35.876,34.457 35.525,34.653 35.486,35.045C35.486,35.201 35.486,35.397 35.525,35.593C35.564,36.102 35.759,36.65 35.876,36.963C36.072,37.551 36.345,38.099 36.619,38.608C36.697,38.725 36.775,38.882 36.853,38.999C37.049,39.391 37.283,39.782 37.674,39.704C38.143,39.587 38.065,39.038 37.986,38.686C37.752,37.746 37.439,36.885 37.127,36.063ZM37.635,39.234C37.4,39.313 37.127,38.999 37.01,38.764C36.892,38.529 36.775,38.295 36.658,38.06C36.502,37.786 36.384,37.472 36.228,37.159C36.15,36.963 36.072,36.767 36.033,36.533C35.915,36.18 35.564,35.397 35.72,34.927C35.759,34.849 35.759,34.81 35.798,34.771C36.072,34.418 36.541,35.045 36.658,35.358C37.01,36.18 37.322,37.042 37.596,37.942C37.635,38.099 37.713,38.295 37.752,38.451C37.791,38.686 37.791,38.882 37.752,39.117C37.713,39.156 37.674,39.195 37.635,39.234Z" fill="#4C1900"/>
<path d="M41.269,36.807C40.956,36.807 40.721,37.002 40.487,37.159C40.448,37.198 40.37,37.276 40.292,37.276C40.214,37.316 40.174,37.276 40.135,37.276C40.174,37.042 40.37,36.572 40.409,36.572C40.565,36.298 40.682,36.063 40.761,35.749C40.878,35.319 40.956,34.81 40.721,34.379C40.565,34.027 40.292,33.752 39.979,33.557C39.667,33.322 39.237,33.204 38.807,33.322C38.377,33.439 38.065,33.674 37.83,33.987C37.4,34.418 37.361,35.24 37.791,35.671C38.065,35.906 38.612,35.984 38.885,35.749C39.002,35.71 39.119,35.632 39.159,35.514C39.237,35.358 39.276,35.162 39.237,35.005C39.198,34.927 39.159,34.849 39.08,34.81C39.08,34.81 39.041,34.81 39.002,34.77C39.237,34.692 39.432,34.77 39.471,34.966C39.51,35.045 39.549,35.123 39.549,35.24C39.588,35.436 39.588,35.632 39.549,35.828C39.471,36.18 39.276,36.454 39.119,36.807C38.924,37.237 38.729,37.707 38.807,38.177C38.846,38.49 39.041,38.804 39.354,38.843C39.51,38.882 39.667,38.843 39.823,38.764C40.018,38.764 40.174,38.686 40.37,38.647C40.761,38.49 41.269,38.334 41.581,38.02C41.855,37.785 41.894,37.511 41.816,37.316C41.855,37.002 41.62,36.807 41.269,36.807ZM41.073,37.942C40.917,38.02 40.721,38.099 40.565,38.216C40.37,38.334 40.135,38.412 39.901,38.49C39.667,38.49 39.432,38.49 39.315,38.334C39.08,38.06 39.276,37.394 39.393,37.081C39.588,36.532 39.862,35.984 39.862,35.397C39.862,35.084 39.706,34.496 39.315,34.457C39.198,34.457 39.119,34.457 39.041,34.536C38.924,34.575 38.807,34.653 38.807,34.81C38.807,35.005 39.002,35.084 39.002,35.28C39.002,35.397 38.924,35.436 38.885,35.514C38.768,35.593 38.572,35.593 38.494,35.593C38.221,35.593 38.065,35.436 37.986,35.201C37.908,35.045 37.869,34.888 37.869,34.692C37.908,34.575 37.908,34.457 37.986,34.34C38.143,33.987 38.533,33.792 38.885,33.674C39.276,33.517 39.706,33.596 40.057,33.792C40.331,33.987 40.526,34.222 40.643,34.536C40.917,35.201 40.604,35.984 40.292,36.611C40.214,36.767 39.979,37.198 40.057,37.433C40.057,37.551 40.096,37.629 40.214,37.707C40.409,37.785 40.643,37.59 40.839,37.511C40.995,37.394 41.19,37.276 41.425,37.237C41.581,37.237 41.698,37.276 41.776,37.355C41.659,37.511 41.308,37.825 41.073,37.942Z" fill="#4C1900"/>
<path d="M49.513,34.418C49.357,33.948 49.2,33.165 48.692,32.93C48.302,32.734 47.95,32.93 47.911,33.361C47.872,33.517 47.911,33.713 47.911,33.909C47.95,34.418 48.145,35.005 48.224,35.279C48.419,35.867 48.653,36.415 48.927,36.963C49.005,37.081 49.083,37.237 49.122,37.355C49.318,37.746 49.552,38.177 49.904,38.099C50.373,37.981 50.333,37.433 50.255,37.081C50.099,36.141 49.786,35.279 49.513,34.418ZM50.06,37.511C50.021,37.551 49.982,37.59 49.943,37.629C49.708,37.707 49.435,37.394 49.318,37.159C49.2,36.924 49.083,36.689 49.005,36.454C48.888,36.141 48.731,35.867 48.614,35.554C48.536,35.358 48.497,35.162 48.419,34.927C48.302,34.575 47.989,33.792 48.145,33.322C48.184,33.243 48.184,33.204 48.224,33.165C48.536,32.813 48.927,33.439 49.044,33.752C49.396,34.614 49.669,35.475 49.904,36.337C49.943,36.493 49.982,36.689 50.021,36.846C50.06,37.081 50.06,37.316 50.06,37.511Z" fill="#4C1900"/>
<path d="M28.96,43.032C28.804,42.602 28.609,41.779 28.14,41.584C27.749,41.427 27.398,41.623 27.358,42.014C27.358,42.171 27.358,42.367 27.398,42.563C27.437,43.072 27.632,43.62 27.749,43.933C27.945,44.52 28.179,45.068 28.492,45.578C28.57,45.695 28.648,45.852 28.726,45.969C28.921,46.361 29.156,46.752 29.547,46.674C30.015,46.556 29.937,46.008 29.859,45.656C29.586,44.755 29.273,43.894 28.96,43.032ZM29.468,46.204C29.234,46.282 28.96,45.969 28.843,45.734C28.726,45.499 28.609,45.264 28.492,45.029C28.335,44.716 28.218,44.442 28.101,44.129C28.023,43.933 27.945,43.737 27.905,43.502C27.788,43.15 27.476,42.367 27.593,41.897C27.632,41.819 27.632,41.779 27.671,41.74C27.945,41.388 28.413,42.014 28.531,42.328C28.882,43.15 29.195,44.011 29.429,44.912C29.468,45.068 29.547,45.264 29.586,45.421C29.625,45.656 29.625,45.852 29.586,46.087C29.547,46.165 29.507,46.204 29.468,46.204Z" fill="#4C1900"/>
<path d="M31.266,42.249C31.109,41.819 30.914,40.996 30.445,40.801C30.055,40.644 29.703,40.84 29.664,41.231C29.664,41.388 29.664,41.584 29.703,41.779C29.742,42.288 29.937,42.837 30.055,43.15C30.25,43.737 30.484,44.285 30.797,44.794C30.875,44.912 30.953,45.069 31.031,45.186C31.227,45.578 31.461,45.969 31.852,45.891C32.321,45.773 32.243,45.225 32.164,44.873C31.891,43.933 31.578,43.072 31.266,42.249ZM31.774,45.421C31.539,45.499 31.266,45.186 31.149,44.951C31.031,44.716 30.914,44.481 30.797,44.246C30.641,43.933 30.523,43.659 30.406,43.346C30.328,43.15 30.25,42.954 30.211,42.719C30.094,42.367 29.781,41.584 29.898,41.114C29.937,41.035 29.937,40.996 29.976,40.957C30.25,40.605 30.719,41.231 30.836,41.544C31.188,42.367 31.5,43.228 31.735,44.129C31.774,44.285 31.852,44.481 31.891,44.638C31.93,44.873 31.93,45.069 31.891,45.303C31.852,45.343 31.813,45.382 31.774,45.421Z" fill="#4C1900"/>
<path d="M24.701,53.252C24.545,52.821 24.35,51.999 23.842,51.803C23.451,51.647 23.099,51.842 23.06,52.234C23.06,52.391 23.06,52.586 23.099,52.782C23.139,53.291 23.334,53.839 23.451,54.153C23.647,54.74 23.92,55.288 24.194,55.797C24.272,55.915 24.35,56.071 24.428,56.189C24.623,56.58 24.858,56.972 25.249,56.894C25.717,56.776 25.639,56.228 25.561,55.876C25.366,54.936 25.014,54.074 24.701,53.252ZM25.249,56.424C25.014,56.502 24.741,56.189 24.623,55.954C24.506,55.719 24.389,55.484 24.272,55.249C24.115,54.975 23.998,54.662 23.842,54.348C23.764,54.153 23.686,53.957 23.647,53.722C23.529,53.37 23.178,52.586 23.334,52.117C23.373,52.038 23.373,51.999 23.412,51.96C23.686,51.608 24.154,52.234 24.272,52.547C24.623,53.37 24.936,54.231 25.209,55.132C25.249,55.288 25.327,55.484 25.366,55.641C25.405,55.876 25.405,56.071 25.366,56.306C25.288,56.345 25.288,56.385 25.249,56.424Z" fill="#4C1900"/>
<path d="M61.157,39.978C60.844,39.978 60.61,40.174 60.375,40.331C60.336,40.37 60.258,40.448 60.18,40.448C60.102,40.487 60.063,40.448 60.024,40.448C60.063,40.213 60.258,39.743 60.297,39.743C60.453,39.469 60.571,39.234 60.649,38.921C60.766,38.49 60.844,37.981 60.61,37.551C60.453,37.198 60.18,36.924 59.867,36.728C59.555,36.493 59.125,36.376 58.695,36.493C58.265,36.611 57.953,36.846 57.718,37.159C57.289,37.59 57.249,38.412 57.679,38.843C57.953,39.078 58.5,39.156 58.773,38.921C58.891,38.882 59.008,38.804 59.047,38.686C59.125,38.529 59.164,38.334 59.125,38.177C59.086,38.099 59.047,38.02 58.969,37.981C58.969,37.981 58.93,37.981 58.891,37.942C59.125,37.864 59.32,37.942 59.359,38.138C59.398,38.216 59.438,38.295 59.438,38.412C59.477,38.608 59.477,38.804 59.438,38.999C59.359,39.352 59.164,39.626 59.008,39.978C58.812,40.409 58.617,40.879 58.695,41.349C58.734,41.662 58.93,41.975 59.242,42.014C59.398,42.053 59.555,42.014 59.711,41.936C59.906,41.936 60.063,41.858 60.258,41.819C60.649,41.662 61.157,41.505 61.469,41.192C61.743,40.957 61.782,40.683 61.704,40.487C61.743,40.174 61.508,39.978 61.157,39.978ZM60.961,41.114C60.805,41.192 60.61,41.27 60.453,41.388C60.258,41.505 60.024,41.584 59.789,41.662C59.555,41.662 59.32,41.662 59.203,41.505C58.969,41.231 59.164,40.566 59.281,40.252C59.477,39.704 59.75,39.156 59.75,38.569C59.75,38.255 59.594,37.668 59.203,37.629C59.086,37.629 59.008,37.629 58.93,37.707C58.812,37.746 58.695,37.825 58.695,37.981C58.695,38.177 58.891,38.255 58.891,38.451C58.891,38.569 58.812,38.608 58.773,38.686C58.656,38.764 58.461,38.764 58.383,38.764C58.109,38.764 57.953,38.608 57.875,38.373C57.796,38.216 57.757,38.06 57.757,37.864C57.796,37.746 57.796,37.629 57.875,37.511C58.031,37.159 58.422,36.963 58.773,36.846C59.164,36.689 59.594,36.767 59.945,36.963C60.219,37.159 60.414,37.394 60.532,37.707C60.805,38.373 60.493,39.156 60.18,39.782C60.102,39.939 59.867,40.37 59.945,40.605C59.945,40.722 59.985,40.801 60.102,40.879C60.297,40.957 60.532,40.761 60.727,40.683C60.883,40.566 61.079,40.448 61.313,40.409C61.469,40.409 61.587,40.448 61.665,40.526C61.547,40.683 61.157,40.996 60.961,41.114Z" fill="#4C1900"/>
<path d="M27.749,50.864C27.358,50.511 26.733,50.198 26.186,50.433C25.952,50.55 25.756,50.746 25.639,50.981C25.249,51.568 25.366,52.508 25.522,53.135C25.796,54.153 26.499,55.523 27.749,55.562C28.765,55.562 29.039,54.388 29,53.604C28.921,52.626 28.531,51.529 27.749,50.864ZM28.726,54.27C28.648,54.818 28.257,55.406 27.632,55.288C26.968,55.171 26.499,54.662 26.186,54.074C25.835,53.448 25.444,52.273 25.639,51.451C25.835,50.903 26.225,50.433 26.929,50.668C27.515,50.864 27.984,51.373 28.257,51.921C28.57,52.626 28.804,53.487 28.726,54.27Z" fill="#4C1900"/>
<path d="M27.28,51.921C26.929,51.842 26.811,52.234 26.851,52.547C26.851,52.861 26.968,53.174 27.202,53.409C27.515,53.8 27.984,53.644 28.023,53.135C28.062,52.704 27.788,52.038 27.28,51.921ZM27.827,53.095C27.866,53.37 27.71,53.448 27.358,53.33C27.28,53.291 27.241,53.135 27.163,53.056C27.085,52.9 27.007,52.743 26.968,52.586C26.968,52.312 26.968,51.999 27.28,52.077C27.593,52.156 27.71,52.665 27.749,52.9C27.788,52.978 27.827,53.017 27.827,53.095Z" fill="#4C1900"/>
<path d="M25.483,62.61C25.249,62.571 25.092,62.728 25.014,62.884C24.936,63.041 24.897,63.315 24.975,63.472C25.131,63.902 25.717,63.981 25.991,63.589C26.186,63.315 25.835,62.649 25.483,62.61ZM25.835,63.472C25.756,63.589 25.6,63.668 25.444,63.668C25.288,63.668 25.17,63.55 25.131,63.433C25.092,63.315 25.053,63.119 25.131,63.002C25.17,62.924 25.249,62.845 25.366,62.806C25.678,62.689 25.991,63.198 25.835,63.472Z" fill="#4C1900"/>
<path d="M26.772,62.532C26.538,62.219 26.225,61.945 25.874,61.827C25.444,61.553 24.819,61.671 24.389,61.906C23.725,62.336 23.49,63.119 23.647,63.902C23.764,64.568 24.115,65.351 24.897,65.469C25.209,65.508 25.6,65.469 25.913,65.312C26.069,65.234 26.186,65.116 26.304,64.999C26.343,64.96 26.421,64.803 26.538,64.686C26.733,64.764 26.772,65.351 26.772,65.469C26.655,65.978 26.421,65.939 25.991,65.939C25.796,65.939 25.6,65.86 25.405,65.978C25.053,66.174 25.014,66.643 25.17,66.957C25.522,67.701 26.264,67.622 26.851,67.27C27.163,67.113 27.437,66.917 27.632,66.604C28.023,66.056 28.023,65.351 27.866,64.725C27.671,63.902 27.28,63.159 26.772,62.532ZM27.515,66.252C27.358,66.604 27.124,66.839 26.811,66.996C26.733,67.035 26.616,67.074 26.499,67.113C26.186,67.192 25.874,67.27 25.6,67.035C25.249,66.722 25.288,66.291 25.756,66.174C25.952,66.134 26.147,66.252 26.343,66.213C26.538,66.174 26.655,66.056 26.772,65.86C26.929,65.547 26.968,64.881 26.694,64.607C26.655,64.568 26.616,64.568 26.616,64.529C26.577,64.49 26.538,64.49 26.46,64.49C26.421,64.49 26.382,64.568 26.343,64.568C26.147,64.725 26.069,64.921 25.796,64.999C25.366,65.155 24.936,65.234 24.545,64.96C23.998,64.568 23.764,63.472 23.959,62.845C24.194,62.101 24.897,61.866 25.561,61.945C26.577,62.219 27.241,63.589 27.515,64.49C27.71,65.038 27.788,65.704 27.515,66.252Z" fill="#4C1900"/>
<path d="M32.164,71.107C32.086,71.264 32.086,71.616 32.282,71.655C32.321,71.695 32.36,71.695 32.399,71.695C32.672,71.773 32.829,71.42 32.712,71.186C32.672,71.029 32.321,70.911 32.164,71.107ZM32.36,71.538C32.321,71.499 32.321,71.46 32.321,71.381C32.321,71.186 32.555,71.146 32.594,71.381C32.633,71.499 32.477,71.616 32.36,71.538Z" fill="#4C1900"/>
<path d="M33.259,73.457C33.141,73.496 33.102,73.613 33.063,73.731C33.024,73.848 32.985,73.926 33.024,74.044C33.024,74.083 33.024,74.122 33.063,74.122C33.063,74.122 33.063,74.161 33.102,74.161L33.102,74.2C33.141,74.279 33.219,74.357 33.298,74.435C33.649,74.67 34.001,74.357 34.04,73.966C34.04,73.613 33.649,73.261 33.259,73.457ZM33.884,74.083C33.806,74.318 33.532,74.435 33.337,74.24C33.259,74.044 33.18,73.887 33.298,73.691C33.376,73.535 33.61,73.496 33.766,73.574C33.884,73.731 33.923,73.926 33.884,74.083Z" fill="#4C1900"/>
<path d="M34.274,72.556C34.157,72.478 33.962,72.478 33.845,72.438C33.727,72.399 33.688,72.36 33.649,72.321C33.649,72.047 33.766,71.616 33.727,71.381C33.688,71.068 33.532,70.755 33.298,70.559C32.946,70.207 32.477,70.128 32.047,70.207C31.657,70.246 31.227,70.442 30.953,70.716C30.523,71.146 30.484,71.695 30.68,72.243C30.797,72.595 30.992,72.947 31.305,73.104C31.383,73.143 31.461,73.143 31.5,73.182C31.813,73.378 31.696,73.535 31.617,73.809C31.422,74.396 31.617,74.984 32.047,75.414C33.024,76.432 34.743,75.649 35.251,74.514C35.486,74.005 35.29,73.378 34.939,72.987C34.704,72.83 34.509,72.634 34.274,72.556ZM34.548,75.062C34.001,75.532 33.18,75.728 32.516,75.414C32.204,75.258 32.008,74.984 31.891,74.67C31.735,74.24 31.774,73.966 31.969,73.535C32.047,73.3 32.047,73.104 31.852,72.987C31.539,72.791 31.305,72.791 31.11,72.438C30.914,72.125 30.758,71.616 30.875,71.264C31.07,70.637 31.696,70.442 32.282,70.363C32.399,70.363 32.477,70.363 32.594,70.363L32.633,70.363C33.259,70.559 33.688,71.107 33.532,71.89C33.532,71.969 33.493,72.047 33.493,72.125C33.415,72.243 33.376,72.36 33.532,72.517C33.61,72.595 33.766,72.595 33.884,72.634C34.196,72.713 34.47,72.83 34.704,73.065C34.939,73.3 35.134,73.652 35.173,73.966C35.173,74.396 34.861,74.788 34.548,75.062Z" fill="#4C1900"/>
<path d="M44.941,76.981C44.863,76.432 44.863,75.884 44.902,75.336C44.941,74.788 45.059,74.044 44.512,73.692C43.965,73.339 42.988,73.848 42.48,74.083C41.933,74.318 40.917,74.67 41.034,75.414C41.112,75.923 41.581,76.041 41.972,75.923C42.167,75.884 42.363,75.845 42.519,75.767C42.675,75.688 42.792,75.571 42.949,75.532C43.378,75.414 43.378,75.845 43.418,76.158C43.496,77.098 43.496,78.077 43.691,78.978C43.808,79.447 44.199,80.035 44.746,79.722C45.254,79.408 45.293,78.664 45.215,78.155C45.137,77.764 45.02,77.372 44.941,76.981ZM44.863,79.056C44.785,79.408 44.043,79.682 43.925,78.782C43.847,78.469 43.847,78.116 43.808,77.803C43.769,77.137 43.769,76.393 43.652,75.767C43.613,75.493 43.457,75.219 43.144,75.258C42.988,75.258 42.871,75.375 42.714,75.454C42.284,75.688 41.542,75.923 41.347,75.414C41.347,75.297 41.425,75.14 41.581,74.945C41.816,74.67 42.363,74.514 42.675,74.396C42.988,74.279 43.261,74.161 43.574,74.083C43.886,74.005 44.277,73.809 44.512,74.279C44.59,74.435 44.59,74.67 44.59,74.866C44.59,75.493 44.473,76.119 44.551,76.746C44.59,77.372 44.863,77.96 44.902,78.625C44.941,78.664 44.941,78.899 44.863,79.056Z" fill="#4C1900"/>
<path d="M55.804,75.219C55.452,75.023 55.022,74.944 54.632,75.062C54.124,75.179 53.928,75.532 53.655,75.923C53.616,75.845 53.577,75.806 53.537,75.728C53.459,75.336 53.42,74.788 53.889,74.67C54.163,74.592 54.358,74.749 54.632,74.631C54.71,74.592 54.788,74.514 54.866,74.475C55.179,74.279 55.374,73.887 55.061,73.457C54.592,72.83 53.459,73.3 53.03,73.731C52.365,74.396 52.326,75.375 52.522,76.237C52.639,76.863 52.873,77.49 53.264,77.999C53.537,78.625 54.28,79.056 54.944,79.017C55.843,79.017 56.702,78.351 56.898,77.45C56.976,76.55 56.585,75.649 55.804,75.219ZM56.546,77.411C56.39,78.155 55.686,78.703 54.944,78.743C54.436,78.782 54.006,78.586 53.694,78.312C53.03,77.49 52.561,76.276 52.639,75.219C52.678,74.67 52.912,74.122 53.381,73.809C53.616,73.652 54.006,73.496 54.28,73.496C54.436,73.496 54.671,73.535 54.788,73.652C54.905,73.77 54.944,73.887 54.983,74.005C54.788,74.905 53.811,74.161 53.42,74.827C53.264,75.101 53.264,75.493 53.381,75.806C53.42,75.963 53.459,76.08 53.577,76.237C53.616,76.276 53.694,76.276 53.733,76.237C53.967,75.963 54.241,75.61 54.592,75.453C54.944,75.336 55.296,75.375 55.608,75.532C56.312,75.806 56.663,76.628 56.546,77.411Z" fill="#4C1900"/>
<path d="M54.358,76.354C54.28,76.628 54.358,76.902 54.553,77.098C54.671,77.333 54.905,77.49 55.179,77.411C55.608,77.294 55.608,76.628 55.413,76.315C55.179,76.041 54.475,75.963 54.358,76.354ZM55.139,77.255C55.022,77.294 54.944,77.294 54.866,77.255C54.749,77.098 54.632,76.941 54.592,76.785C54.514,76.589 54.514,76.432 54.749,76.354C54.905,76.315 55.139,76.315 55.257,76.432C55.413,76.628 55.413,77.098 55.139,77.255Z" fill="#4C1900"/>
<path d="M64.517,68.366C64.361,68.327 64.204,68.288 64.048,68.327C63.814,68.366 63.618,68.484 63.462,68.64C63.384,68.719 63.345,68.758 63.267,68.836C63.189,68.836 63.11,68.797 63.071,68.758C63.032,68.68 63.032,68.64 62.993,68.562C62.993,68.288 63.071,68.171 63.306,68.171C63.462,68.092 63.697,68.053 63.853,67.975C64.087,67.857 64.322,67.661 64.4,67.387C64.595,66.878 64.244,66.409 63.697,66.369C63.149,66.33 62.212,66.722 61.86,67.113C61.665,67.348 61.743,67.622 61.782,67.936C61.782,67.975 61.821,68.053 61.821,68.092C61.86,68.797 62.055,69.58 62.485,70.011C62.642,70.167 62.837,70.246 63.071,70.128C63.345,70.011 63.384,69.854 63.697,69.815C63.97,69.776 64.087,69.815 64.283,70.011C64.478,70.285 64.517,70.716 64.322,70.99C64.087,71.029 63.736,70.755 63.579,70.716C63.423,70.676 63.267,70.755 63.149,70.833C62.876,71.029 62.759,71.381 62.837,71.695C63.11,72.713 64.322,72.517 64.947,72.047C65.846,71.381 66.197,70.481 65.728,69.424C65.533,68.954 65.064,68.445 64.517,68.366ZM65.416,71.342C65.142,71.734 64.712,72.047 64.283,72.204C63.814,72.321 63.149,72.164 63.11,71.616C63.071,71.107 63.618,71.107 63.97,71.186C64.048,71.186 64.087,71.264 64.165,71.264C64.361,71.264 64.517,71.186 64.595,71.029C64.986,70.637 64.634,69.737 64.087,69.541C63.931,69.502 63.775,69.463 63.618,69.502C63.267,69.58 63.071,70.128 62.642,69.698C62.407,69.463 62.29,68.954 62.212,68.64C62.134,68.445 62.095,68.21 62.055,68.014C62.055,67.661 62.134,67.348 62.368,67.152C62.602,66.996 62.915,66.878 63.189,66.761C63.579,66.604 64.478,66.565 64.126,67.348C63.97,67.701 63.579,67.818 63.228,67.936C63.071,67.975 62.876,68.014 62.798,68.171C62.798,68.21 62.798,68.21 62.759,68.249L62.759,68.288C62.759,68.327 62.759,68.366 62.759,68.405C62.798,68.719 62.954,69.228 63.306,69.071C63.384,69.032 63.462,68.914 63.54,68.836C63.697,68.68 63.931,68.523 64.165,68.523C64.908,68.562 65.455,69.189 65.689,69.893C65.846,70.442 65.767,70.872 65.416,71.342Z" fill="#4C1900"/>
<path d="M68.62,57.363C68.424,56.854 68.268,55.836 67.682,55.641C67.487,55.562 67.252,55.641 67.135,55.758C67.096,55.797 67.057,55.797 67.057,55.836C66.627,56.228 66.51,56.972 66.393,57.481C66.275,57.99 65.533,60.535 66.744,60.418C67.057,60.378 67.369,60.104 67.721,60.144C68.073,60.183 68.151,60.692 68.385,60.966C68.62,61.24 69.089,61.357 69.401,61.122C69.792,60.809 69.636,60.104 69.518,59.713C69.206,58.891 68.893,58.147 68.62,57.363ZM69.245,60.457C69.167,60.966 68.659,60.927 68.424,60.613C68.346,60.496 68.268,60.339 68.229,60.183C68.19,60.065 68.151,59.948 68.034,59.869C67.838,59.713 67.565,59.83 67.369,59.869C67.174,59.909 66.979,60.065 66.783,60.065C66.275,60.104 66.314,59.439 66.353,59.086C66.393,58.616 66.51,58.107 66.588,57.638C66.627,57.403 66.705,57.168 66.744,56.972C66.744,56.933 66.783,56.894 66.783,56.815C66.822,56.737 66.861,56.619 66.901,56.541C67.096,56.11 67.487,55.954 67.838,56.071C67.916,56.189 67.995,56.345 68.034,56.502C68.112,56.737 68.19,56.972 68.268,57.207C68.463,57.716 68.62,58.225 68.815,58.773C69.01,59.321 69.323,59.948 69.245,60.457Z" fill="#4C1900"/>
<path d="M67.252,57.598C66.94,57.833 67.018,58.538 67.174,58.851C67.174,58.891 67.213,58.891 67.252,58.891C67.291,58.93 67.369,58.969 67.448,58.969C67.604,58.969 67.76,58.812 67.838,58.695C67.955,58.538 67.877,58.303 67.838,58.107C67.838,57.873 67.604,57.324 67.252,57.598ZM67.526,58.695C67.448,58.734 67.408,58.734 67.369,58.656C67.369,58.656 67.369,58.616 67.33,58.577C67.33,58.46 67.291,58.342 67.291,58.225C67.291,58.147 67.291,58.107 67.291,58.029C67.291,57.912 67.291,57.912 67.408,57.873C67.526,57.794 67.526,57.794 67.565,57.912C67.604,57.99 67.604,58.029 67.643,58.107C67.682,58.303 67.76,58.538 67.526,58.695Z" fill="#4C1900"/>
<path d="M68.581,47.026C68.424,46.948 68.268,46.948 68.112,46.87C68.073,46.87 68.073,46.831 68.034,46.831C67.838,46.556 67.955,46.556 68.034,46.322C68.112,46.087 68.073,45.852 67.995,45.617C67.799,45.147 67.33,44.873 66.822,44.834C66.041,44.794 65.338,45.343 65.299,46.008C65.142,46.556 65.65,47.575 66.275,47.183C66.432,47.105 66.51,46.909 66.588,46.752C66.627,46.674 66.627,46.635 66.627,46.556C66.627,46.596 66.627,46.322 66.588,46.361C66.627,46.322 66.666,46.322 66.705,46.361C66.979,46.674 66.666,46.987 66.705,47.3C66.744,47.496 66.861,47.692 67.018,47.809C67.174,47.927 67.369,47.927 67.565,47.966C68.19,48.084 68.307,48.984 67.916,49.18C67.487,49.219 67.174,48.827 66.705,49.023C66.353,49.18 66.314,49.571 66.393,49.924C66.627,50.942 67.76,50.785 68.463,50.355C69.245,49.885 69.714,48.945 69.479,48.084C69.323,47.653 69.01,47.261 68.581,47.026ZM69.167,48.867C69.089,49.297 68.893,49.65 68.542,49.924C68.229,50.159 67.408,50.59 67.018,50.355C66.783,50.198 66.588,49.846 66.627,49.571C66.744,49.023 67.174,49.258 67.487,49.337C67.643,49.532 67.955,49.493 68.151,49.337C68.424,49.102 68.424,48.671 68.307,48.358C68.151,47.927 67.916,47.77 67.487,47.692C66.901,47.575 66.979,47.222 66.979,46.87L66.979,46.831C66.979,46.713 66.979,46.596 66.94,46.478C66.901,46.361 66.744,46.126 66.549,46.165C66.314,46.204 66.471,46.517 66.432,46.674C66.353,46.87 66.119,47.105 65.924,47.026C65.806,46.987 65.689,46.831 65.611,46.713C65.611,46.674 65.572,46.674 65.572,46.635C65.455,46.047 65.533,45.499 66.197,45.225C66.744,44.99 67.526,45.069 67.799,45.734C67.916,46.047 67.799,46.204 67.721,46.478C67.682,46.596 67.643,46.674 67.682,46.791C67.682,46.831 67.682,46.831 67.721,46.831C67.721,46.87 67.76,46.948 67.877,46.987C68.034,47.065 68.229,47.065 68.385,47.144C68.62,47.261 68.815,47.418 68.971,47.614C69.128,48.005 69.245,48.436 69.167,48.867Z" fill="#4C1900"/>
<path d="M46.426,65.743C46.582,64.49 46.7,63.237 46.778,61.984C46.856,60.77 47.012,59.478 46.817,58.264C47.637,58.186 48.419,57.755 48.966,57.05C49.669,56.11 49.826,54.936 49.435,53.918C49.786,53.957 50.373,53.487 50.607,53.33C51.193,52.978 51.74,52.626 52.248,52.234C53.498,51.333 54.71,50.394 55.882,49.415C58.265,47.457 60.532,45.343 62.642,43.111C63.423,42.288 64.322,41.427 64.869,40.409C64.908,40.37 64.83,40.291 64.791,40.291C64.791,40.291 64.751,40.252 64.751,40.291C60.18,42.484 56.116,45.46 52.404,48.906C51.779,49.493 51.115,50.12 50.49,50.746C50.138,51.098 49.786,51.451 49.474,51.764C49.2,52.038 48.771,52.351 48.692,52.743C48.614,52.665 48.497,52.586 48.419,52.508C47.012,51.412 45.02,51.686 43.926,53.056C42.831,54.466 43.105,56.463 44.473,57.559C44.785,57.794 45.137,57.99 45.528,58.107C45.059,59.243 44.746,60.457 44.512,61.631C44.238,62.924 44.043,64.255 43.965,65.586C43.886,66.917 43.886,68.249 43.926,69.58C43.965,70.794 43.965,72.047 44.433,73.182C44.473,73.3 44.59,73.3 44.668,73.261C44.746,73.261 44.824,73.222 44.863,73.143C45.488,70.716 46.153,68.249 46.426,65.743ZM49.591,52.273C49.904,51.96 50.216,51.647 50.49,51.333C51.076,50.746 51.662,50.159 52.287,49.571C53.303,48.593 54.358,47.653 55.413,46.752C57.249,45.225 59.164,43.815 61.196,42.562C62.329,41.858 63.462,41.192 64.595,40.487C63.97,41.114 63.423,41.779 62.798,42.406C61.821,43.424 60.844,44.403 59.789,45.343C57.562,47.457 55.218,49.454 52.756,51.294C52.131,51.764 51.545,52.195 50.881,52.586C50.607,52.782 50.294,52.939 50.021,53.135C49.865,53.213 49.708,53.33 49.552,53.409C49.513,53.448 49.435,53.448 49.435,53.487C49.396,53.487 49.396,53.526 49.357,53.526C49.318,53.526 49.279,53.565 49.279,53.565C49.161,53.33 49.005,53.095 48.81,52.861C49.161,52.861 49.357,52.547 49.591,52.273ZM44.863,57.129C43.769,56.267 43.574,54.662 44.433,53.565C45.293,52.469 46.895,52.273 47.989,53.135C49.083,53.996 49.279,55.601 48.419,56.698C47.559,57.794 45.957,57.99 44.863,57.129ZM44.238,69.384C44.199,68.053 44.199,66.722 44.277,65.39C44.355,64.137 44.512,62.924 44.746,61.71C44.98,60.496 45.332,59.36 45.606,58.186C45.957,58.264 46.309,58.303 46.661,58.264C46.426,59.478 46.465,60.77 46.387,61.984C46.27,63.237 46.153,64.49 45.996,65.743C45.723,68.131 45.098,70.441 44.59,72.791C44.277,71.734 44.277,70.559 44.238,69.384Z" fill="#4C1900"/>
<path d="M17.082,31.129C17.043,31.168 17.121,31.207 17.121,31.168C19.739,27.918 22.748,25.138 26.46,23.219C26.499,23.219 26.46,23.18 26.46,23.18C22.513,24.59 19.505,27.84 17.082,31.129Z" fill="#4C1900"/>
<path d="M37.83,18.247C37.83,18.286 37.791,18.247 37.83,18.247C41.855,17.15 45.996,17.15 50.099,17.777C50.138,17.777 50.138,17.738 50.099,17.738C46.075,16.915 41.659,16.563 37.83,18.247Z" fill="#4C1900"/>
<path d="M80.693,74.24C79.795,73.77 78.857,73.887 77.88,73.731C77.88,73.574 78.193,73.457 78.193,73.3C82.999,64.333 83.897,53.135 79.951,42.954C76.63,34.418 70.495,27.957 62.876,24.12C63.501,23.885 63.696,23.494 64.009,22.985C64.673,21.927 64.751,20.557 64.517,19.343C64.087,17.307 62.759,15.702 61.039,14.605C59.633,13.509 57.953,12.726 56.273,12.178C55.335,11.864 54.358,11.551 53.303,11.316C53.342,11.081 53.342,10.846 53.381,10.611C53.42,10.181 53.498,9.75 53.459,9.319C53.459,9.045 53.381,8.81 53.342,8.575C53.225,7.714 52.834,6.97 51.935,6.813C51.076,6.657 50.333,7.244 49.982,7.988C49.552,8.888 49.63,9.946 49.435,10.885C48.497,10.415 47.52,9.946 46.739,9.162C45.879,8.301 45.332,7.205 44.824,6.147C43.886,4.307 43.144,1.997 41.229,0.979C39.51,0 37.322,-0.157 35.329,0.117C33.102,0.392 30.875,0.94 28.765,1.684C27.593,2.075 26.46,2.545 25.366,3.015C24.623,3.328 23.881,3.642 23.178,3.994C20.99,5.012 18.841,6.147 16.848,7.518C15.129,8.732 13.566,10.181 12.589,12.06C12.12,12.961 11.886,13.979 12.003,14.997C12.12,16.093 12.55,17.189 12.823,18.247C13.214,19.539 13.644,20.831 13.722,22.201C13.761,23.376 13.409,24.473 12.98,25.569C12.901,25.608 12.862,25.686 12.784,25.726C12.081,25.138 11.456,24.433 10.596,24.042C9.854,23.729 8.838,23.768 8.33,24.473C7.783,25.217 8.017,26 8.486,26.744C8.603,26.979 8.76,27.174 8.916,27.37C9.189,27.722 9.502,27.997 9.854,28.271C10.049,28.427 10.205,28.584 10.401,28.741C10.401,28.741 10.401,28.78 10.362,28.78C9.776,29.641 9.229,30.62 8.76,31.521C7.861,33.243 6.962,35.162 6.689,37.081C6.65,37.355 6.65,37.629 6.611,37.903C6.532,38.647 6.532,39.391 6.806,40.252C7.197,41.623 8.017,42.915 9.111,43.855C9.658,44.325 10.479,44.794 11.221,44.638C11.768,44.834 12.433,44.325 12.94,43.776C9.971,51.764 9.541,61.436 12.862,70.011C16.809,80.113 25.053,86.965 34.548,90.333C35.173,90.568 34.978,90.45 35.056,90.607L35.056,90.646C34.431,91.155 34.001,92.095 33.766,92.995C33.571,93.622 33.454,94.248 33.532,94.914C33.532,94.953 33.532,94.992 33.532,95.032C33.649,97.028 35.017,98.986 37.088,99.3C38.025,99.456 39.002,99.3 39.901,98.947L39.94,98.947C41.542,98.321 42.636,96.872 42.87,95.266C43.144,94.092 43.339,93.191 42.636,92.291C48.263,92.956 54.084,92.134 59.75,89.941C65.455,87.709 70.261,84.107 73.973,79.722C73.777,81.405 75.184,82.384 76.591,83.05C77.997,83.715 79.599,83.481 80.889,82.658C81.397,82.345 81.826,81.993 82.178,81.562C83.546,79.996 83.741,77.999 82.686,76.119C82.178,75.336 81.514,74.67 80.693,74.24ZM52.092,7.205C52.365,7.283 52.561,7.44 52.717,7.635C52.795,7.831 52.873,8.066 52.951,8.262C52.17,7.831 50.88,7.714 50.294,8.34C50.607,7.557 51.271,6.891 52.092,7.205ZM50.138,8.771C50.177,8.693 50.177,8.614 50.216,8.497C50.763,8.301 51.31,8.223 51.896,8.262C52.287,8.301 52.639,8.419 53.029,8.497C53.108,8.81 53.186,9.162 53.186,9.515C52.365,9.006 50.841,8.81 50.021,9.476C50.06,9.241 50.099,9.006 50.138,8.771ZM50.021,9.711C51.037,9.241 52.131,9.476 53.186,9.711C53.186,10.063 53.108,10.415 53.069,10.768C53.029,10.925 52.99,11.081 52.99,11.277C51.935,11.081 50.92,10.964 49.904,11.003C49.943,10.533 49.982,10.141 50.021,9.711ZM49.239,11.394C49.278,11.434 49.278,11.394 49.239,11.394C50.333,11.473 51.349,11.59 52.404,11.786C53.811,12.06 55.218,12.412 56.624,12.882C58.109,13.43 59.477,14.174 60.805,14.997C61.235,15.271 61.626,15.584 61.977,15.936C62.055,16.015 62.173,16.132 62.251,16.211C62.759,16.837 63.188,17.503 63.462,18.247C63.853,19.186 64.009,20.322 63.853,21.34C63.775,21.771 63.618,22.123 63.462,22.436C63.149,21.888 62.407,21.614 61.821,21.34C60.453,20.753 59.047,20.244 57.601,19.852C57.445,19.813 57.249,19.774 57.093,19.695C56.859,19.617 56.585,19.578 56.351,19.5C54.671,19.069 52.912,18.638 51.193,18.482C50.294,18.364 49.435,18.247 48.536,18.168C47.403,18.051 46.27,18.012 45.137,17.973C44.238,17.973 43.3,17.933 42.402,18.051C42.128,18.051 41.815,18.09 41.581,18.09C40.604,18.168 39.627,18.325 38.69,18.638C38.221,18.795 37.322,19.069 37.166,19.656C37.127,19.617 37.127,19.539 37.127,19.5C37.088,19.03 37.166,18.56 37.283,18.09C37.596,16.837 38.064,15.545 38.807,14.488C40.096,12.608 42.362,11.943 44.551,11.473C44.746,11.434 44.98,11.394 45.176,11.355C45.254,11.355 45.332,11.355 45.449,11.394C46.153,11.434 46.817,11.394 47.52,11.394C47.911,11.394 48.341,11.316 48.731,11.277C48.81,11.394 49.044,11.394 49.239,11.394ZM34.157,20.518C33.727,19.382 32.477,18.834 31.344,19.265C30.211,19.695 29.664,20.949 30.094,22.084C30.406,22.867 30.875,23.298 31.656,23.337C30.484,23.846 29.625,24.551 28.531,25.177C28.531,25.06 28.531,25.099 28.531,25.06C28.531,24.982 28.531,24.903 28.531,24.786C28.531,24.668 28.531,24.59 28.531,24.473C28.57,23.924 28.413,23.454 28.14,23.024C27.554,21.732 25.561,20.753 24.467,20.4C23.451,20.087 22.435,20.048 21.38,20.126C20.911,20.165 20.403,20.361 19.935,20.557C18.997,20.792 18.176,21.34 17.356,21.967C17.512,20.87 17.121,19.539 16.809,18.677C16.34,17.307 15.832,15.623 16.027,14.135C16.223,12.569 17.551,11.629 18.723,10.768C21.224,8.888 23.959,7.322 26.811,6.069C29.312,4.973 31.969,4.307 34.548,3.485C35.915,3.25 37.322,3.211 38.611,3.602C39.979,4.033 40.448,5.169 41.073,6.343C41.659,7.44 42.245,8.575 42.831,9.672C43.222,10.376 43.574,10.846 44.043,11.12C42.753,11.238 41.425,11.512 40.37,12.06C39.119,12.687 38.221,13.822 37.596,15.036C37.322,15.467 37.127,15.936 36.97,16.446C36.541,17.542 36.15,18.795 36.423,19.852C36.619,20.674 37.009,20.909 37.713,21.183C36.345,21.536 35.29,22.045 33.962,22.554C34.392,21.967 34.431,21.301 34.157,20.518ZM32.75,22.985C31.852,23.337 30.797,22.906 30.445,21.967C30.094,21.066 30.523,20.009 31.461,19.656C32.36,19.304 33.415,19.735 33.766,20.674C34.118,21.575 33.649,22.632 32.75,22.985ZM37.635,20.322C37.283,19.852 37.674,19.539 38.064,19.382C38.729,19.069 39.471,18.873 40.213,18.717C40.878,18.599 41.581,18.56 42.284,18.521C42.753,18.482 43.261,18.482 43.769,18.442C44.082,18.442 44.433,18.442 44.746,18.442C45.957,18.442 47.168,18.521 48.38,18.638C49.474,18.756 50.568,18.912 51.662,19.069C53.029,19.382 54.358,19.735 55.647,20.048C56.859,20.361 58.07,20.674 59.281,21.066C59.594,21.183 60.141,21.301 60.688,21.497C61.235,21.732 62.915,22.319 62.915,23.063C62.759,23.22 62.563,23.376 62.368,23.494C62.016,23.572 61.626,23.65 61.274,23.65C54.436,20.518 46.582,19.539 38.924,21.183C38.729,21.066 38.494,21.027 38.299,20.909C38.182,20.87 38.104,20.792 37.986,20.714C37.869,20.596 37.752,20.479 37.635,20.322ZM14.035,23.415C14.191,22.397 14.074,21.34 13.8,20.361C13.527,19.226 13.175,18.09 12.862,16.994C12.511,15.858 12.159,14.683 12.433,13.509C12.94,11.355 14.699,9.593 16.418,8.301C18.294,6.891 20.403,5.756 22.552,4.699C22.865,4.542 23.217,4.385 23.529,4.229C23.803,4.111 24.115,3.994 24.389,3.837C24.741,3.681 25.131,3.524 25.483,3.367C25.796,3.25 26.108,3.093 26.382,2.976C26.85,2.78 27.358,2.584 27.827,2.389C29.976,1.566 32.243,0.979 34.509,0.587C36.619,0.235 38.846,0.235 40.8,1.175C41.972,1.723 42.636,2.623 43.222,3.759C43.73,4.777 44.238,5.834 44.746,6.852C45.254,7.87 45.84,8.888 46.7,9.672C47.364,10.298 48.145,10.69 49.005,11.003C48.888,11.003 48.731,11.003 48.614,11.003C47.598,10.768 46.582,10.846 45.527,10.807C44.551,10.768 44.16,10.729 43.613,9.828C43.378,9.437 43.144,9.045 42.91,8.614C42.87,8.536 42.831,8.458 42.792,8.34C42.284,7.322 41.776,6.265 41.229,5.286C41.19,5.208 41.112,5.09 41.073,5.012C40.8,4.542 40.526,4.111 40.135,3.759C39.901,3.563 39.666,3.407 39.432,3.289C38.651,2.819 37.713,2.741 36.853,2.78C35.681,2.741 34.47,2.898 33.337,3.25C31.422,3.642 29.507,4.229 27.71,5.012C27.515,5.09 27.28,5.208 27.085,5.286C26.968,5.325 26.811,5.404 26.694,5.443C26.343,5.599 25.991,5.756 25.639,5.913C25.6,5.952 25.522,5.952 25.483,5.991C23.647,6.813 21.888,7.792 20.169,8.849C19.309,9.397 18.411,9.946 17.59,10.572C16.965,11.042 16.301,11.512 15.832,12.138C14.855,13.391 14.933,14.918 15.324,16.406C15.597,17.503 15.91,18.56 16.223,19.656C16.379,20.244 16.692,21.027 16.731,21.732C16.692,22.123 16.574,22.476 16.379,22.828C15.754,23.259 15.168,23.729 14.66,24.238C14.308,24.512 13.917,24.786 13.566,25.099C13.761,24.551 13.956,24.003 14.035,23.415ZM8.33,25.491C8.33,25.256 8.369,25.021 8.525,24.786C8.955,24.003 9.854,24.081 10.596,24.394C9.776,24.316 8.877,25.295 8.603,26.156C8.486,25.921 8.408,25.726 8.33,25.491ZM8.721,26.43C8.955,26.117 9.111,25.765 9.385,25.491C9.776,25.06 10.244,24.747 10.752,24.512C10.831,24.551 10.909,24.59 10.987,24.668C11.182,24.786 11.378,24.942 11.573,25.138C10.557,25.177 9.541,26.352 9.307,27.292C9.033,26.979 8.877,26.704 8.721,26.43ZM10.284,28.114C9.971,27.879 9.658,27.644 9.385,27.37C9.971,26.509 10.635,25.53 11.69,25.217C11.964,25.451 12.237,25.686 12.511,25.921C11.729,26.626 11.026,27.448 10.518,28.31C10.479,28.271 10.401,28.192 10.284,28.114ZM11.182,41.349C10.948,41.975 10.401,43.111 10.635,43.933C9.893,43.659 9.307,43.228 8.76,42.523C8.447,42.132 8.174,41.74 7.939,41.31C7.197,39.469 7.197,37.12 7.783,35.475C8.291,33.987 8.955,32.539 9.697,31.168C10.166,30.307 10.674,29.524 11.221,28.701C11.299,28.623 11.338,28.506 11.417,28.427C12.159,27.409 12.98,26.469 13.878,25.569C14.308,25.217 14.738,24.825 15.207,24.473C15.637,24.12 16.066,23.768 16.496,23.415C16.652,23.337 16.77,23.22 16.887,23.102C17.278,22.789 17.668,22.515 18.059,22.201C18.098,22.162 18.137,22.162 18.176,22.123C18.919,21.692 19.7,21.301 20.482,20.949C20.638,20.87 20.794,20.831 20.95,20.792C21.263,20.714 21.576,20.674 21.849,20.635C21.888,20.635 21.927,20.635 21.966,20.635C22.084,20.635 22.24,20.635 22.357,20.635C22.982,20.674 23.607,20.792 24.194,20.949C24.311,20.988 24.389,21.027 24.506,21.027C25.796,21.536 27.085,22.436 27.71,23.65C27.632,23.65 27.554,23.65 27.515,23.65C27.358,23.65 27.202,23.65 27.046,23.65C26.929,23.65 26.811,23.65 26.694,23.729C25.717,23.964 24.701,24.668 24.037,25.099C21.029,27.018 18.645,29.915 16.418,32.695C14.269,35.319 12.433,38.216 11.182,41.349ZM11.846,43.816C11.299,43.659 11.299,43.072 11.417,42.68C11.495,42.367 11.612,42.093 11.729,41.779C12.12,40.761 12.589,39.783 13.097,38.804C13.917,37.277 14.855,35.789 15.91,34.379C16.887,33.126 17.864,31.834 18.919,30.659C19.7,29.759 20.56,28.936 21.419,28.114C21.693,27.84 21.966,27.605 22.279,27.331C22.631,27.057 22.943,26.744 23.295,26.469C23.842,26 24.428,25.569 25.014,25.177C25.092,25.138 25.209,25.06 25.288,25.021C25.444,24.942 25.639,24.864 25.796,24.747C26.03,24.668 26.264,24.629 26.499,24.551C26.616,24.512 26.811,24.394 27.007,24.355C27.202,24.394 27.358,24.473 27.515,24.551C27.593,24.668 27.671,24.747 27.788,24.864C27.905,25.177 27.827,25.491 27.671,25.765C21.068,29.837 16.105,35.906 13.331,42.798C12.823,43.189 12.354,43.581 11.846,43.816ZM41.737,96.206C40.956,97.851 38.963,98.869 37.127,98.556C35.407,98.281 34.313,96.676 34.157,94.992C34.079,94.131 34.235,93.27 34.548,92.447C34.704,92.056 34.9,91.782 35.095,91.508C35.447,91.155 35.837,90.881 36.267,90.646C37.908,91.155 39.588,91.508 41.308,91.742C42.402,93.113 42.48,94.601 41.737,96.206ZM59.203,88.923C41.229,95.971 20.911,87.044 13.878,69.071C6.845,51.059 15.754,30.698 33.688,23.65C51.662,16.602 71.98,25.53 79.013,43.502C86.046,61.514 77.138,81.875 59.203,88.923ZM81.631,81.014C80.537,82.384 78.466,83.206 76.825,82.423C76.317,82.188 75.77,81.914 75.34,81.523C74.989,81.131 74.676,80.661 74.481,80.152C74.324,79.761 74.246,79.33 74.207,78.938C75.379,77.49 76.434,76.002 77.333,74.396C77.411,74.357 77.489,74.357 77.567,74.357C78.271,74.475 79.013,74.396 79.716,74.592C80.498,74.788 81.201,75.297 81.709,75.923C82.959,77.529 82.92,79.447 81.631,81.014Z" fill="#4C1900"/>
<path d="M35.095,27.096C18.997,33.4 11.026,51.686 17.317,67.818C23.607,83.95 41.855,91.938 57.953,85.634C74.051,79.33 82.022,61.044 75.731,44.912C69.44,28.78 51.193,20.753 35.095,27.096ZM57.64,84.851C41.972,90.998 24.194,83.206 18.059,67.505C11.925,51.803 19.7,33.987 35.369,27.84C51.037,21.692 68.815,29.484 74.95,45.186C81.123,60.927 73.348,78.703 57.64,84.851Z" fill="#4C1900"/>
<path d="M36.306,30.15C21.927,35.789 14.816,52.077 20.443,66.487C26.069,80.896 42.324,88.023 56.702,82.384C71.081,76.746 78.193,60.457 72.566,46.047C66.94,31.638 50.685,24.512 36.306,30.15ZM56.39,81.64C42.441,87.122 26.655,80.191 21.185,66.213C15.754,52.234 22.67,36.415 36.619,30.933C50.568,25.451 66.354,32.382 71.824,46.361C77.255,60.339 70.378,76.158 56.39,81.64Z" fill="#4C1900"/>
<path d="M37.166,32.264C23.959,37.433 17.434,52.43 22.592,65.625C27.749,78.86 42.714,85.399 55.882,80.23C69.089,75.062 75.614,60.065 70.456,46.87C65.298,33.674 50.373,27.096 37.166,32.264ZM55.765,79.878C42.792,84.968 28.062,78.508 22.982,65.508C17.903,52.508 24.35,37.746 37.322,32.656C50.294,27.566 65.025,34.026 70.104,47.026C75.184,60.026 68.737,74.788 55.765,79.878Z" fill="#4C1900"/>
<path d="M5.321,41.192C4.735,39.743 4.071,37.981 3.993,36.415C3.993,36.337 3.836,36.337 3.836,36.415C3.68,38.334 3.876,39.9 4.618,41.701C5.321,43.463 6.298,44.403 8.017,45.108C8.056,45.147 8.134,45.069 8.095,45.029C6.962,43.816 5.907,42.758 5.321,41.192Z" fill="#4C1900"/>
<path d="M2.195,39.978C2.156,39.861 2,39.9 2,39.978C1.961,42.484 3.133,44.638 5.048,46.165C5.243,46.322 5.438,46.047 5.282,45.891C3.602,44.325 2.625,42.21 2.195,39.978Z" fill="#4C1900"/>
<path d="M62.72,12.961C62.642,12.921 62.602,13 62.642,13.078C65.572,15.467 67.135,18.756 66.471,22.554C66.432,22.71 66.666,22.789 66.744,22.632C67.995,18.951 66.432,14.527 62.72,12.961Z" fill="#4C1900"/>
<path d="M66.901,14.409C66.861,14.37 66.783,14.449 66.822,14.488C67.487,15.584 67.877,16.759 68.268,17.973C68.307,18.051 68.463,18.051 68.463,17.933C68.503,16.602 67.877,15.349 66.901,14.409Z" fill="#4C1900"/>
<path d="M87.805,61.984C87.57,62.61 87.336,63.198 87.14,63.824C87.101,63.902 87.219,63.942 87.258,63.863C87.531,63.276 87.727,62.649 87.961,62.062C88.039,61.906 87.844,61.866 87.805,61.984Z" fill="#4C1900"/>
<path d="M86.515,59.086C86.242,61.827 85.617,64.49 85.03,67.192C84.991,67.348 85.226,67.466 85.304,67.27C86.281,64.607 86.632,61.905 86.672,59.086C86.672,58.969 86.554,58.969 86.515,59.086Z" fill="#4C1900"/>
<path d="M85.187,55.954C85.07,60.692 83.819,64.96 82.256,69.384C82.217,69.541 82.452,69.658 82.53,69.502C84.796,65.43 85.538,60.574 85.421,55.954C85.382,55.836 85.187,55.797 85.187,55.954Z" fill="#4C1900"/>
<path d="M18.684,89.55C18.606,89.471 18.528,89.589 18.567,89.667C20.091,91.468 21.966,92.995 24.194,93.818C24.311,93.857 24.389,93.7 24.272,93.622C22.162,92.565 20.286,91.312 18.684,89.55Z" fill="#4C1900"/>
<path d="M27.827,92.878C23.686,90.646 19.895,88.14 16.731,84.616C16.652,84.538 16.496,84.655 16.574,84.733C19.505,88.414 23.217,91.507 27.671,93.152C27.866,93.269 27.984,92.995 27.827,92.878Z" fill="#4C1900"/>
<path d="M40.448,54.975C40.448,54.936 40.409,54.936 40.409,54.975C40.292,55.484 40.214,55.993 40.253,56.502C40.253,56.541 40.292,56.502 40.292,56.502C40.253,55.993 40.331,55.484 40.448,54.975Z" fill="#4C1900"/>
<path d="M41.542,55.092C41.542,55.053 41.503,55.053 41.503,55.092C41.308,55.719 41.19,56.385 41.229,57.05C41.229,57.089 41.308,57.089 41.308,57.05C41.308,56.385 41.386,55.719 41.542,55.092Z" fill="#4C1900"/>
<path d="M42.519,54.153C42.519,54.114 42.48,54.114 42.441,54.153C42.128,55.327 42.011,56.541 42.245,57.716C42.245,57.755 42.323,57.755 42.323,57.716C42.206,56.502 42.206,55.327 42.519,54.153Z" fill="#4C1900"/>
<path d="M57.992,83.755C58.969,83.559 59.867,83.167 60.727,82.658L60.727,82.619C59.867,83.128 58.969,83.48 57.992,83.755Z" fill="#4C1900"/>
<path d="M54.397,84.185C54.397,84.224 54.358,84.185 54.397,84.185C57.445,83.598 60.297,82.345 62.759,80.465C62.759,80.465 62.759,80.426 62.72,80.426C60.219,82.267 57.445,83.559 54.397,84.185Z" fill="#4C1900"/>
<path d="M55.765,83.285C57.64,82.619 59.438,81.718 61.157,80.661C59.477,81.718 57.679,82.619 55.765,83.285Z" fill="#4C1900"/>
<path d="M60.727,80.348C59.633,80.935 58.539,81.444 57.406,81.993C58.539,81.523 59.672,80.935 60.727,80.348Z" fill="#4C1900"/>
<path d="M60.727,80.348C61.196,80.074 61.704,79.8 62.173,79.526L62.173,79.487C61.665,79.761 61.196,80.074 60.727,80.348Z" fill="#4C1900"/>
<path d="M56.937,82.188C56.937,82.227 56.898,82.188 56.937,82.188Z" fill="#4C1900"/>
<path d="M58.031,80.387C58.07,80.348 58.109,80.348 58.148,80.309C58.109,80.309 58.07,80.348 58.031,80.387C57.992,80.387 57.992,80.348 58.031,80.387Z" fill="#4C1900"/>
<path d="M58.617,80.113C58.461,80.152 58.304,80.231 58.148,80.309C58.304,80.27 58.461,80.191 58.617,80.113Z" fill="#4C1900"/>
<path d="M58.656,80.113C58.851,80.035 59.008,79.956 59.203,79.878C59.008,79.956 58.812,80.035 58.656,80.113Z" fill="#4C1900"/>
<path d="M57.523,80.074C57.523,80.113 57.523,80.113 57.523,80.074C58.226,79.917 58.891,79.643 59.477,79.212C59.516,79.212 59.477,79.173 59.438,79.173C58.891,79.565 58.226,79.878 57.523,80.074Z" fill="#4C1900"/>
<path d="M75.028,78.429C75.028,78.39 74.989,78.39 74.989,78.429C75.028,79.643 75.536,80.74 76.473,81.523C76.513,81.562 76.552,81.484 76.512,81.484C75.614,80.661 75.106,79.604 75.028,78.429Z" fill="#4C1900"/>
<path d="M75.692,78.508C75.692,78.468 75.614,78.468 75.614,78.508C75.575,79.212 75.848,79.878 76.395,80.348C76.434,80.387 76.473,80.309 76.434,80.309C75.965,79.8 75.692,79.212 75.692,78.508Z" fill="#4C1900"/>
<path d="M76.044,77.764C76.044,77.725 76.005,77.725 76.005,77.764C76.083,78.703 76.395,79.604 76.981,80.348C77.02,80.387 77.06,80.348 77.06,80.309C76.513,79.526 76.161,78.703 76.044,77.764Z" fill="#4C1900"/>
<path d="M40.566,93.976C40.607,93.976 40.607,93.935 40.566,93.935C40.526,93.935 40.526,93.976 40.566,93.976Z" fill="#4C1900"/>
<path d="M40.995,93.778C40.956,94.601 40.761,95.306 40.409,96.089C40.409,96.128 40.448,96.128 40.448,96.128C40.839,95.423 41.034,94.601 41.034,93.818C41.073,93.739 41.034,93.739 40.995,93.778Z" fill="#4C1900"/>
<path d="M41.386,93.113C41.659,94.287 41.464,95.462 40.761,96.48C40.722,96.519 40.8,96.559 40.8,96.519C41.542,95.501 41.737,94.327 41.386,93.113C41.425,93.074 41.386,93.074 41.386,93.113Z" fill="#4C1900"/>
<path d="M17.121,60.731C17.317,61.827 17.473,62.884 17.668,63.981C17.668,64.02 17.707,63.981 17.707,63.981C17.551,62.884 17.356,61.827 17.16,60.731C17.16,60.692 17.121,60.692 17.121,60.731Z" fill="#4C1900"/>
<path d="M17.512,59.517C17.707,61.514 18.059,63.511 18.606,65.43C18.606,65.469 18.684,65.469 18.684,65.43C18.176,63.472 17.786,61.514 17.551,59.517C17.551,59.478 17.473,59.478 17.512,59.517Z" fill="#4C1900"/>
<path d="M18.176,57.677C18.176,57.638 18.137,57.638 18.137,57.677C18.059,60.809 18.606,63.981 19.935,66.839C19.974,66.878 20.013,66.839 20.013,66.8C18.762,63.863 18.098,60.848 18.176,57.677Z" fill="#4C1900"/>
<path d="M14.425,16.406C14.582,17.229 14.738,18.09 14.933,18.873C14.933,18.912 15.011,18.912 15.011,18.873C14.855,18.051 14.66,17.229 14.464,16.406C14.425,16.367 14.386,16.406 14.425,16.406Z" fill="#4C1900"/>
<path d="M14.699,15.349C14.972,16.72 15.168,18.168 15.558,19.539C15.558,19.578 15.597,19.539 15.597,19.539C15.441,18.129 15.05,16.72 14.738,15.349C14.738,15.31 14.699,15.31 14.699,15.349Z" fill="#4C1900"/>
<path d="M41.151,14.214C41.112,14.214 41.112,14.292 41.151,14.292C41.62,14.253 42.128,14.214 42.597,14.135C42.636,14.135 42.636,14.057 42.597,14.096C42.089,14.135 41.62,14.174 41.151,14.214Z" fill="#4C1900"/>
<path d="M40.214,14.958C40.174,14.958 40.174,15.036 40.214,14.997C40.956,14.84 41.698,14.879 42.48,14.84C42.519,14.84 42.519,14.762 42.48,14.762C41.737,14.644 40.956,14.762 40.214,14.958Z" fill="#4C1900"/>
<path d="M39.667,15.662C39.627,15.662 39.627,15.741 39.667,15.741C40.878,15.506 42.128,15.467 43.378,15.271C43.418,15.271 43.418,15.192 43.378,15.192C42.128,15.153 40.839,15.427 39.667,15.662Z" fill="#4C1900"/>
<path d="M44.98,16.289C42.91,16.015 40.682,16.406 38.729,16.994C38.69,16.994 38.69,17.072 38.729,17.072C40.8,16.602 42.831,16.485 44.98,16.406C45.02,16.367 45.02,16.289 44.98,16.289Z" fill="#4C1900"/>
<path d="M9.893,36.767C9.58,37.198 9.385,37.668 9.229,38.177C9.229,38.216 9.268,38.216 9.268,38.177C9.424,37.668 9.658,37.237 9.932,36.767C9.971,36.767 9.932,36.728 9.893,36.767Z" fill="#4C1900"/>
<path d="M10.284,37.041C9.932,37.59 9.658,38.177 9.463,38.804C9.463,38.804 9.463,38.843 9.502,38.804C9.776,38.216 10.088,37.668 10.362,37.081C10.401,37.041 10.323,37.002 10.284,37.041Z" fill="#4C1900"/>
<path d="M11.26,36.728C10.635,37.629 10.205,38.647 9.854,39.704C9.854,39.743 9.893,39.743 9.893,39.704C10.284,38.686 10.791,37.746 11.299,36.767C11.338,36.728 11.299,36.728 11.26,36.728Z" fill="#4C1900"/>
<path d="M12.667,35.71C11.417,37.433 10.362,39.43 9.893,41.505C9.893,41.544 9.932,41.544 9.932,41.505C10.596,39.43 11.768,37.668 12.706,35.749C12.784,35.671 12.706,35.632 12.667,35.71Z" fill="#4C1900"/>
<path d="M69.284,59.556C69.284,59.869 69.518,61.122 68.854,60.966C68.62,60.927 68.463,60.692 68.346,60.496C68.19,60.3 68.073,60.143 67.877,59.987C67.838,59.948 67.76,60.026 67.76,60.065C67.916,60.613 68.385,61.514 69.089,61.357C69.362,61.318 69.597,61.083 69.597,60.809C69.597,60.613 69.518,60.457 69.479,60.3C69.401,60.026 69.362,59.791 69.284,59.556Z" fill="#4C1900"/>
<path d="M67.838,59.869C67.526,59.713 67.369,59.869 67.096,59.869C66.197,59.752 66.549,58.695 66.666,58.107C66.783,57.403 66.9,56.737 67.135,56.071C67.174,55.993 67.057,55.954 67.018,56.032C66.627,56.619 66.51,57.246 66.353,57.912C66.236,58.46 66.002,59.047 66.08,59.595C66.119,59.869 66.158,60.144 66.393,60.3C66.861,60.653 67.721,59.909 68.034,60.457C68.073,60.535 68.229,60.496 68.19,60.378C68.151,60.183 68.034,59.987 67.838,59.869Z" fill="#4C1900"/>
<path d="M67.291,47.692C67.252,47.692 67.252,47.731 67.291,47.77C67.448,47.888 67.643,47.927 67.799,48.044C67.955,48.162 68.034,48.358 68.073,48.553C68.112,48.749 68.112,48.984 67.916,49.102C67.76,49.219 67.448,49.18 67.291,49.18C67.252,49.18 67.213,49.258 67.252,49.258C67.487,49.415 67.76,49.532 68.034,49.376C68.268,49.258 68.385,49.023 68.424,48.749C68.424,48.123 67.916,47.653 67.291,47.692Z" fill="#4C1900"/>
<path d="M68.073,49.141C67.838,49.297 67.526,49.062 67.291,49.023C67.096,48.984 66.861,48.984 66.666,49.141C66.197,49.493 66.588,49.963 66.705,50.394C66.705,50.433 66.783,50.433 66.783,50.394C66.744,50.159 66.588,49.767 66.744,49.532C66.94,49.18 67.252,49.415 67.487,49.493C67.721,49.571 68.073,49.493 68.19,49.219C68.19,49.141 68.112,49.102 68.073,49.141Z" fill="#4C1900"/>
<path d="M65.338,46.635C65.416,47.065 65.767,47.457 66.236,47.34C66.744,47.222 66.861,46.674 66.744,46.243C66.705,46.087 66.432,46.087 66.471,46.282C66.471,46.478 66.51,46.517 66.353,46.713C66.275,46.987 66.08,46.987 65.846,46.752C65.806,46.713 65.806,46.635 65.767,46.596C65.689,46.361 65.767,46.087 65.846,45.891C66.08,45.264 66.588,45.186 67.174,45.108C67.213,45.108 67.213,45.068 67.174,45.029C66.236,44.638 65.181,45.734 65.338,46.635Z" fill="#4C1900"/>
<path d="M59.359,41.466C59.203,41.388 59.125,41.192 59.125,40.879C59.203,40.056 59.711,39.391 59.633,38.569C59.594,38.334 59.516,37.903 59.242,37.825C59.008,37.746 58.851,37.903 58.851,38.099C58.851,38.138 58.891,38.177 58.93,38.138C59.047,38.216 59.164,38.255 59.281,38.334C59.32,38.569 59.359,38.843 59.281,39.078C59.242,39.352 59.164,39.587 59.086,39.861C58.969,40.174 58.812,40.487 58.773,40.84C58.734,41.114 58.734,41.466 58.93,41.701C59.086,41.623 59.242,41.544 59.359,41.466Z" fill="#4C1900"/>
<path d="M59.242,37.746C59.242,37.707 59.242,37.668 59.203,37.668C59.047,37.59 58.93,37.629 58.812,37.746C58.617,37.981 58.851,38.177 58.812,38.412C58.734,38.764 58.265,38.764 58.031,38.569C57.718,38.334 57.679,37.864 57.757,37.472C57.757,37.433 57.718,37.394 57.679,37.433C57.484,37.785 57.406,38.138 57.562,38.49C57.718,38.764 57.992,38.999 58.343,39.038C58.656,39.078 59.008,38.882 59.164,38.608C59.242,38.451 59.281,38.255 59.203,38.099C59.164,37.981 59.125,37.981 59.203,37.864C59.164,37.864 59.203,37.825 59.242,37.746Z" fill="#4C1900"/>
<path d="M50.138,37.55C49.357,37.707 49.005,35.828 48.849,35.397C48.653,34.81 47.95,33.517 48.341,32.969C48.38,32.93 48.341,32.891 48.302,32.93C47.286,33.4 48.458,35.671 48.692,36.337C48.849,36.767 49.513,38.451 50.177,37.668C50.216,37.59 50.216,37.511 50.138,37.55Z" fill="#4C1900"/>
<path d="M37.83,35.319C37.869,35.358 37.908,35.319 37.908,35.279C37.713,34.653 37.947,34.066 38.533,33.713C39.041,33.4 39.979,33.439 40.37,33.987C39.51,32.617 37.049,33.831 37.83,35.319Z" fill="#4C1900"/>
<path d="M39.041,34.614C39.041,34.575 39.002,34.536 38.963,34.536C38.924,34.536 38.924,34.536 38.885,34.536C38.846,34.536 38.807,34.575 38.807,34.614C38.807,34.77 38.846,34.731 38.885,34.849C39.12,35.514 38.221,35.436 38.025,35.005C37.83,34.575 38.025,33.752 38.494,33.557C38.533,33.557 38.494,33.478 38.455,33.478C37.674,33.674 37.283,35.005 37.908,35.554C38.221,35.828 38.807,35.906 39.12,35.554C39.237,35.436 39.315,35.24 39.276,35.045C39.276,34.966 39.002,34.731 39.041,34.614Z" fill="#4C1900"/>
<path d="M37.791,38.764C37.283,39.861 36.423,37.551 36.306,37.237C36.111,36.65 35.447,35.201 35.955,34.653C35.994,34.614 35.955,34.575 35.916,34.575C35.447,34.77 35.564,35.201 35.603,35.632C35.72,36.611 36.033,37.59 36.423,38.451C36.58,38.804 37.049,39.626 37.557,39.587C37.947,39.548 37.947,39.078 37.908,38.764C37.908,38.764 37.83,38.725 37.791,38.764Z" fill="#4C1900"/>
<path d="M32.008,44.834C31.696,46.204 30.523,43.972 30.367,43.62C30.015,42.876 29.586,41.662 29.976,40.879C30.015,40.84 29.937,40.761 29.898,40.84C29.039,41.897 30.055,44.09 30.68,45.068C30.875,45.382 31.266,45.969 31.735,45.891C32.243,45.812 32.164,45.225 32.047,44.873C32.047,44.834 32.008,44.794 32.008,44.834Z" fill="#4C1900"/>
<path d="M29.625,45.812C29.39,46.243 29.312,46.087 29.039,45.734C28.726,45.382 28.492,44.951 28.335,44.52C28.023,43.776 27.398,42.328 27.866,41.584C27.906,41.544 27.827,41.466 27.788,41.505C26.655,42.171 27.827,44.599 28.335,45.343C28.531,45.656 29,46.517 29.429,46.478C29.742,46.478 29.703,46.047 29.625,45.812Z" fill="#4C1900"/>
<path d="M28.843,53.487C28.882,53.839 28.843,54.153 28.765,54.466C28.023,55.21 27.398,55.288 26.89,54.701C26.538,54.388 26.343,53.957 26.186,53.526C25.835,52.586 25.483,51.177 26.499,50.511C26.538,50.472 26.538,50.394 26.46,50.394C24.662,50.707 25.678,53.839 26.382,54.74C26.811,55.288 27.632,55.836 28.335,55.406C28.96,55.053 29.117,54.035 28.921,53.409C28.882,53.448 28.804,53.448 28.843,53.487Z" fill="#4C1900"/>
<path d="M25.405,66.33C25.6,66.174 25.796,66.095 26.069,66.134C25.835,66.056 25.6,66.134 25.405,66.33Z" fill="#4C1900"/>
<path d="M26.343,64.686C26.304,64.686 26.304,64.725 26.343,64.764C26.577,64.881 26.616,65.234 26.616,65.469C26.616,65.782 26.46,65.939 26.225,66.095C26.733,66.174 26.89,65.821 26.851,65.39C26.89,65.116 26.733,64.49 26.343,64.686Z" fill="#4C1900"/>
<path d="M26.304,64.49C25.952,64.646 25.913,65.116 25.522,65.273C24.858,65.547 24.389,64.921 23.998,64.49C23.959,64.451 23.92,64.49 23.92,64.529C24.154,65.077 24.623,65.704 25.249,65.665C25.561,65.665 25.835,65.508 26.03,65.312C26.069,65.273 26.304,64.96 26.343,64.921C26.616,64.842 26.655,65.234 26.733,65.469C26.733,65.508 26.811,65.508 26.811,65.469C26.851,65.195 26.89,64.177 26.304,64.49Z" fill="#4C1900"/>
<path d="M33.727,72.125C33.688,71.969 33.727,71.734 33.688,71.577C33.649,71.381 33.61,71.225 33.493,71.029C33.493,70.99 33.454,71.029 33.454,71.029C33.532,71.303 33.532,71.577 33.493,71.851C33.454,72.008 33.454,72.164 33.532,72.321C33.688,72.634 34.04,72.595 34.313,72.752C34.353,72.752 34.392,72.752 34.353,72.713C34.196,72.517 33.806,72.399 33.727,72.125Z" fill="#4C1900"/>
<path d="M31.813,74.005C31.813,73.809 31.852,73.613 31.774,73.378C31.696,73.182 31.617,73.104 31.461,72.987C30.953,72.517 30.68,72.204 30.719,71.499C30.719,71.46 30.68,71.46 30.68,71.499C30.445,72.204 30.719,72.595 31.109,73.143C31.617,73.848 31.383,74.788 32.125,75.336C32.164,75.375 32.243,75.297 32.204,75.258C31.969,74.866 31.813,74.475 31.813,74.005Z" fill="#4C1900"/>
<path d="M43.769,77.137C43.769,76.667 43.769,76.041 43.574,75.61C43.105,74.788 41.425,76.237 41.386,75.023C41.386,74.984 41.308,74.944 41.269,74.984C41.112,75.258 40.995,75.571 41.229,75.845C41.737,76.432 42.48,75.61 42.988,75.806C43.418,75.963 43.378,77.842 43.496,78.312C43.613,78.86 43.73,79.487 44.277,79.721C44.355,79.761 44.394,79.643 44.355,79.604C43.847,78.899 43.808,78.038 43.769,77.137Z" fill="#4C1900"/>
<path d="M55.257,75.14C55.179,75.14 55.179,75.219 55.218,75.219C56.155,75.571 56.781,76.197 56.546,77.294C56.351,78.273 55.296,78.938 54.358,78.586C52.951,78.077 52.678,76.354 52.522,75.062C52.522,75.023 52.443,75.023 52.443,75.062C52.248,76.119 52.522,77.333 53.186,78.234C53.694,78.938 54.749,79.369 55.569,79.017C57.406,78.194 57.288,75.532 55.257,75.14Z" fill="#4C1900"/>
<path d="M53.616,75.688C53.656,75.729 53.656,75.729 53.616,75.688C53.656,75.688 53.656,75.688 53.656,75.688C53.656,75.729 53.656,75.729 53.616,75.688Z" fill="#4C1900"/>
<path d="M54.124,75.258C54.006,75.297 53.928,75.375 53.811,75.453C53.772,75.493 53.733,75.532 53.655,75.61C53.655,75.688 53.694,75.767 53.733,75.845C53.694,75.806 53.655,75.767 53.616,75.767C53.577,75.767 53.537,75.767 53.498,75.767C53.537,75.728 53.616,75.688 53.655,75.61C53.616,75.493 53.616,75.375 53.616,75.258C53.616,75.062 53.655,74.905 53.694,74.749C53.694,74.71 53.655,74.67 53.616,74.67C53.381,74.749 53.303,75.062 53.264,75.297C53.225,75.493 53.225,75.962 53.42,76.119C53.655,76.276 53.85,76.041 53.928,75.845C54.006,75.649 54.124,75.532 54.319,75.453C54.475,75.375 54.632,75.375 54.749,75.297C54.788,75.258 54.788,75.219 54.749,75.219C54.553,75.101 54.358,75.14 54.124,75.258Z" fill="#4C1900"/>
<path d="M53.498,75.728C53.537,75.728 53.577,75.728 53.616,75.728L53.655,75.728C53.655,75.728 53.655,75.728 53.616,75.728C53.655,75.767 53.694,75.806 53.733,75.806C53.694,75.728 53.694,75.649 53.655,75.571C53.616,75.649 53.577,75.688 53.498,75.728Z" fill="#4C1900"/>
<path d="M64.595,70.559C64.439,70.716 64.4,70.872 64.165,70.833C63.97,70.794 63.814,70.755 63.618,70.794C63.345,70.833 63.11,70.99 62.993,71.264C62.954,71.342 63.071,71.381 63.11,71.342C63.501,70.872 63.892,71.303 64.322,71.303C64.673,71.303 64.791,70.951 64.751,70.637C64.712,70.559 64.634,70.481 64.595,70.559Z" fill="#4C1900"/>
<path d="M64.087,69.58C63.579,69.463 63.11,70.05 62.681,69.737C62.016,69.306 61.899,67.74 62.134,67.074C62.134,67.035 62.094,66.957 62.055,66.996C61.313,67.505 61.743,68.914 62.094,69.541C62.251,69.854 62.524,70.246 62.876,70.285C62.993,70.324 63.149,70.285 63.267,70.246C63.696,70.089 63.384,69.932 64.009,70.207C64.4,70.402 64.595,70.598 64.361,71.068C64.322,71.146 64.4,71.225 64.478,71.185C64.986,70.794 64.712,69.737 64.087,69.58Z" fill="#4C1900"/>
<path d="M81.24,74.631C80.85,74.396 80.459,74.2 80.029,74.044C79.404,73.809 78.466,73.809 78.075,73.182C77.919,72.948 77.489,73.065 77.567,73.378C77.841,74.475 79.521,74.396 80.381,74.827C82.178,75.767 82.92,77.646 82.373,79.643C81.866,81.444 80.185,82.893 78.271,82.697C77.294,82.58 76.395,82.071 75.575,81.523C74.832,81.014 73.699,80.426 73.816,79.369C73.816,79.291 73.699,79.252 73.66,79.291C71.98,80.505 75.418,82.423 76.239,82.854C78.075,83.794 80.146,83.755 81.709,82.267C83.155,80.896 83.585,78.508 82.96,76.628C82.647,75.728 82.022,75.101 81.24,74.631Z" fill="#4C1900"/>
<path d="M41.894,91.86C42.636,93.191 42.363,95.501 41.62,96.833C40.878,98.242 38.924,98.673 37.478,98.477C35.642,98.242 33.884,97.146 33.884,95.149C33.884,93.739 34.314,91.39 35.603,90.568C35.759,90.489 35.681,90.254 35.486,90.294C33.649,90.685 33.141,93.583 33.102,95.11C33.063,97.381 34.782,98.79 36.892,99.182C38.729,99.534 41.034,99.104 42.167,97.498C42.714,96.715 42.871,95.619 43.027,94.718C43.222,93.583 43.144,92.486 42.558,91.507C42.324,91.116 41.659,91.429 41.894,91.86Z" fill="#4C1900"/>
<path d="M50.021,10.102C49.982,10.024 49.904,10.024 49.904,10.102C49.865,10.611 49.865,10.964 50.373,11.159C50.959,11.394 51.701,11.433 52.365,11.355C52.404,11.355 52.404,11.277 52.365,11.277C51.584,11.199 50.255,10.964 50.021,10.102Z" fill="#4C1900"/>
<path d="M51.935,11.316C51.467,11.159 50.998,11.003 50.529,10.846C50.373,10.768 50.216,10.729 50.06,10.69C50.06,10.611 50.099,10.533 50.099,10.494C50.021,10.298 50.138,9.946 50.138,9.75C50.177,9.241 50.255,8.732 50.451,8.262C50.646,7.714 50.92,7.4 51.31,7.009C51.349,6.97 51.31,6.891 51.271,6.931C50.724,7.283 50.412,7.283 50.06,7.909C49.708,8.497 49.591,9.202 49.513,9.867C49.474,10.259 49.279,10.925 49.63,11.238C49.826,11.394 50.216,11.355 50.451,11.355C50.959,11.355 51.428,11.355 51.935,11.394C51.975,11.355 51.975,11.316 51.935,11.316Z" fill="#4C1900"/>
<path d="M48.419,11.003C47.364,10.846 46.231,11.003 45.176,10.65C44.043,10.298 43.183,9.476 42.558,8.497C41.659,7.048 41.386,5.012 40.018,3.916C39.94,3.876 39.901,3.955 39.901,3.994C40.37,5.051 40.839,6.069 41.269,7.166C41.698,8.223 42.206,9.202 42.949,10.063C44.473,11.708 46.348,11.708 48.38,11.081C48.497,11.081 48.497,11.003 48.419,11.003Z" fill="#4C1900"/>
<path d="M10.205,27.527C10.088,27.409 9.932,27.331 9.893,27.174C9.815,26.939 9.893,26.548 9.971,26.352C9.971,26.274 9.893,26.234 9.854,26.274C9.502,26.626 9.189,27.018 9.424,27.527C9.619,27.957 10.088,28.114 10.244,28.545C10.44,28.975 11.065,28.623 10.87,28.192C10.713,27.918 10.479,27.722 10.205,27.527Z" fill="#4C1900"/>
<path d="M8.76,26.078C8.721,26 8.721,25.921 8.682,25.882C8.642,25.921 8.603,26 8.564,26.039C8.642,26.039 8.721,26.039 8.76,26.078Z" fill="#4C1900"/>
<path d="M8.369,25.96C8.447,26 8.525,26 8.564,26.039C8.603,26 8.642,25.921 8.682,25.882C8.682,25.843 8.642,25.765 8.642,25.725C8.564,25.804 8.486,25.882 8.369,25.96Z" fill="#4C1900"/>
<path d="M9.111,27.057C9.229,27.096 9.385,27.096 9.502,27.135C9.424,27.057 9.385,26.978 9.307,26.9C9.229,26.939 9.15,27.018 9.111,27.057Z" fill="#4C1900"/>
<path d="M9.033,25.295C9.111,25.334 9.15,25.334 9.229,25.373C9.268,25.295 9.15,25.216 9.072,25.256C8.916,25.373 8.799,25.569 8.642,25.725C8.642,25.765 8.681,25.843 8.681,25.882C8.799,25.686 8.955,25.53 9.033,25.295Z" fill="#4C1900"/>
<path d="M8.369,25.96C8.447,25.882 8.564,25.804 8.642,25.725C8.564,25.412 8.564,25.06 8.486,24.747C8.486,24.629 8.33,24.629 8.252,24.707C7.9,25.216 8.017,25.843 8.213,26.352C8.252,26.43 8.33,26.469 8.408,26.509C8.408,26.313 8.447,26.195 8.525,26.039C8.525,26 8.447,25.96 8.369,25.96Z" fill="#4C1900"/>
<path d="M9.658,26.43C9.541,26.509 9.424,26.704 9.307,26.861C9.385,26.939 9.424,27.018 9.502,27.096C9.385,27.057 9.229,27.057 9.111,27.018C9.189,26.978 9.229,26.939 9.307,26.861C9.15,26.665 8.994,26.43 8.994,26.195C8.994,25.882 9.189,25.647 9.268,25.373C9.111,25.686 8.916,25.96 8.838,26.313C8.799,26.43 8.642,26.509 8.525,26.509L8.525,26.548C8.525,26.978 8.799,27.37 9.15,27.644C9.424,27.84 9.736,27.487 9.619,27.213C9.541,27.096 9.776,26.665 9.815,26.509C9.736,26.43 9.697,26.391 9.658,26.43Z" fill="#4C1900"/>
<path d="M8.799,26.274C8.877,25.96 9.111,25.647 9.229,25.334C9.15,25.295 9.111,25.295 9.033,25.256C8.955,25.491 8.799,25.647 8.682,25.804C8.721,25.882 8.721,25.96 8.76,26C8.721,26 8.642,25.96 8.603,25.96C8.525,26.078 8.486,26.235 8.486,26.43C8.603,26.469 8.76,26.43 8.799,26.274Z" fill="#4C1900"/>
<path d="M13.409,19.147C13.331,19.069 13.253,19.147 13.292,19.226C13.761,20.126 13.683,21.497 13.683,22.515C13.683,23.376 13.331,24.12 13.292,24.942C13.292,25.099 13.448,25.216 13.605,25.138C14.503,24.629 14.386,23.259 14.347,22.358C14.23,21.262 14.152,20.048 13.409,19.147Z" fill="#4C1900"/>
<path d="M12.472,14.801C12.433,13.744 12.745,12.804 13.058,11.786C13.097,11.708 12.98,11.668 12.94,11.708C11.69,13.039 11.612,14.918 12.003,16.602C12.472,18.521 13.253,20.439 13.839,22.358C13.878,22.515 14.074,22.476 14.113,22.319C14.386,20.635 13.566,19.069 13.058,17.503C12.745,16.641 12.511,15.741 12.472,14.801Z" fill="#4C1900"/>
<path d="M15.597,15.31C15.519,17.033 16.184,18.599 16.379,20.283C16.496,21.536 15.793,22.201 14.972,23.063C14.347,23.728 13.644,24.355 13.136,25.099C13.058,25.216 13.214,25.334 13.292,25.295C14.269,24.786 15.09,23.963 15.871,23.219C16.457,22.632 17.121,22.084 17.199,21.223C17.317,19.186 15.91,17.346 15.676,15.349C15.676,15.271 15.597,15.271 15.597,15.31Z" fill="#4C1900"/>
<path d="M22.67,20.557C19.583,19.852 17.16,22.084 14.855,23.768C12.237,25.686 10.44,28.466 8.916,31.286C7.548,33.831 6.454,36.689 7.001,39.626C7.392,41.623 8.994,45.068 11.573,44.403C11.69,44.364 11.729,44.168 11.573,44.168C8.916,43.659 7.666,40.722 7.548,38.255C7.431,35.554 8.799,32.891 10.088,30.581C11.456,28.192 12.823,25.96 15.05,24.355C17.199,22.828 19.739,20.361 22.592,20.753C22.748,20.713 22.748,20.596 22.67,20.557Z" fill="#4C1900"/>
<path d="M11.807,44.129C11.768,44.011 11.768,43.894 11.729,43.776C11.612,43.815 11.495,43.815 11.378,43.855C11.495,43.933 11.651,44.011 11.807,44.129Z" fill="#4C1900"/>
<path d="M23.021,26.117C21.029,27.527 19.348,29.289 17.786,31.168C16.184,33.126 14.738,35.24 13.37,37.394C12.12,39.313 10.205,41.858 11.065,44.285C11.143,44.481 11.299,44.599 11.495,44.559C12.198,44.364 12.589,44.129 13.175,43.698C13.37,43.541 13.136,43.267 12.94,43.385C12.55,43.581 12.12,43.698 11.69,43.776C11.729,43.894 11.729,44.011 11.768,44.129C11.612,44.05 11.495,43.933 11.338,43.855C11.456,43.815 11.573,43.815 11.69,43.776C11.221,41.505 13.136,39.156 14.308,37.355C15.441,35.593 16.613,33.87 17.903,32.225C19.192,30.581 20.599,29.015 22.201,27.683C23.06,26.939 23.959,26.234 24.936,25.647C26.069,24.981 26.89,24.864 28.179,25.021C28.335,25.021 28.453,24.825 28.335,24.707C26.851,23.259 24.272,25.216 23.021,26.117Z" fill="#4C1900"/>
<path d="M50.841,11.238C48.771,10.924 46.739,10.885 44.668,11.12C42.871,11.316 40.761,11.629 39.315,12.843C37.908,14.018 34.079,20.674 37.557,21.34C37.713,21.379 37.83,21.222 37.713,21.066C37.4,20.713 37.166,20.557 37.01,20.087C36.814,19.46 36.892,18.951 37.049,18.325C37.244,17.542 37.557,16.798 37.908,16.093C38.651,14.605 39.471,13.274 41.073,12.608C44.199,11.277 47.52,11.629 50.802,11.394C50.92,11.355 50.92,11.277 50.841,11.238Z" fill="#4C1900"/>
<path d="M60.571,20.87C58.187,19.695 55.53,19.186 52.912,18.795C49.865,18.325 46.973,18.207 43.886,18.325C42.48,18.403 41.034,18.482 39.627,18.795C38.768,18.991 37.4,19.186 37.166,20.165C37.127,20.4 37.439,20.596 37.557,20.361C37.986,19.5 39.901,19.421 40.721,19.304C41.894,19.147 43.066,19.069 44.238,19.03C46.426,18.951 48.614,18.912 50.802,19.186C52.834,19.46 54.905,19.774 56.898,20.322C57.835,20.557 58.773,20.87 59.672,21.262C60.18,21.457 60.649,21.732 61.118,21.966C61.196,22.006 62.993,23.219 62.446,23.376C62.212,23.415 62.173,23.807 62.446,23.885C63.032,24.003 63.501,23.572 63.345,22.985C63.071,21.966 61.391,21.262 60.571,20.87Z" fill="#4C1900"/>
<path d="M37.752,21.027C37.478,20.792 37.244,20.674 37.244,20.283C37.244,20.204 37.127,20.087 37.049,20.165C36.736,20.361 36.853,20.753 37.049,20.988C37.205,21.144 37.4,21.223 37.557,21.34C37.752,21.457 37.947,21.653 38.104,21.81C38.182,21.888 38.299,21.81 38.26,21.692C38.143,21.457 37.986,21.223 37.752,21.027Z" fill="#4C1900"/>
<path d="M37.478,20.831C37.361,20.557 37.166,20.165 37.127,19.852C37.127,19.774 37.049,19.735 37.01,19.735C36.423,19.93 36.697,20.557 36.892,20.988C37.088,21.418 37.478,21.927 37.986,21.888C38.143,21.888 38.221,21.692 38.065,21.614C37.791,21.379 37.635,21.144 37.478,20.831Z" fill="#4C1900"/>
<path d="M45.02,57.872C43.847,62.884 42.519,68.366 44.238,73.417C44.277,73.574 44.551,73.574 44.551,73.378C44.355,70.676 43.925,68.092 44.16,65.351C44.394,62.884 45.606,60.418 45.606,57.951C45.606,57.598 45.098,57.52 45.02,57.872Z" fill="#4C1900"/>
<path d="M45.41,58.773C45.488,58.538 45.684,58.381 45.879,58.264C46.114,58.107 45.918,57.716 45.645,57.872C45.332,58.068 45.137,58.342 45.176,58.734C45.176,58.851 45.332,58.93 45.41,58.773Z" fill="#4C1900"/>
<path d="M59.008,40.526C58.539,41.114 58.773,42.014 59.633,41.975C60.532,41.897 61.235,41.31 61.626,40.526C61.626,40.526 61.626,40.487 61.587,40.487C61.235,40.722 60.883,40.918 60.493,41.075C60.297,41.153 60.063,41.31 59.828,41.31C59.555,41.427 59.359,41.31 59.242,40.957C59.281,40.84 59.281,40.683 59.242,40.566C59.203,40.526 59.086,40.409 59.008,40.526Z" fill="#4C1900"/>
<path d="M48.731,53.174C49.826,52.312 50.724,51.177 51.662,50.159C51.701,50.12 51.662,50.08 51.623,50.12C50.49,50.942 49.318,51.842 48.497,52.978C48.38,53.135 48.614,53.252 48.731,53.174Z" fill="#4C1900"/>
<path d="M49.357,54.388C52.561,53.017 55.1,50.903 57.523,48.436C59.828,46.087 62.915,43.855 64.595,40.996C64.634,40.918 64.556,40.879 64.478,40.918C62.095,43.346 59.75,45.812 57.21,48.083C55.96,49.219 54.632,50.394 53.225,51.373C51.896,52.312 50.333,52.939 49.122,54.035C48.966,54.231 49.161,54.427 49.357,54.388Z" fill="#4C1900"/>
</svg>
