<svg width="44" height="44" viewBox="0 0 44 44" fill="none" xmlns="http://www.w3.org/2000/svg" xmlns:xlink="http://www.w3.org/1999/xlink">
<path d="M0.801,19.878C0.02,20.659 0.02,21.925 0.801,22.706C1.582,23.487 2.848,23.487 3.629,22.706L0.801,19.878ZM21.507,2L22.921,0.586C22.14,-0.195 20.874,-0.195 20.093,0.586L21.507,2ZM39.385,22.706C40.166,23.487 41.432,23.487 42.213,22.706C42.994,21.925 42.994,20.659 42.213,19.878L39.385,22.706ZM36.512,40.584L36.512,42.584C37.616,42.584 38.512,41.688 38.512,40.584L36.512,40.584ZM6.502,40.584L4.502,40.584C4.502,41.688 5.398,42.584 6.502,42.584L6.502,40.584ZM3.629,22.706L7.916,18.419L5.088,15.591L0.801,19.878L3.629,22.706ZM7.916,18.419L22.921,3.414L20.093,0.586L5.088,15.591L7.916,18.419ZM20.093,3.414L35.098,18.419L37.926,15.591L22.921,0.586L20.093,3.414ZM36.512,15.005L6.502,15.005L6.502,19.005L36.512,19.005L36.512,15.005ZM4.502,17.005L4.502,38.44L8.502,38.44L8.502,17.005L4.502,17.005ZM4.502,38.44C4.502,39.539 4.939,40.593 5.716,41.37L8.544,38.542C8.517,38.515 8.502,38.478 8.502,38.44L4.502,38.44ZM5.716,41.37C6.493,42.147 7.547,42.584 8.646,42.584L8.646,38.584C8.608,38.584 8.571,38.569 8.544,38.542L5.716,41.37ZM8.646,42.584L15.076,42.584L15.076,38.584L8.646,38.584L8.646,42.584ZM35.098,18.419L39.385,22.706L42.213,19.878L37.926,15.591L35.098,18.419ZM34.512,17.005L34.512,38.44L38.512,38.44L38.512,17.005L34.512,17.005ZM34.512,38.44C34.512,38.478 34.497,38.515 34.47,38.542L37.298,41.37C38.075,40.593 38.512,39.539 38.512,38.44L34.512,38.44ZM34.47,38.542C34.443,38.569 34.406,38.584 34.368,38.584L34.368,42.584C35.467,42.584 36.521,42.147 37.298,41.37L34.47,38.542ZM34.368,38.584L27.938,38.584L27.938,42.584L34.368,42.584L34.368,38.584ZM15.076,42.584C16.175,42.584 17.229,42.147 18.006,41.37L15.178,38.542C15.151,38.569 15.114,38.584 15.076,38.584L15.076,42.584ZM18.006,41.37C18.783,40.593 19.22,39.539 19.22,38.44L15.22,38.44C15.22,38.478 15.205,38.515 15.178,38.542L18.006,41.37ZM19.22,38.44L19.22,29.866L15.22,29.866L15.22,38.44L19.22,38.44ZM19.22,29.866C19.22,29.828 19.235,29.792 19.262,29.765L16.434,26.936C15.656,27.713 15.22,28.767 15.22,29.866L19.22,29.866ZM19.262,29.765C19.289,29.738 19.325,29.723 19.363,29.723L19.363,25.723C18.265,25.723 17.211,26.159 16.434,26.936L19.262,29.765ZM19.363,29.723L23.65,29.723L23.65,25.723L19.363,25.723L19.363,29.723ZM23.65,29.723C23.689,29.723 23.725,29.738 23.752,29.765L26.58,26.936C25.803,26.159 24.749,25.723 23.65,25.723L23.65,29.723ZM23.752,29.765C23.779,29.792 23.794,29.828 23.794,29.866L27.794,29.866C27.794,28.767 27.357,27.713 26.58,26.936L23.752,29.765ZM23.794,29.866L23.794,38.44L27.794,38.44L27.794,29.866L23.794,29.866ZM23.794,38.44C23.794,39.539 24.231,40.593 25.008,41.37L27.836,38.542C27.809,38.515 27.794,38.478 27.794,38.44L23.794,38.44ZM25.008,41.37C25.785,42.147 26.839,42.584 27.938,42.584L27.938,38.584C27.9,38.584 27.863,38.569 27.836,38.542L25.008,41.37ZM27.938,38.584L15.076,38.584L15.076,42.584L27.938,42.584L27.938,38.584ZM27.938,42.584L36.512,42.584L36.512,38.584L27.938,38.584L27.938,42.584ZM38.512,40.584L38.512,17.005L34.512,17.005L34.512,40.584L38.512,40.584ZM15.076,38.584L6.502,38.584L6.502,42.584L15.076,42.584L15.076,38.584ZM8.502,40.584L8.502,17.005L4.502,17.005L4.502,40.584L8.502,40.584Z" fill="#333333"/>
</svg>
