<svg width="12" height="20" viewBox="0 0 12 20" fill="none" xmlns="http://www.w3.org/2000/svg" xmlns:xlink="http://www.w3.org/1999/xlink">
<path d="M0.586,16.586C-0.195,17.367 -0.195,18.633 0.586,19.414C1.367,20.195 2.633,20.195 3.414,19.414L0.586,16.586ZM10,10L11.414,11.414C12.195,10.633 12.195,9.367 11.414,8.586L10,10ZM3.414,0.586C2.633,-0.195 1.367,-0.195 0.586,0.586C-0.195,1.367 -0.195,2.633 0.586,3.414L3.414,0.586ZM3.414,19.414L11.414,11.414L8.586,8.586L0.586,16.586L3.414,19.414ZM11.414,8.586L3.414,0.586L0.586,3.414L8.586,11.414L11.414,8.586Z" fill="#000000" fill-opacity="0.6"/>
</svg>
