<svg width="40" height="42" viewBox="0 0 40 42" fill="none" xmlns="http://www.w3.org/2000/svg" xmlns:xlink="http://www.w3.org/1999/xlink">
<path d="M4.58,33.538L4.088,32.668C3.692,32.891 3.497,33.353 3.613,33.793C3.728,34.232 4.126,34.538 4.58,34.538L4.58,33.538ZM19.235,29.695L19.233,30.695L19.235,30.695L19.235,29.695ZM33.89,33.538L33.89,34.538C34.344,34.538 34.741,34.232 34.857,33.793C34.973,33.354 34.778,32.892 34.382,32.668L33.89,33.538ZM19.235,10.521L19.235,9.521L19.235,10.521ZM38.409,21.173L39.409,21.173L38.409,21.173ZM19.235,2L19.235,3L19.235,2ZM5.072,34.409C9.392,31.967 14.271,30.688 19.233,30.695L19.236,28.695C13.928,28.687 8.709,30.056 4.088,32.668L5.072,34.409ZM19.235,30.695C24.384,30.695 29.215,32.044 33.398,34.409L34.382,32.668C29.907,30.137 24.738,28.695 19.235,28.695L19.235,30.695ZM33.89,32.538L4.58,32.538L4.58,34.538L33.89,34.538L33.89,32.538ZM24.626,16.913C24.626,18.343 24.058,19.714 23.047,20.725L24.461,22.139C25.847,20.753 26.626,18.873 26.626,16.913L24.626,16.913ZM23.047,20.725C22.036,21.736 20.665,22.304 19.235,22.304L19.235,24.304C21.195,24.304 23.075,23.525 24.461,22.139L23.047,20.725ZM19.235,22.304C17.805,22.304 16.434,21.736 15.423,20.725L14.009,22.139C15.395,23.525 17.275,24.304 19.235,24.304L19.235,22.304ZM15.423,20.725C14.412,19.714 13.844,18.343 13.844,16.913L11.844,16.913C11.844,18.873 12.623,20.753 14.009,22.139L15.423,20.725ZM13.844,16.913C13.844,15.483 14.412,14.112 15.423,13.101L14.009,11.686C12.623,13.072 11.844,14.952 11.844,16.913L13.844,16.913ZM15.423,13.101C16.434,12.089 17.805,11.521 19.235,11.521L19.235,9.521C17.275,9.521 15.395,10.3 14.009,11.686L15.423,13.101ZM19.235,11.521C20.665,11.521 22.036,12.089 23.047,13.101L24.461,11.686C23.075,10.3 21.195,9.521 19.235,9.521L19.235,11.521ZM23.047,13.101C24.058,14.112 24.626,15.483 24.626,16.913L26.626,16.913C26.626,14.952 25.847,13.072 24.461,11.686L23.047,13.101ZM37.409,21.173C37.409,23.56 36.938,25.923 36.025,28.128L37.873,28.894C38.887,26.446 39.409,23.823 39.409,21.173L37.409,21.173ZM36.025,28.128C35.112,30.333 33.773,32.337 32.086,34.024L33.5,35.438C35.373,33.565 36.859,31.341 37.873,28.894L36.025,28.128ZM32.086,34.024C30.398,35.712 28.395,37.05 26.19,37.964L26.955,39.812C29.403,38.798 31.627,37.312 33.5,35.438L32.086,34.024ZM26.19,37.964C23.985,38.877 21.622,39.347 19.235,39.347L19.235,41.347C21.884,41.347 24.507,40.825 26.955,39.812L26.19,37.964ZM19.235,39.347C16.848,39.347 14.485,38.877 12.28,37.964L11.515,39.812C13.962,40.825 16.586,41.347 19.235,41.347L19.235,39.347ZM12.28,37.964C10.075,37.05 8.072,35.712 6.384,34.024L4.97,35.438C6.843,37.312 9.067,38.798 11.515,39.812L12.28,37.964ZM6.384,34.024C4.697,32.337 3.358,30.333 2.445,28.128L0.597,28.894C1.611,31.341 3.097,33.565 4.97,35.438L6.384,34.024ZM2.445,28.128C1.531,25.923 1.061,23.56 1.061,21.173L-0.939,21.173C-0.939,23.823 -0.417,26.446 0.597,28.894L2.445,28.128ZM1.061,21.173C1.061,16.354 2.976,11.731 6.384,8.323L4.97,6.909C1.187,10.692 -0.939,15.823 -0.939,21.173L1.061,21.173ZM6.384,8.323C9.793,4.915 14.415,3 19.235,3L19.235,1C13.885,1 8.753,3.125 4.97,6.909L6.384,8.323ZM19.235,3C24.055,3 28.677,4.915 32.086,8.323L33.5,6.909C29.717,3.125 24.585,1 19.235,1L19.235,3ZM32.086,8.323C35.494,11.731 37.409,16.354 37.409,21.173L39.409,21.173C39.409,15.823 37.283,10.692 33.5,6.909L32.086,8.323Z" fill="#333333" fill-opacity="0.9"/>
</svg>
