<svg width="42" height="42" viewBox="0 0 42 42" fill="none" xmlns="http://www.w3.org/2000/svg" xmlns:xlink="http://www.w3.org/1999/xlink">
<path d="M6.519,33.538L6.026,32.668C5.631,32.891 5.436,33.353 5.551,33.793C5.667,34.232 6.064,34.538 6.519,34.538L6.519,33.538ZM21.174,29.695L21.172,30.695L21.174,30.695L21.174,29.695ZM35.829,33.538L35.829,34.538C36.283,34.538 36.68,34.232 36.796,33.793C36.911,33.354 36.716,32.892 36.321,32.668L35.829,33.538ZM21.174,10.522L21.174,9.522L21.174,10.522ZM40.347,21.174L41.347,21.174L40.347,21.174ZM21.174,2L21.174,3L21.174,2ZM7.011,34.409C11.331,31.967 16.21,30.688 21.172,30.695L21.175,28.695C15.867,28.687 10.648,30.056 6.026,32.668L7.011,34.409ZM21.174,30.695C26.323,30.695 31.154,32.044 35.336,34.409L36.321,32.668C31.845,30.137 26.676,28.695 21.174,28.695L21.174,30.695ZM35.829,32.538L6.519,32.538L6.519,34.538L35.829,34.538L35.829,32.538ZM26.565,16.913C26.565,18.343 25.997,19.714 24.986,20.725L26.4,22.139C27.786,20.753 28.565,18.873 28.565,16.913L26.565,16.913ZM24.986,20.725C23.975,21.736 22.603,22.304 21.174,22.304L21.174,24.304C23.134,24.304 25.014,23.525 26.4,22.139L24.986,20.725ZM21.174,22.304C19.744,22.304 18.372,21.736 17.361,20.725L15.947,22.139C17.333,23.525 19.213,24.304 21.174,24.304L21.174,22.304ZM17.361,20.725C16.35,19.714 15.782,18.343 15.782,16.913L13.782,16.913C13.782,18.873 14.561,20.753 15.947,22.139L17.361,20.725ZM15.782,16.913C15.782,15.483 16.35,14.112 17.361,13.101L15.947,11.686C14.561,13.073 13.782,14.953 13.782,16.913L15.782,16.913ZM17.361,13.101C18.372,12.09 19.744,11.522 21.174,11.522L21.174,9.522C19.213,9.522 17.333,10.3 15.947,11.686L17.361,13.101ZM21.174,11.522C22.603,11.522 23.975,12.09 24.986,13.101L26.4,11.686C25.014,10.3 23.134,9.522 21.174,9.522L21.174,11.522ZM24.986,13.101C25.997,14.112 26.565,15.483 26.565,16.913L28.565,16.913C28.565,14.953 27.786,13.073 26.4,11.686L24.986,13.101ZM39.347,21.174C39.347,23.56 38.877,25.923 37.964,28.128L39.812,28.894C40.825,26.446 41.347,23.823 41.347,21.174L39.347,21.174ZM37.964,28.128C37.05,30.333 35.712,32.337 34.024,34.024L35.438,35.438C37.312,33.565 38.798,31.341 39.812,28.894L37.964,28.128ZM34.024,34.024C32.337,35.712 30.333,37.05 28.128,37.964L28.894,39.812C31.341,38.798 33.565,37.312 35.438,35.438L34.024,34.024ZM28.128,37.964C25.923,38.877 23.56,39.347 21.174,39.347L21.174,41.347C23.823,41.347 26.446,40.825 28.894,39.812L28.128,37.964ZM21.174,39.347C18.787,39.347 16.424,38.877 14.219,37.964L13.453,39.812C15.901,40.825 18.524,41.347 21.174,41.347L21.174,39.347ZM14.219,37.964C12.014,37.05 10.01,35.712 8.323,34.024L6.909,35.438C8.782,37.312 11.006,38.798 13.453,39.812L14.219,37.964ZM8.323,34.024C6.635,32.337 5.297,30.333 4.383,28.128L2.536,28.894C3.549,31.341 5.035,33.565 6.909,35.438L8.323,34.024ZM4.383,28.128C3.47,25.923 3,23.56 3,21.174L1,21.174C1,23.823 1.522,26.446 2.536,28.894L4.383,28.128ZM3,21.174C3,16.354 4.915,11.731 8.323,8.323L6.909,6.909C3.125,10.692 1,15.823 1,21.174L3,21.174ZM8.323,8.323C11.731,4.915 16.354,3 21.174,3L21.174,1C15.823,1 10.692,3.125 6.909,6.909L8.323,8.323ZM21.174,3C25.993,3 30.616,4.915 34.024,8.323L35.438,6.909C31.655,3.125 26.524,1 21.174,1L21.174,3ZM34.024,8.323C37.432,11.731 39.347,16.354 39.347,21.174L41.347,21.174C41.347,15.823 39.222,10.692 35.438,6.909L34.024,8.323Z" fill="#FFFFFF"/>
</svg>
